<?xml version="1.0" encoding="utf-8"?>
<!-- Generator: Adobe Illustrator 27.5.0, SVG Export Plug-In . SVG Version: 6.00 Build 0)  -->
<svg version="1.1" xmlns="http://www.w3.org/2000/svg" xmlns:xlink="http://www.w3.org/1999/xlink" x="0px" y="0px"
	 viewBox="0 0 500 500" style="enable-background:new 0 0 500 500;" xml:space="preserve">
<g id="Floor">
	<path id="Floor_00000108280531475620760020000015216526270196449197_" style="fill:#FAFAFA;" d="M94.411,260.156
		C8.484,309.766,8.486,390.2,94.416,439.81c85.929,49.61,225.246,49.61,311.173,0c85.927-49.61,85.925-130.044-0.005-179.654
		C319.655,210.546,180.338,210.546,94.411,260.156z"/>
</g>
<g id="Plant">
	<g id="Plants_00000042729918911460137760000004748566199660891807_">
		<g>
			<g>
				<path style="fill:#BA68C8;" d="M193.128,405.365c-0.128-0.062-0.223-0.177-0.259-0.315c-5-19.036-23.782-30.284-31.802-35.088
					c-1.297-0.776-2.321-1.39-2.989-1.855c-2.993-2.085-4.661-5.203-4.458-8.338c0.181-2.825,1.912-5.292,4.748-6.768
					c6.937-3.612,19.962,3.565,29.648,16.333c13.574,17.895,11.149,33.167,11.122,33.32c-0.027,0.16-0.134,0.297-0.282,0.362
					l-5.319,2.355c-0.061,0.027-0.126,0.041-0.19,0.042C193.272,405.414,193.197,405.398,193.128,405.365z M187.241,369.924
					c-9.408-12.402-21.894-19.455-28.424-16.06c-2.564,1.335-4.065,3.454-4.227,5.968c-0.179,2.793,1.332,5.588,4.045,7.477
					c0.641,0.447,1.652,1.052,2.932,1.819c8.045,4.818,26.781,16.04,32.094,35.124l4.552-2.015
					C198.459,400.201,199.591,386.207,187.241,369.924z"/>
			</g>
			<g>
				<path style="fill:#BA68C8;" d="M196.368,404.075c0.022,0,0.044-0.002,0.066-0.006c0.266-0.039,0.449-0.286,0.409-0.552
					c-3.353-22.649-22.608-41.8-33.872-44.527c-0.262-0.065-0.524,0.097-0.588,0.358c-0.063,0.261,0.098,0.524,0.358,0.588
					c11.138,2.696,29.96,22.244,33.14,43.724C195.917,403.904,196.128,404.078,196.368,404.075z"/>
			</g>
		</g>
		<g>
			<g>
				<path style="fill:#BA68C8;" d="M198.666,403.059c0.07-0.001,0.141-0.017,0.208-0.05l3.578-1.767
					c0.145-0.071,0.244-0.209,0.267-0.368c0.032-0.226,3.08-22.908-6.66-51.152c-4.961-14.388-15.997-27.391-26.242-30.917
					c-4.926-1.693-9.417-1.26-13.349,1.291c-2.223,1.443-3.468,3.23-3.699,5.313c-0.639,5.758,6.434,12.991,13.922,20.651
					c5.239,5.358,10.656,10.898,13.574,16.102c0.132,0.235,0.428,0.316,0.662,0.186c0.235-0.132,0.318-0.427,0.186-0.662
					c-2.98-5.316-8.443-10.903-13.726-16.307c-7.322-7.489-14.239-14.563-13.651-19.863c0.2-1.803,1.267-3.309,3.262-4.604
					c3.667-2.381,7.873-2.781,12.502-1.186c9.985,3.436,20.768,16.186,25.639,30.314c9.112,26.426,6.95,47.895,6.647,50.447
					l-3.343,1.652c-0.24,0.118-0.34,0.411-0.221,0.651C198.309,402.961,198.484,403.061,198.666,403.059z"/>
			</g>
			<g>
				<path style="fill:#BA68C8;" d="M197.309,389.163c0.011,0,0.024,0,0.035-0.001c0.268-0.023,0.466-0.258,0.444-0.526
					c-2.982-35.405-27.131-60.126-33.697-63.966c-0.231-0.134-0.53-0.058-0.666,0.174c-0.135,0.232-0.058,0.53,0.174,0.666
					c6.471,3.784,30.269,28.186,33.218,63.208C196.839,388.974,197.056,389.166,197.309,389.163z"/>
			</g>
		</g>
	</g>
</g>
<g id="Shadow">
	
		<ellipse id="Shadow_00000173124950139832397030000015306694520589839036_" style="fill:#E0E0E0;" cx="254.264" cy="419.19" rx="84.899" ry="49.016"/>
</g>
<g id="Cloud_00000016049768762010475890000010710257048371543737_">
	<g id="Cloud">
		<path style="fill:#FFFFFF;" d="M247.022,70.727c-7.173-17.117-30.413-23.254-45.794-16.724
			c-7.027,2.983-16.345,9.938-15.781,20.103c-24.831-25.107-88.854,1.848-67.973,38.754c-32.735-2.565-53.607,48.879-12.765,60.597
			c-36.65,17.759-17.637,74.676,29.491,64.803c-5.101,12.726,5.252,23.331,16.365,27.128c12.612,4.31,29.247,2.306,33.678-5.445
			c11.15,31.367,58.492,35.476,78.739,8.137c14.954,15.765,49.641,13.902,50.839-10.12c24.402,18.93,80.084-3.296,64.23-37.085
			c37.675,3.937,46.282-43.059,16.74-51.362c15.922-4.946,27.839-21.492,21.221-39.901c-4.271-11.879-21.07-30.323-40.649-23.317
			c7.247-23.103-25.606-39.815-43.486-22.139C329.35,48.129,265.932,35.411,247.022,70.727z"/>
		<path style="fill:#F0F0F0;" d="M225.094,287.193c-2.518,0-5.054-0.185-7.589-0.563c-15.724-2.343-28.117-11.528-33.508-24.719
			c-5.969,7.169-22.095,8.334-33.735,4.355c-7.638-2.609-13.871-7.816-16.677-13.929c-1.879-4.097-2.151-8.509-0.809-12.854
			c-24.6,4.443-40.921-9.045-46.258-24.686c-4.713-13.811-1.542-31.583,15.753-41.129c-18.301-6.21-22.688-20.633-20.567-32.374
			c2.674-14.795,16.417-29.903,34.169-29.449c-6.895-13.576-3.194-27.519,10.088-37.561c15.938-12.051,43.313-15.643,58.577-2.309
			c0.679-9.013,8.66-15.575,16.326-18.83c8.502-3.609,19.66-3.461,29.124,0.387c7.778,3.163,13.792,8.504,17.119,15.153
			c10.733-17.968,33.003-22.298,50.746-18.505c19.309,4.132,32.732,16.591,34.76,32.025c10.267-8.848,24.026-7.364,32.822-2.002
			c7.383,4.502,14.006,13.261,11.282,24.673c19.817-5.759,36.1,13.106,40.167,24.419c2.934,8.159,2.515,16.425-1.212,23.904
			c-3.651,7.329-10.129,13.151-18.014,16.282c13.269,5.104,17.292,18.166,15.271,28.729c-2.478,12.949-13.75,25.082-33.396,23.725
			c4.952,11.993,1.53,23.83-9.526,32.678c-14.024,11.222-39.766,15.809-55.399,5.071c-0.972,8.266-6.016,14.458-14.35,17.544
			c-12.258,4.539-28.023,1.205-37.189-7.734C254.339,280.666,240.069,287.192,225.094,287.193z M184.241,259.011
			c0.027,0,0.055,0.002,0.083,0.004c0.361,0.032,0.672,0.272,0.794,0.615c4.77,13.418,16.98,22.823,32.661,25.16
			c17.331,2.58,34.774-4.194,44.453-17.266c0.164-0.221,0.417-0.358,0.691-0.375c0.275-0.017,0.543,0.089,0.732,0.288
			c8.408,8.864,24.205,12.402,35.958,8.047c8.147-3.017,12.863-9.257,13.278-17.572c0.017-0.347,0.226-0.654,0.54-0.8
			c0.314-0.145,0.685-0.103,0.959,0.11c14.774,11.463,40.558,7.06,54.456-4.062c6.333-5.067,15.842-15.95,8.361-31.893
			c-0.143-0.304-0.11-0.661,0.084-0.935c0.193-0.273,0.522-0.427,0.854-0.386c19.465,2.029,30.574-9.628,32.957-22.086
			c1.994-10.421-2.339-23.458-16.565-27.456c-0.396-0.111-0.673-0.471-0.679-0.883c-0.005-0.412,0.261-0.779,0.654-0.901
			c8.569-2.661,15.675-8.585,19.495-16.252c3.495-7.014,3.884-14.774,1.127-22.445c-3.968-11.036-20.11-29.681-39.46-22.755
			c-0.331,0.117-0.703,0.04-0.958-0.205c-0.255-0.245-0.349-0.612-0.243-0.949c3.519-11.216-2.862-19.867-10.007-24.224
			c-8.603-5.245-22.267-6.536-31.938,3.023c-0.26,0.257-0.645,0.34-0.982,0.209c-0.34-0.128-0.574-0.442-0.6-0.805
			c-1.083-15.452-14.227-28.099-33.483-32.22c-17.579-3.761-39.739,0.706-49.622,19.166c-0.17,0.315-0.504,0.487-0.864,0.49
			c-0.358-0.018-0.676-0.239-0.814-0.57c-2.921-6.971-8.914-12.593-16.876-15.83c-9.021-3.669-19.634-3.821-27.696-0.397
			c-2.656,1.128-15.873,7.353-15.216,19.195c0.021,0.386-0.198,0.745-0.552,0.902c-0.352,0.155-0.767,0.079-1.038-0.196
			c-14.213-14.37-41.816-11.003-57.702,1.008c-13.143,9.938-16.351,23.289-8.801,36.633c0.169,0.299,0.16,0.668-0.024,0.958
			c-0.185,0.29-0.524,0.456-0.857,0.428c-17.57-1.39-31.253,13.38-33.865,27.839c-2.666,14.757,5.344,26.321,21.429,30.936
			c0.37,0.107,0.637,0.431,0.67,0.814c0.033,0.385-0.174,0.749-0.521,0.917c-18.05,8.746-21.46,26.344-16.833,39.904
			c5.188,15.205,21.34,28.26,45.728,23.151c0.336-0.072,0.683,0.05,0.903,0.313c0.221,0.263,0.278,0.625,0.15,0.943
			c-1.772,4.423-1.7,8.782,0.216,12.957c2.558,5.574,8.53,10.534,15.587,12.945c12.767,4.363,28.598,1.922,32.569-5.026
			C183.6,259.189,183.909,259.011,184.241,259.011z"/>
	</g>
</g>
<g id="Light_bulbs">
	<path id="Bulb_00000014634394061969808390000010700957550525486225_" style="fill:#EBEBEB;" d="M433.354,102.008
		c-0.119,0.414,0.119,0.846,0.533,0.965l9.957,2.868c0.414,0.119,0.846-0.12,0.965-0.534c0.119-0.414-0.119-0.846-0.534-0.965
		l-9.957-2.868C433.905,101.355,433.473,101.594,433.354,102.008z M443.474,107.136l-9.962-2.869
		c-0.413-0.119-0.844,0.119-0.963,0.532c-0.909,3.157,0.918,6.463,4.075,7.372c3.167,0.912,6.473-0.916,7.382-4.073
		C444.125,107.686,443.888,107.255,443.474,107.136z M444.572,84.576l0.041-0.031c0.855-0.787,1.371-1.692,1.353-2.369
		c-0.023-0.326-0.18-0.521-0.515-0.617c-0.344-0.099-0.581-0.018-0.764,0.249c-0.385,0.56-0.429,1.602-0.124,2.723L444.572,84.576z
		 M439.948,87.909l-0.045,0.008l0.011,0.035c0.127,0.633,0.205,1.358,0.228,2.132c0.116,3.442-0.857,6.601-1.704,9.393
		c-0.071,0.246-0.144,0.502-0.225,0.745l-0.215,0.747l3.432,0.988c0.144-0.501,0.286-0.993,0.423-1.507
		c0.725-2.667,1.615-5.978,3.55-8.85c0.43-0.643,0.87-1.209,1.326-1.684l0.018-0.027l-0.034-0.031
		c-0.721-0.527-1.364-1.181-1.916-1.926c-0.325-0.424-0.579-0.838-0.8-1.253l-0.024-0.028l-0.028,0.024
		c-0.408,0.234-0.863,0.444-1.341,0.626C441.761,87.643,440.862,87.842,439.948,87.909z M449.926,68.833
		c-4.211-1.426-8.687-1.085-12.609,0.959c-3.925,2.054-6.768,5.527-7.994,9.786c-1.558,5.409-0.111,11.332,3.775,15.443
		c1.043,1.11,1.435,2.671,1.025,4.097c-0.108,0.374,0.109,0.766,0.474,0.871l2.124,0.612c0.142-0.492,0.286-0.993,0.454-1.541
		c0.855-2.821,1.741-5.75,1.645-8.93c-0.035-0.841-0.121-1.579-0.269-2.208l-0.004-0.022l-0.023,0.004
		c-1.418-0.142-2.707-0.695-3.302-1.441c-0.475-0.605-0.527-1.313-0.14-1.883c0.451-0.68,1.246-0.962,2.072-0.724
		c1.003,0.289,1.877,1.286,2.4,2.725l0.004,0.022l0.02,0.006c0.841-0.035,1.702-0.213,2.543-0.546c0.469-0.185,0.9-0.39,1.289-0.63
		l0.025-0.014l-0.004-0.022c-0.594-1.673-0.54-3.34,0.151-4.334c0.523-0.744,1.353-1.037,2.238-0.783
		c0.875,0.252,1.422,0.942,1.472,1.84c0.054,1.219-0.787,2.659-2.183,3.77l-0.013,0.007l0.007,0.013
		c0.209,0.422,0.465,0.826,0.764,1.232c0.555,0.735,1.177,1.351,1.853,1.812l0.03,0.008l0.016-0.017
		c1.208-0.941,2.478-1.32,3.481-1.032c0.826,0.238,1.349,0.9,1.367,1.725c0.025,0.689-0.392,1.25-1.126,1.507
		c-0.888,0.309-2.217,0.118-3.553-0.533l-0.02-0.006l-0.012,0.007c-0.461,0.453-0.936,1.03-1.402,1.726
		c-1.775,2.652-2.586,5.613-3.38,8.484l-0.036,0.16c-0.12,0.455-0.248,0.898-0.375,1.34l2.114,0.609
		c0.187,0.054,0.377,0.023,0.539-0.058c0.155-0.094,0.284-0.248,0.335-0.425c0.414-1.436,1.55-2.536,3.06-2.932
		c5.57-1.442,9.97-5.777,11.458-11.312C462.397,80.188,457.771,71.507,449.926,68.833z M436.175,85.331
		c-0.042,0.073-0.03,0.141,0.077,0.288c0.255,0.297,0.806,0.605,1.428,0.773c0.108,0.031,0.207,0.06,0.318,0.081l0.059,0.017
		l-0.025-0.06c-0.339-0.673-0.823-1.174-1.246-1.296C436.608,85.084,436.355,85.075,436.175,85.331z M451.063,89.885
		c0.169-0.069,0.225-0.116,0.221-0.213c0-0.298-0.219-0.425-0.405-0.479c-0.433-0.125-1.099,0.046-1.744,0.435l-0.053,0.038
		l0.059,0.017c0.115,0.044,0.214,0.072,0.332,0.106C450.111,89.973,450.685,90.011,451.063,89.885z"/>
	<path id="Bulb_00000070118875352771088250000009702834754403917483_" style="fill:#EBEBEB;" d="M52.584,219.238
		c0.217,0.413,0.726,0.572,1.139,0.355l9.925-5.21c0.413-0.217,0.571-0.727,0.355-1.14c-0.217-0.413-0.726-0.572-1.139-0.355
		l-9.925,5.21C52.526,218.315,52.367,218.825,52.584,219.238z M64.328,215.671l-9.93,5.213c-0.412,0.216-0.57,0.725-0.354,1.136
		c1.652,3.147,5.553,4.362,8.7,2.71c3.156-1.657,4.372-5.559,2.72-8.705C65.248,215.613,64.74,215.455,64.328,215.671z
		 M48.304,197.224l0.009-0.055c0.079-1.255-0.195-2.348-0.715-2.863c-0.262-0.238-0.53-0.272-0.863-0.097
		c-0.343,0.18-0.467,0.42-0.411,0.766c0.118,0.726,0.863,1.573,1.941,2.22L48.304,197.224z M47.186,203.288l-0.029,0.04l0.035,0.019
		c0.572,0.4,1.177,0.908,1.773,1.495c2.666,2.602,4.27,5.799,5.697,8.613c0.129,0.245,0.262,0.5,0.382,0.75l0.391,0.745l3.421-1.796
		c-0.262-0.5-0.52-0.99-0.797-1.495c-1.429-2.626-3.211-5.879-3.849-9.571c-0.145-0.824-0.225-1.595-0.224-2.308l-0.006-0.035
		l-0.05,0.001c-0.958,0.128-1.949,0.098-2.938-0.071c-0.571-0.088-1.079-0.221-1.562-0.38l-0.04-0.004l-0.004,0.04
		c-0.144,0.488-0.342,0.992-0.58,1.492C48.403,201.724,47.85,202.552,47.186,203.288z M40.706,180.918
		c-4.357,2.037-7.599,5.652-9.133,10.184c-1.53,4.542-1.152,9.383,1.077,13.627c2.83,5.391,8.393,8.936,14.505,9.241
		c1.646,0.086,3.12,1.013,3.866,2.434c0.196,0.373,0.659,0.517,1.022,0.326l2.117-1.111c-0.257-0.49-0.52-0.99-0.798-1.544
		c-1.443-2.844-2.942-5.795-5.397-8.208c-0.656-0.631-1.276-1.143-1.862-1.523l-0.02-0.014l-0.014,0.02
		c-1.214,0.95-2.635,1.483-3.658,1.345c-0.824-0.117-1.394-0.631-1.518-1.367c-0.156-0.868,0.254-1.684,1.077-2.116
		c1-0.525,2.429-0.4,3.914,0.334l0.02,0.014l0.02-0.01c0.631-0.656,1.17-1.439,1.578-2.329c0.228-0.495,0.412-0.979,0.536-1.457
		l0.009-0.03l-0.02-0.014c-1.716-0.862-2.921-2.205-3.125-3.499c-0.148-0.973,0.281-1.823,1.163-2.286
		c0.872-0.458,1.816-0.328,2.527,0.336c0.954,0.912,1.375,2.667,1.116,4.578l-0.005,0.015l0.015,0.005
		c0.479,0.174,0.981,0.298,1.518,0.391c0.984,0.159,1.93,0.175,2.804,0.029l0.029-0.015l0-0.025c0.24-1.639,0.948-2.886,1.948-3.411
		c0.824-0.432,1.727-0.307,2.359,0.325c0.535,0.519,0.629,1.27,0.248,2.021c-0.462,0.906-1.644,1.751-3.174,2.242l-0.02,0.01
		l-0.005,0.015c-0.021,0.699,0.04,1.505,0.196,2.398c0.597,3.4,2.18,6.32,3.707,9.158l0.092,0.152
		c0.247,0.446,0.478,0.887,0.71,1.328l2.107-1.106c0.186-0.098,0.312-0.264,0.377-0.448c0.051-0.189,0.037-0.407-0.056-0.583
		c-0.751-1.431-0.686-3.141,0.197-4.58c3.272-5.294,3.467-11.974,0.487-17.412C58.946,180.458,48.838,177.137,40.706,180.918z
		 M42.309,204.098c0.022,0.089,0.082,0.132,0.276,0.168c0.422,0.041,1.082-0.13,1.694-0.464c0.108-0.057,0.206-0.108,0.309-0.174
		l0.059-0.031l-0.065-0.028c-0.768-0.272-1.521-0.302-1.943-0.08C42.462,203.58,42.258,203.762,42.309,204.098z M57.348,196.515
		c0.081-0.18,0.089-0.259,0.013-0.332c-0.223-0.233-0.489-0.169-0.675-0.071c-0.431,0.226-0.825,0.858-1.037,1.645l-0.014,0.07
		l0.059-0.031c0.123-0.052,0.221-0.103,0.339-0.165C56.67,197.296,57.147,196.896,57.348,196.515z"/>
</g>
<g id="Symbols">
	<g>
		<g id="Question_Mark_00000008128422323079487100000003469060866027729314_">
			<path style="fill:#F0F0F0;" d="M431.411,192.945c1.005-0.413,2.072-0.766,3.199-1.06c1.129-0.294,2.302-0.482,3.522-0.568
				c1.22-0.084,2.498-0.042,3.833,0.129c1.334,0.171,2.726,0.506,4.175,1.007c1.97,0.682,3.669,1.574,5.1,2.677
				c1.429,1.103,2.548,2.358,3.353,3.764c0.807,1.407,1.28,2.932,1.421,4.577c0.139,1.645-0.096,3.35-0.707,5.115
				c-0.595,1.72-1.358,3.123-2.291,4.206c-0.932,1.084-1.933,1.961-3,2.63c-1.069,0.669-2.167,1.189-3.296,1.559
				c-1.129,0.37-2.193,0.718-3.192,1.044c-1,0.325-1.889,0.677-2.665,1.054c-0.776,0.377-1.346,0.91-1.711,1.594l-2.495,4.687
				l-5.738-1.985l1.337-5.733c0.232-1.11,0.708-1.991,1.427-2.642c0.719-0.651,1.562-1.183,2.529-1.596
				c0.966-0.413,2.009-0.774,3.13-1.084c1.119-0.309,2.204-0.694,3.25-1.157c1.046-0.461,1.995-1.058,2.843-1.79
				c0.849-0.733,1.492-1.733,1.931-3.001c0.282-0.815,0.382-1.597,0.299-2.348c-0.082-0.751-0.314-1.452-0.697-2.104
				c-0.383-0.652-0.911-1.233-1.582-1.745c-0.672-0.511-1.45-0.919-2.332-1.224c-1.289-0.446-2.431-0.682-3.422-0.709
				c-0.993-0.026-1.861,0.028-2.604,0.164c-0.743,0.135-1.379,0.27-1.907,0.404c-0.527,0.135-0.96,0.143-1.301,0.025
				c-0.815-0.282-1.286-0.824-1.414-1.629L431.411,192.945z M425.278,231.442c0.243-0.701,0.604-1.324,1.083-1.868
				c0.479-0.543,1.023-0.963,1.633-1.259c0.609-0.296,1.278-0.47,2.006-0.523c0.728-0.052,1.454,0.047,2.178,0.297
				c0.724,0.251,1.349,0.619,1.879,1.106c0.528,0.487,0.946,1.037,1.254,1.65c0.306,0.613,0.486,1.283,0.539,2.011
				c0.052,0.728-0.043,1.443-0.285,2.144c-0.251,0.725-0.619,1.351-1.106,1.879c-0.487,0.529-1.041,0.939-1.661,1.232
				c-0.621,0.292-1.288,0.461-2,0.505c-0.714,0.044-1.431-0.057-2.155-0.308c-0.724-0.251-1.358-0.616-1.902-1.095
				c-0.544-0.479-0.964-1.023-1.26-1.633c-0.296-0.609-0.466-1.27-0.511-1.983C424.924,232.884,425.027,232.167,425.278,231.442z"/>
		</g>
		<g id="Question_Mark_00000085246607464183304830000008479592218836270777_">
			<path style="fill:#E0E0E0;" d="M116.848,341.194c-0.318,1.082-0.725,2.177-1.218,3.281c-0.495,1.106-1.104,2.18-1.827,3.224
				c-0.724,1.043-1.589,2.052-2.594,3.023c-1.005,0.971-2.18,1.881-3.528,2.73c-1.832,1.154-3.659,1.952-5.482,2.395
				c-1.822,0.442-3.566,0.534-5.229,0.273c-1.664-0.26-3.208-0.867-4.633-1.821c-1.424-0.956-2.653-2.254-3.687-3.895
				c-1.008-1.6-1.649-3.129-1.922-4.589c-0.273-1.46-0.334-2.84-0.184-4.14c0.151-1.301,0.444-2.529,0.877-3.684
				c0.433-1.155,0.842-2.244,1.227-3.265c0.386-1.022,0.678-1.971,0.877-2.845c0.198-0.874,0.137-1.682-0.181-2.422l-2.179-5.066
				l5.336-3.362l3.779,4.808c0.749,0.909,1.154,1.867,1.214,2.873c0.06,1.005-0.056,2.035-0.349,3.087
				c-0.292,1.051-0.677,2.132-1.155,3.241c-0.476,1.108-0.869,2.238-1.174,3.386c-0.306,1.147-0.438,2.304-0.395,3.468
				c0.043,1.164,0.435,2.335,1.178,3.514c0.478,0.758,1.046,1.347,1.709,1.767c0.662,0.421,1.381,0.689,2.157,0.802
				c0.777,0.113,1.591,0.063,2.442-0.149c0.851-0.213,1.687-0.578,2.507-1.095c1.199-0.755,2.132-1.527,2.798-2.314
				c0.667-0.788,1.186-1.526,1.559-2.217c0.373-0.691,0.676-1.293,0.911-1.808c0.233-0.515,0.508-0.871,0.824-1.07
				c0.758-0.478,1.504-0.507,2.238-0.088L116.848,341.194z M89.627,311.22c0.411,0.652,0.681,1.349,0.811,2.091
				c0.129,0.741,0.116,1.455-0.04,2.141c-0.156,0.686-0.449,1.341-0.879,1.965c-0.43,0.624-0.982,1.148-1.656,1.573
				s-1.378,0.692-2.117,0.804c-0.738,0.112-1.455,0.093-2.152-0.055c-0.696-0.15-1.356-0.439-1.98-0.869
				c-0.624-0.43-1.142-0.972-1.552-1.624c-0.425-0.674-0.692-1.379-0.804-2.117c-0.112-0.738-0.085-1.454,0.08-2.146
				c0.167-0.693,0.463-1.343,0.889-1.949c0.428-0.607,0.976-1.122,1.649-1.547s1.382-0.701,2.123-0.83
				c0.742-0.13,1.456-0.116,2.142,0.039c0.686,0.156,1.332,0.447,1.939,0.874C88.687,309.996,89.202,310.545,89.627,311.22z"/>
		</g>
		<g id="Check_00000134968500805575723200000010171563914731244692_">
			<path style="fill:#E0E0E0;" d="M372.254,373.278c-1.108-0.324-2.036-1.092-2.559-2.128l-6.259-12.38
				c-1.042-2.062-0.216-4.578,1.846-5.621c2.063-1.043,4.579-0.214,5.621,1.846l4.065,8.04l19.166-13.623
				c1.882-1.34,4.493-0.899,5.833,0.986c1.339,1.883,0.897,4.495-0.986,5.833l-23.129,16.441c-0.993,0.707-2.245,0.944-3.427,0.651
				C372.367,373.31,372.31,373.294,372.254,373.278z"/>
		</g>
		<g id="Check_00000091709181576200589990000011091998015545879225_">
			<path style="fill:#F0F0F0;" d="M58.818,108.501c-1.316,0.252-2.683-0.05-3.772-0.842l-13.027-9.475
				c-2.169-1.578-2.649-4.616-1.071-6.786c1.579-2.171,4.617-2.648,6.786-1.071l8.46,6.154l12.584-24.232
				c1.234-2.381,4.166-3.31,6.55-2.073c2.381,1.237,3.309,4.169,2.073,6.55l-15.187,29.243c-0.652,1.256-1.819,2.165-3.196,2.489
				C58.952,108.474,58.884,108.489,58.818,108.501z"/>
		</g>
	</g>
</g>
<g id="Character">
	<g id="Character_5_">
		<g id="Arm">
			<path style="fill:#F28F8F;" d="M200.91,207.941c0.789-0.179,1.674,0.244,2.03,0.971c0.288-0.206,0.462-0.581,0.803-0.677
				c0.416-0.117,0.803,0.247,1.057,0.597c1.969,2.712,1.883,6.735-0.201,9.36c-0.129,0.163-0.27,0.325-0.458,0.413
				c-0.215,0.101-0.464,0.093-0.702,0.078c-1.255-0.081-2.501-0.31-3.702-0.681c-1.202-0.371-2.481-1.009-2.891-2.198
				c-0.297-0.863-0.059-1.808,0.18-2.689c0.326-1.2,0.727-2.262,1.588-3.175C199.186,209.332,200.107,208.124,200.91,207.941z"/>
			<path style="fill:#FFA8A7;" d="M233.779,124.175c-10.954,1.91-15.458,1.484-25.71,13.509
				c-11.616,13.625-18.603,21.554-20.665,24.974c-4.001,6.636-3.585,9.047,5.199,21.321c6.948,9.708,10.269,12.276,12.333,16.522
				c1.285,2.644-0.864,5.16-1.459,6.609c-0.933,2.272,0.032,4.801-0.755,9.184c-1.98-1.143-4.892-1.763-4.892-1.763
				s3.459-3.44,2.048-5.845c-0.214-0.365-0.688-0.458-1.033-0.214c-0.81,0.573-2.076,1.908-3.565,3.243
				c-2.615,2.346-1.966,2.89-0.922,7.094c0.417,1.68,1.701,2.2,6.681,3.375c4.98,1.175,6.514,0.564,12.862-4.407
				c6.348-4.971,5.995-18.381,4.345-24.042c-1.944-6.673-10.129-22.811-10.129-22.811l17.12-21.089L233.779,124.175z"/>
			<path style="fill:#F28F8F;" d="M208.119,170.924c-3.865,2.722-8.562,2.926-11.035,2.297c4.21,2.431,9.827,1.419,11.876-0.411
				L208.119,170.924z"/>
		</g>
		<g id="Bottom_00000058575771027874700430000009293530317208084621_">
			<path style="fill:#FFA8A7;" d="M301.007,361.629l-28.804,1.161c4.18,18.401,8.936,30.6,9.987,40.105
				c0.331,2.395,4.368,26.989,5.681,32.37c1.313,5.38,14.672,5.429,15.464-3.846c0.527-6.174-0.959-28.371-1.223-31.322
				C300.964,387.317,301.472,378.287,301.007,361.629z"/>
			<path style="fill:#FFA8A7;" d="M212.338,358.994c0.26,14.017,0.627,23.488,0.627,28.877s-1.7,10.662-4.491,13.276
				c-5.844,5.474-10.824,10.686-18.146,15.459c1.061,2.446,9.867,2.356,14.226,0.494c6.965-2.974,13.877-7.511,16.254-9.047
				c6.016-3.889,13.705-7.009,13.803-12.927c0.017-0.737,3.807-1.773,2.368-8.727c0,0,1.964-12.227,4.061-28.414L212.338,358.994z"
				/>
			<g>
				<path style="fill:#263238;" d="M181.314,420.517c-0.362-0.004-0.953,4.011,0.999,5.741c2.254,1.997,8.897,5.308,17.732,4.256
					c8.835-1.052,13.642-3.745,17.205-6.678c3.562-2.933,8.555-7.07,12.556-7.912c3.716-0.782,7.76-2.427,8.959-3.567
					c1.198-1.139,1.089-6.264,1.089-6.264L181.314,420.517z"/>
				<path id="XMLID_00000137093784939174050370000016886480554297771692_" style="fill:#37474F;" d="M236.988,386.339
					c0,0,0.665,0.029,0.881,1.217c0.257,1.414,0.506,5.523,1.065,7.846c0.775,3.229,1.248,9.835,0.734,12.455
					c-0.514,2.619-6.577,4.378-10.455,5.815c-3.961,1.468-8.557,4.532-12.598,7.81c-4.182,3.392-12.941,6.747-18.692,6.77
					c-8.78,0.035-14.44-2.421-16.162-5.612c-0.879-1.629-1.151-3.326,0.034-4.875c1.489-1.945,3.825-3.187,5.867-4.446
					c3.713-2.289,7.378-4.654,10.919-7.189c1.785-1.278,3.586-2.583,5.226-4.044c1.634-1.455,3.308-2.946,4.597-4.728
					c1.187-1.641,1.866-3.89,2.414-5.819c0.121-0.425,0.239-0.868,0.522-1.208c0.292-0.352,0.727-0.552,1.157-0.708
					c2.185-0.796,4.612-0.726,6.89-0.452c2.485,0.298,4.739,1.077,6.711,2.615c0.821,0.64,0.846,1.588,0.915,2.571
					c0.077,1.095,0.006,2.2-0.213,3.275c-0.066,0.323-0.073,0.772,0.246,0.855c0.238,0.062,0.45-0.154,0.596-0.352
					c1.941-2.627,2.892-6.081,5.6-8.069c0.832-0.61,2.076-0.839,2.786-1.535C236.647,387.923,236.929,386.84,236.988,386.339z"/>
				<path style="fill:#FAFAFA;" d="M191.727,410.783c13.563,0,17.77,9.607,18.258,14.496c-3.01,1.757-9.433,2.961-12.062,2.971
					c-8.78,0.035-14.801-2.421-16.523-5.612C179.391,418.914,181.341,414.644,191.727,410.783z"/>
				<g>
					<g>
						<path style="fill:#F0F0F0;" d="M209.312,411.525c0.15-0.013,0.296-0.076,0.412-0.189c0.267-0.258,0.269-0.679,0.008-0.94
							c-2.134-2.131-7.953-4.673-12.912-3.67c-0.367,0.073-0.605,0.426-0.529,0.784c0.073,0.359,0.421,0.592,0.796,0.518
							c4.63-0.923,9.99,1.612,11.682,3.303C208.915,411.479,209.116,411.544,209.312,411.525z"/>
					</g>
					<g>
						<path style="fill:#F0F0F0;" d="M214.549,407.515c0.152-0.015,0.299-0.077,0.415-0.188c0.269-0.253,0.27-0.662,0.005-0.913
							c-2.165-2.047-8.051-4.457-13.049-3.42c-0.37,0.075-0.609,0.42-0.531,0.768c0.075,0.347,0.42,0.57,0.805,0.494
							c4.671-0.953,10.092,1.454,11.806,3.076C214.148,407.475,214.352,407.535,214.549,407.515z"/>
					</g>
					<g>
						<path style="fill:#F0F0F0;" d="M219.205,404.034c0.147-0.013,0.29-0.076,0.404-0.191c0.262-0.264,0.265-0.701,0.01-0.976
							c-2.083-2.242-7.792-4.957-12.625-3.98c-0.359,0.071-0.592,0.434-0.52,0.807c0.071,0.374,0.406,0.618,0.778,0.548
							c4.526-0.898,9.77,1.806,11.422,3.583C218.817,403.979,219.013,404.05,219.205,404.034z"/>
					</g>
					<g>
						<path style="fill:#F0F0F0;" d="M223.113,399.585c0.141-0.008,0.282-0.063,0.396-0.166c0.27-0.241,0.292-0.656,0.052-0.925
							c-2.743-3.092-8.638-4.889-13.445-4.074c-0.356,0.059-0.597,0.399-0.536,0.754c0.059,0.356,0.384,0.589,0.751,0.539
							c4.329-0.731,9.823,0.913,12.257,3.653C222.725,399.523,222.921,399.596,223.113,399.585z"/>
					</g>
				</g>
			</g>
			<g>
				<path style="fill:#263238;" d="M283.705,439.495c0.172,5.751,1.15,9.075,3.339,12.21c2.189,3.135,6.628,4.295,10.763,3.344
					c4.135-0.952,8.642-3.765,10.513-8.167c2.039-4.796,1.76-8.103,0.785-13.078L283.705,439.495z"/>
				<path id="XMLID_00000019673530627850171810000014336627513491720601_" style="fill:#37474F;" d="M281.876,400.747
					c0.342,1.786,1.643,6.132,1.828,6.781c0.041,0.144,0.099,0.308,0.239,0.361c0.152,0.058,0.326-0.056,0.393-0.205
					c0.304-0.679,0.076-2.059,0.111-2.817c0.029-0.618,0.063-1.257,0.342-1.81c0.443-0.877,1.408-1.354,2.345-1.65
					c3.774-1.191,8.083-1.315,11.965-0.65c0.206,0.035,0.416,0.075,0.594,0.185c0.442,0.273,0.532,0.866,0.579,1.383
					c0.094,1.054,0.189,2.107,0.283,3.161c0.021,0.235,0.114,0.539,0.35,0.534c0.141-0.003,0.246-0.126,0.326-0.242
					c0.613-0.899,0.658-1.588,0.713-2.637c0.063-1.189,0.092-2.38,0.066-3.57c-0.011-0.464-0.019-0.929-0.057-1.392
					c1.707,0.106,0.991,6.175,2.589,15.386c1.335,7.697,3.355,12.355,4.342,18.695c1.127,7.243-0.214,10.492-3.073,14.897
					c-2.858,4.405-13.056,8.777-18.141,2.534c-4.145-5.09-4.354-10.766-4.031-18.008c0.335-7.487-1.076-13.752-1.463-19.43
					C281.804,406.827,280.398,401.362,281.876,400.747z"/>
				<path style="fill:#FAFAFA;" d="M309.384,436.459c0.326,4.5-0.876,7.23-3.113,10.677c-2.858,4.405-13.88,9.16-18.964,2.917
					c-2.53-3.106-3.228-6.795-3.599-10.561C286.694,434.63,304.59,432.372,309.384,436.459z"/>
				<g>
					<g>
						<path style="fill:#F0F0F0;" d="M287.193,430.712c0.071-0.007,0.141-0.024,0.21-0.053c0.069-0.029,7.943-2.955,15.639-1.445
							c0.34,0.062,0.678-0.123,0.756-0.423c0.076-0.3-0.139-0.598-0.48-0.664c-8.139-1.592-16.168,1.405-16.469,1.531
							c-0.314,0.136-0.445,0.469-0.293,0.745C286.676,430.62,286.935,430.737,287.193,430.712z"/>
					</g>
					<g>
						<path style="fill:#F0F0F0;" d="M302.622,423.813c0.239-0.023,0.453-0.165,0.534-0.378c0.108-0.293-0.07-0.607-0.401-0.704
							c-7.665-2.224-16.131,1.255-16.449,1.405c-0.31,0.144-0.426,0.48-0.261,0.752c0.165,0.27,0.552,0.366,0.855,0.228
							c0.071-0.033,8.322-3.406,15.454-1.327C302.443,423.815,302.533,423.821,302.622,423.813z"/>
					</g>
					<g>
						<path style="fill:#F0F0F0;" d="M302.317,418.719c0.234-0.022,0.445-0.161,0.529-0.369c0.116-0.292-0.057-0.609-0.386-0.709
							c-8.432-2.591-16.464,1.203-16.761,1.364c-0.298,0.162-0.391,0.504-0.207,0.765c0.184,0.262,0.581,0.343,0.871,0.181
							c0.066-0.037,7.829-3.67,15.677-1.261C302.131,418.719,302.226,418.728,302.317,418.719z"/>
					</g>
					<g>
						<path style="fill:#EBEBEB;" d="M301.678,412.41c0.231-0.022,0.441-0.157,0.527-0.362c0.12-0.289-0.047-0.608-0.375-0.714
							c-7.902-2.541-16.549,1.351-16.873,1.521c-0.302,0.154-0.403,0.495-0.227,0.761c0.174,0.266,0.561,0.359,0.865,0.198
							c0.076-0.038,8.461-3.795,15.798-1.435C301.487,412.41,301.584,412.42,301.678,412.41z"/>
					</g>
				</g>
			</g>
			<g>
				<path style="fill:#455A64;" d="M284.428,185.377c3.522,6.2,7.188,12.196,9.979,24.739c2.559,11.497,2.595,21.195,2.441,41.014
					c-0.284,36.586-0.029,42.466,0.115,46.877c0.143,4.411,1.09,8.174,3.345,29.903c2.254,21.728,1.184,48.562,1.184,48.562
					s-5.651,3.635-13.959,4.38c-7.664,0.687-11.986-1.279-11.986-1.279s-12.861-43.498-15.768-56.586
					c-2.907-13.088-9.043-49.173-9.043-49.173l-3.398,29.526c0,0,0.765,11.607-1.573,30.661
					c-2.338,19.054-6.457,38.571-6.457,38.571s-2.596,2.937-12.95,2.605c-10.784-0.346-14.451-3.38-14.451-3.38
					s-4.006-60.124-4.007-81.721c0-21.597,2.429-76.068,7.226-104.553L284.428,185.377z"/>
				<path style="fill:#37474F;" d="M221.467,217.098c3.256,8.918,15.106,15.163,20.314,16.412l5.826,38.865l-0.268,30.964
					l3.398-29.526l-6.801-47.288C243.935,226.525,229.494,225.492,221.467,217.098z M270.867,212.748
					c0.854,3.505,1.626,7.032,2.45,10.556c0.807,3.529,1.618,7.055,2.49,10.608c0.08-3.664-0.242-7.313-0.722-10.928
					c-0.47-3.62-1.154-7.207-1.979-10.765c-0.866-3.548-1.857-7.072-3.124-10.508c-1.255-3.433-2.728-6.817-4.688-9.916
					c1.091,3.492,2.061,6.963,2.98,10.452C269.174,205.739,270.056,209.233,270.867,212.748z M277.006,205.999
					c1.175,2.112,2.291,4.252,3.417,6.395l3.323,6.542c-0.211-2.487-0.846-4.915-1.674-7.255c-0.817-2.349-1.877-4.6-3.046-6.784
					c-1.207-2.164-2.523-4.266-4.017-6.24c-1.482-1.98-3.097-3.864-4.941-5.542c1.08,2.247,2.262,4.383,3.438,6.514
					C274.668,201.766,275.868,203.867,277.006,205.999z M271.579,304.622c-2.083-11.188-3.565-22.499-5.03-33.819
					c-1.426-11.326-2.842-22.665-4.417-33.988c0.69,11.411,1.511,22.81,2.638,34.188c1.102,11.379,2.492,22.75,4.546,34.035
					c2.197,11.257,4.41,22.422,6.762,33.61c2.318,11.183,4.784,22.339,7.394,33.473c-1.731-11.297-3.608-22.571-5.632-33.819
					C275.851,327.061,273.718,315.797,271.579,304.622z M219.603,266.606l1.864-29.791c-1.534,9.842-2.729,19.736-3.649,29.654
					c-0.891,9.932-1.743,19.823-1.775,29.892c0.337,10.021,1.098,19.913,1.912,29.845c0.809,9.921,1.807,19.828,2.976,29.719
					c-0.277-9.956-0.675-19.902-1.184-29.838l-0.751-14.901c-0.251-4.958-0.552-9.942-0.654-14.862
					c-0.082-4.899,0.213-9.88,0.439-14.833C219.009,276.529,219.328,271.57,219.603,266.606z"/>
			</g>
		</g>
		<g id="Top_00000100370769371807525250000015668063078366908343_">
			<path style="fill:#263238;" d="M277.221,71.749c6.524,4.15,6.356,9.986,6.394,24.148c0.038,14.162-0.86,52.814-0.86,52.814
				l-47.07-0.273v-43.108l-3.309-15.79c0,0-4.642-6.593-4.034-13.345c0.609-6.752,4.702-15.513,16.882-18.029
				C255.371,56.072,274.755,58.331,277.221,71.749z"/>
			<g>
				<path style="fill:#37474F;" d="M284.428,185.377c2.897-3.962-0.923-6.64,0.348-13.233c1.634-8.477,2.267-12.344,2.873-16.398
					c2.09-13.984-0.003-20.971-3.054-27.748c0,0-15.592-4.253-18.837-5.041c-8.074-1.959-13.631-1.381-16.707-1.068
					c-1.517,0.154-15.264,2.281-15.271,2.286c0,0-13.051,8.921-17.699,17.228c-3.547,6.34-6.875,15.755-0.628,26.882
					c0.462,10.025-3.222,13.296-0.457,17.937C221.528,194.524,263.132,202.457,284.428,185.377z"/>
			</g>
			<g id="Head_00000091710341263861498290000012554893674946520746_">
				<g id="Head_00000045598563024867599320000007819379525261364637_">
					<g id="Head_00000096742562241618156650000007426128718647102896_">
						<g id="XMLID_00000077310510480246523760000005867856956558035106_">
							<g id="XMLID_00000141454511921138395760000007810066923242681271_">
								<path id="XMLID_00000042012823235711010910000003973258509316969351_" style="fill:#FFA8A7;" d="M271.128,107.907
									c2.636,0.651,5.239-0.523,6.958-2.209c3.814-3.744,4.377-7.744,2.857-10.516c-1.249-2.278-4.557-3.877-7.017-2.524
									c-2.631,1.447-2.784,2.741-3.847,4.484c-1.091,1.789-3.444,0.199-2.208-6.98c-4.071-0.741-11.579-4.697-14.274-8.802
									c-3.09-4.706-4.063-7.13-6.366-9.156c-3.344-2.943-8.089-2.556-9.93-1.287c-2.493,2.823-5.099,5.738-6.089,18.049
									c-1.935,13.018-0.12,21.413,2.742,24.359c1.97,2.027,6.456,4.167,11.072,4.161l-0.241,5.939c0,0-14.419,12.2,2.604,11.902
									c12.755-0.223,19.821-9.799,19.821-9.799l1.231-19.837C268.439,105.69,268.623,107.288,271.128,107.907z"/>
							</g>
							<g>
								<g>
									<g id="XMLID_00000080917229101350604950000001359521267404856199_">
										<path id="XMLID_00000124127522000477732960000010713862772696376729_" style="fill:#263238;" d="M249.848,91.565
											c0.296,1.206,1.476,1.948,2.635,1.659c1.159-0.289,1.858-1.499,1.561-2.704c-0.297-1.205-1.476-1.947-2.635-1.659
											C250.251,89.15,249.552,90.36,249.848,91.565z"/>
									</g>
								</g>
								<g id="XMLID_00000165952856904470740250000013102252114208296090_">
									<path id="XMLID_00000047744522951334087600000009595789695477382057_" style="fill:#263238;" d="M240.398,78.94
										l-4.924,1.583c0.389,1.387,1.807,2.158,3.167,1.72C240.001,81.806,240.788,80.327,240.398,78.94z"/>
								</g>
								<g>
									<g id="XMLID_00000032630040011783456640000010095047082899536554_">
										<path id="XMLID_00000083079675642544222910000002614283952827350710_" style="fill:#263238;" d="M238.221,90.125
											c-0.491,1.14-1.778,1.677-2.872,1.201c-1.095-0.477-1.585-1.786-1.093-2.925c0.491-1.139,1.777-1.677,2.873-1.201
											C238.222,87.676,238.712,88.986,238.221,90.125z"/>
									</g>
								</g>
								<g id="XMLID_00000141454706963329951310000008077874189830702262_">
									<path id="XMLID_00000087375754384872229780000015043774036424091532_" style="fill:#263238;" d="M250.889,82.213
										l4.71,2.908c0.859-1.281,0.5-2.97-0.801-3.773C253.497,80.545,251.747,80.932,250.889,82.213z"/>
								</g>
								<g>
									<path style="fill:#455A64;" d="M227.857,84.625c-0.056,0.854,0.402,1.69,0.648,2.045c0.13,0.187,0.239,0.428,0.273,0.732
										c0.152,1.37,0.081,3.938,0.549,5.422c0.47,1.483,1.553,3.864,5.494,4.28c0.766,0.082,1.456,0.08,2.076,0.008
										c0.054-0.005,0.108-0.013,0.16-0.019c0.66-0.087,1.241-0.256,1.758-0.483c0.036-0.016,0.073-0.033,0.107-0.05
										c0.053-0.023,0.104-0.047,0.155-0.073c0.046-0.022,0.091-0.046,0.196-0.103c0.063-0.033,0.122-0.067,0.183-0.104
										c0.069-0.04,0.135-0.081,0.201-0.125c0.066-0.042,0.13-0.084,0.194-0.131c0.128-0.09,0.248-0.183,0.366-0.283
										c0.671-0.553,1.194-1.223,1.629-1.908c1.135-1.784,1.281-4.402,2.756-4.583c0.055-0.007,0.116-0.01,0.175-0.01
										c0.06-0.002,0.122,0.003,0.186,0.008c1.943,0.189,1.322,3.002,2.122,5.114c0.797,2.115,2.316,4.238,6.53,4.648
										c0.188,0.019,0.372,0.031,0.547,0.041c0.15,0.006,0.297,0.011,0.439,0.008c0.367,0.006,0.714-0.015,1.036-0.052
										c0.112-0.014,0.222-0.027,0.329-0.043c0.107-0.017,0.215-0.038,0.317-0.057c0.067-0.011,0.134-0.027,0.201-0.042
										c0.451-0.106,0.852-0.245,1.216-0.414c0.145-0.068,0.281-0.138,0.418-0.213c0.265-0.148,0.504-0.31,0.74-0.494
										c0.723-0.571,1.204-1.23,1.548-1.771c0.856-1.348,1.391-3.876,1.906-5.172c0.138-0.345,0.287-0.579,0.432-0.739
										c0.328-0.36,1.075-0.972,1.222-1.82c0.147-0.847-0.379-1.639-0.938-1.766c-0.325-0.073-0.665-0.146-1.017-0.217
										c-3.277-0.66-7.598-1.193-10.292-0.742c-3.38,0.573-4.65,1.467-6.464,1.291c-1.694-0.18-2.65-1.299-5.6-2.513
										c-2.355-0.965-6.419-1.282-9.559-1.272c-0.336,0-0.662,0.006-0.974,0.014C228.585,83.055,227.913,83.771,227.857,84.625z
										 M249.016,88.349c0.207-0.226,0.567-0.447,1.03-0.64c0.058-0.028,0.117-0.052,0.18-0.075
										c0.033-0.014,0.066-0.026,0.098-0.038c0.155-0.059,0.318-0.116,0.489-0.167c0.142-0.045,0.292-0.088,0.448-0.129
										c0.45-0.121,0.943-0.222,1.45-0.299c0.188-0.028,0.379-0.055,0.572-0.076c0.486-0.057,0.975-0.088,1.462-0.094
										c0.117-0.002,0.231-0.004,0.338,0.003c3.172,0.02,5.03,0.885,5.655,1.554c0.647,0.695-0.079,3.414-0.577,4.784
										c-0.012,0.034-0.025,0.068-0.038,0.101c-0.012,0.034-0.026,0.07-0.038,0.106c-0.061,0.166-0.131,0.354-0.215,0.552
										c-0.048,0.11-0.098,0.224-0.152,0.341c-0.003,0.006-0.004,0.01-0.007,0.014c-0.084,0.184-0.181,0.372-0.293,0.565l0,0.003
										c-0.036,0.063-0.076,0.128-0.115,0.192c-0.021,0.037-0.046,0.075-0.073,0.115c-0.025,0.043-0.053,0.085-0.084,0.127
										c-0.035,0.053-0.072,0.107-0.11,0.16c-0.042,0.059-0.085,0.118-0.132,0.176c-0.047,0.062-0.097,0.123-0.153,0.186
										c-0.051,0.061-0.106,0.124-0.165,0.186c-0.931,1.002-2.377,1.792-4.665,1.594c-2.264-0.193-3.602-1.052-4.394-2.061
										l-0.003-0.001c-0.783-1.005-1.031-2.155-1.116-2.945C248.246,90.985,248.283,89.146,249.016,88.349z M230.77,85.351
										c0.195-0.143,0.473-0.282,0.832-0.396c0.022-0.008,0.042-0.014,0.064-0.02c0.111-0.036,0.229-0.068,0.357-0.098
										c0.068-0.015,0.143-0.033,0.216-0.045c0.057-0.011,0.12-0.024,0.179-0.032c0.041-0.009,0.082-0.014,0.12-0.019
										c0.016-0.004,0.033-0.006,0.046-0.007c0.057-0.009,0.116-0.016,0.176-0.023c0.23-0.029,0.477-0.046,0.738-0.052
										c0.128-0.005,0.261-0.007,0.397-0.003c0.077-0.001,0.157,0.002,0.239,0.004c0.061,0.001,0.122,0.004,0.183,0.008
										c0.162,0.009,0.33,0.02,0.501,0.037c0.061,0.005,0.121,0.011,0.184,0.018c0.055,0.006,0.113,0.012,0.17,0.019
										c0.446,0.054,0.923,0.136,1.428,0.25c2.194,0.494,4.39,1.672,4.874,2.594c0.485,0.922,0.089,2.722-0.425,4.251
										c-0.103,0.302-0.241,0.651-0.431,1.016c-0.011,0.024-0.027,0.051-0.041,0.079c-0.018,0.034-0.035,0.067-0.055,0.102
										c-0.013,0.023-0.024,0.045-0.038,0.068c-0.023,0.041-0.046,0.081-0.072,0.12c-0.051,0.085-0.102,0.165-0.157,0.247
										c-0.046,0.069-0.097,0.141-0.148,0.21c-0.019,0.025-0.038,0.051-0.057,0.074c-0.035,0.045-0.073,0.093-0.113,0.14
										c-0.031,0.039-0.065,0.079-0.102,0.12c-0.003,0.006-0.01,0.013-0.016,0.02c-0.94,1.065-2.469,1.924-4.947,1.628
										c-0.934-0.107-1.681-0.372-2.271-0.73c-2.07-1.257-2.3-3.674-2.407-4.793C230.06,88.701,230.02,85.901,230.77,85.351z"/>
									<g id="XMLID_00000177483082756829208970000014736156129921609133_">
										<path style="fill:#F28F8F;" d="M237.986,97.095l7.002,3.514l1.61-8.562c-0.184-1.389-0.353-2.603-1.525-2.783
											L237.986,97.095z"/>
									</g>
									<path style="fill:#B16668;" d="M249.994,103.594c-0.692,0.85-1.672,1.573-2.745,1.851c-1.233,0.32-2.502,0.297-3.761,0.172
										c-0.191-0.019-0.243-0.528-0.032-0.538c1.198-0.06,2.403-0.214,3.524-0.659c0.947-0.377,1.856-0.834,2.513-1.64
										C249.926,102.246,250.292,103.228,249.994,103.594z"/>
									<path style="fill:#455A64;" d="M263.157,86.734l10.768,5.923c-0.584,0.343-0.924,0.569-1.788,1.275l-9.392-4.919
										L263.157,86.734z"/>
								</g>
							</g>
						</g>
					</g>
				</g>
				<path style="fill:#F28F8F;" d="M245.025,117.484c6.644,0.128,15.387-1.636,18.012-5.778c-1.585,4.536-6.366,6.787-10.178,7.497
					c-4.602,0.857-7.936,0.775-7.936,0.775L245.025,117.484z"/>
			</g>
			<g id="Hand_00000022550361304741596360000014529864128259049644_">
				<path style="fill:#F28F8F;" d="M284.599,128.005c9.018,1.501,12.051,4.294,15.776,14.06c3.601,9.439,11.938,30.683,9.47,44.942
					c-1.507,8.704-23.466-13.156-23.466-13.156l-10.512-24.23C275.867,149.62,277.582,134.338,284.599,128.005z"/>
				<g>
					<g>
						<path style="fill:#FFA8A7;" d="M282.094,139.961c-1.931-2.731-3.932-5.529-4.942-9.602c-1.01-4.073-4.225-7.816-5.316-9.36
							c-1.092-1.543-3.452-3.809-5.25-5.974c-1.799-2.165-2.329-2.766-4.917-3.203c-3.554-0.601-6.344-1.162-7.736-0.737
							c-1.392,0.425-1.351,1.337-0.142,2.569c1.173,1.195,3.755,1.531,4.548,1.771c0.793,0.24,2.524,0.994,2.524,0.994l3.289,4.848
							c0,0-5.583,1.032-6.676,1.627c-1.093,0.595-2.029,3.427-1.549,4.987c0,0-2.047,1.387-1.245,3.403c0,0-1.251,1.631-0.395,2.968
							c0.857,1.337,2.641,3.103,3.323,3.69c0.682,0.586,3.369,0.734,3.369,0.734s2.294,3.467,4.209,4.886
							c1.915,1.42,3.17,1.329,5.269,4.297L282.094,139.961z"/>
						<path style="fill:#F28F8F;" d="M261.64,121.767c-1.319-0.569-1.612-1.464-2.861-0.991c-1.249,0.473-0.769,1.899-0.769,1.899
							L261.64,121.767z"/>
						<path style="fill:#B16668;" d="M255.965,128.005c0,0,1.025-0.93,2.714-1.753c0.914-0.445,2.82-1.118,2.82-1.118
							s-2.227,0.173-3.874,0.917c-1.583,0.716-1.81,0.902-1.825,0.915c0.004,0.33,0.042,0.642,0.126,0.914L255.965,128.005z"/>
						<path style="fill:#B16668;" d="M255.785,129.885c-0.531,0.221-0.968,0.458-1.282,0.645c0.018,0.239,0.109,0.637,0.214,0.899
							c0.73-1.038,3.508-2.185,3.508-2.185S256.903,129.42,255.785,129.885z"/>
						<path style="fill:#B16668;" d="M261.482,139.4c-0.589-1.182-1.917-3.467-2.727-4.389c-0.81-0.923-2.374-0.786-2.726-0.254
							c-0.352,0.532,1.459,0.463,1.987,0.696C258.544,135.685,260.558,137.934,261.482,139.4z"/>
						<path style="fill:#F28F8F;" d="M265.681,121.124c0,0-1.023-1.443-2.852-3.737c-1.829-2.294-1.717-1.961-3.493-2.313
							c-1.66-0.33-5.14-0.944-6.054-2.013c0.136,0.189,0.304,0.386,0.507,0.594c1.173,1.195,3.755,1.531,4.548,1.771
							c0.793,0.24,2.524,0.994,2.524,0.994l3.384,4.988L265.681,121.124z"/>
					</g>
					<path style="fill:#FFA8A7;" d="M282.094,139.961c5.969,7.198,22.048,24.508,25.769,31.397
						c2.573,4.764,3.216,15.842,0.595,19.867c-2.622,4.025-10.132,2.334-16.209-3.003c-5.245-4.606-9.616-15.688-13.424-23.575
						c-3.808-7.887-8.369-16.79-8.369-16.79L282.094,139.961z"/>
				</g>
				<path style="fill:#B16668;" d="M278.547,134.145c-0.476-1.031-0.874-2.098-1.169-3.193c-0.271-1.1-0.604-2.207-1.088-3.242
					c-0.951-2.084-2.266-3.97-3.636-5.785c-1.278-1.889-2.9-3.529-4.421-5.206c-0.772-0.837-1.494-1.705-2.226-2.582
					c-0.719-0.866-1.595-1.738-2.735-2.079c-1.113-0.356-2.247-0.469-3.363-0.685c-1.122-0.193-2.245-0.387-3.384-0.512
					c-0.57-0.057-1.145-0.103-1.729-0.071c-0.581,0.036-1.192,0.14-1.698,0.538c-0.26,0.193-0.417,0.565-0.368,0.896
					c0.038,0.331,0.194,0.605,0.357,0.853c0.339,0.479,0.749,0.923,1.267,1.229c1.015,0.614,2.158,0.875,3.264,1.13
					c1.075,0.211,2.097,0.703,3.13,1.123l3.137,4.599c-1.946,0.385-3.889,0.762-5.803,1.343c-0.246,0.085-0.499,0.166-0.741,0.313
					c-0.249,0.148-0.422,0.363-0.588,0.573c-0.313,0.436-0.535,0.918-0.708,1.414c-0.316,0.963-0.504,2.007-0.256,3.034
					c-0.514,0.399-0.942,0.894-1.203,1.495c-0.14,0.311-0.203,0.656-0.208,0.998c-0.015,0.324,0.073,0.636,0.173,0.938
					c-0.539,0.793-0.913,1.838-0.494,2.798c0.497,0.88,1.154,1.59,1.81,2.313c0.332,0.356,0.673,0.703,1.024,1.041
					c0.351,0.311,0.686,0.734,1.19,0.88c0.932,0.305,1.891,0.394,2.849,0.466c0.621,0.91,1.285,1.785,1.992,2.628
					c0.724,0.845,1.482,1.679,2.401,2.325c0.909,0.656,1.954,1.077,2.85,1.735c0.902,0.651,1.632,1.51,2.283,2.408
					c-0.639-0.907-1.357-1.778-2.255-2.446c-0.893-0.675-1.934-1.111-2.823-1.773c-0.897-0.649-1.639-1.488-2.348-2.338
					c-0.702-0.858-1.358-1.757-1.976-2.676l-0.025-0.037l-0.046-0.004c-0.956-0.074-1.935-0.171-2.834-0.472
					c-0.454-0.129-0.753-0.517-1.116-0.842c-0.346-0.336-0.683-0.684-1.011-1.038c-0.642-0.71-1.306-1.45-1.761-2.263
					c-0.38-0.854-0.014-1.869,0.514-2.613l0.037-0.053l-0.021-0.064c-0.097-0.295-0.187-0.599-0.17-0.91
					c0.007-0.308,0.063-0.618,0.193-0.903c0.247-0.571,0.685-1.072,1.183-1.439l0.075-0.055l-0.023-0.09
					c-0.252-0.954-0.066-2.007,0.253-2.953c0.346-0.932,0.832-1.924,1.869-2.116c1.956-0.584,3.992-0.963,6.008-1.351l0.237-0.046
					l-0.134-0.199l-3.278-4.855l-0.029-0.043l-0.045-0.018c-1.055-0.43-2.083-0.945-3.234-1.176
					c-1.101-0.247-2.218-0.505-3.164-1.072c-0.47-0.271-0.849-0.68-1.17-1.125c-0.317-0.433-0.473-1.003-0.054-1.312
					c0.85-0.629,2.09-0.491,3.183-0.406c1.124,0.118,2.245,0.306,3.367,0.493c1.117,0.209,2.263,0.322,3.324,0.658
					c1.08,0.319,1.897,1.122,2.625,1.986c0.729,0.866,1.468,1.744,2.243,2.577c1.541,1.683,3.144,3.285,4.433,5.169
					c1.377,1.805,2.689,3.674,3.644,5.732c0.495,1.024,0.835,2.098,1.123,3.204c0.311,1.098,0.725,2.166,1.216,3.195
					c0.974,2.067,2.299,3.933,3.625,5.778C280.791,138.099,279.491,136.216,278.547,134.145z"/>
			</g>
		</g>
	</g>
</g>
<g id="Speech_bubbles">
	<g id="Thought_Bubble_00000110454060552307810450000011488647503759426470_">
		<path style="fill:#BA68C8;" d="M150.006,41.555c1.811-5.404,8.3-7.579,12.729-5.726c2.023,0.847,4.744,2.902,4.713,6.069
			c6.699-8.091,25.131-0.446,19.697,11.268c9.217-1.173,15.765,14.581,4.373,18.693c10.581,5.1,5.927,23.015-7.514,20.486
			c1.602,3.898-1.189,7.314-4.281,8.622c-3.509,1.485-8.235,1.053-9.585-1.306c-2.754,9.88-16.08,11.702-22.146,3.434
			c-4.026,5.073-13.851,4.893-14.493-2.562c-6.656,6.166-22.671-0.105-18.618-10.792c-10.596,1.657-13.622-12.856-5.379-15.776
			c-4.562-1.355-8.138-6.362-6.501-12.162c1.057-3.742,5.57-9.67,11.191-7.716c-2.34-7.099,6.732-12.673,12.008-7.383
			C126.457,35.475,144.216,30.793,150.006,41.555z"/>
		<path style="opacity:0.8;fill:#FFFFFF;" d="M150.006,41.555c1.811-5.404,8.3-7.579,12.729-5.726
			c2.023,0.847,4.744,2.902,4.713,6.069c6.699-8.091,25.131-0.446,19.697,11.268c9.217-1.173,15.765,14.581,4.373,18.693
			c10.581,5.1,5.927,23.015-7.514,20.486c1.602,3.898-1.189,7.314-4.281,8.622c-3.509,1.485-8.235,1.053-9.585-1.306
			c-2.754,9.88-16.08,11.702-22.146,3.434c-4.026,5.073-13.851,4.893-14.493-2.562c-6.656,6.166-22.671-0.105-18.618-10.792
			c-10.596,1.657-13.622-12.856-5.379-15.776c-4.562-1.355-8.138-6.362-6.501-12.162c1.057-3.742,5.57-9.67,11.191-7.716
			c-2.34-7.099,6.732-12.673,12.008-7.383C126.457,35.475,144.216,30.793,150.006,41.555z"/>
		<path style="fill:#BA68C8;" d="M184.44,104.001c1.382-1.175,4.34-1.204,5.64-0.071c0.861-4.759,6.697-3.978,8.276-0.013
			c5.664-2.533,9.004,5.698,3.169,7.718c2.46,4.243-2.182,9.542-6.712,7.664c-1.914,3.806-7.959,4.794-9.012-0.054
			c-7.256,2.963-9.529-6.467-2.873-9.313C181.919,107.922,182.615,105.281,184.44,104.001z"/>
		<path style="fill:#BA68C8;" d="M208.928,115.37c0.048,0.016,0.096,0.035,0.143,0.054c0.165-0.795,0.791-1.47,1.596-1.629
			c0.842-0.167,1.834,0.46,1.819,1.318c0.624-0.346,1.373-0.164,1.948,0.192c0.605,0.375,0.744,1.071,0.515,1.743
			c-0.172,0.507-0.575,0.93-1.072,1.127c0.169,0.818-0.072,1.71-0.629,2.331c-0.558,0.621-1.419,0.957-2.25,0.877
			c-0.223,1.036-1.382,1.51-2.301,1.038c-0.461-0.237-0.793-0.711-0.857-1.225c-0.534,0.304-1.268,0.043-1.604-0.471
			c-0.24-0.368-0.3-0.823-0.238-1.252c0.016-0.113,0.098-0.66,0.604-1.054c-0.679-0.62-0.674-1.799-0.064-2.487
			C207.113,115.281,208.105,115.089,208.928,115.37z"/>
		<path style="fill:#BA68C8;" d="M221.874,113.637c0.231,0.16,0.416,0.393,0.499,0.653c0.29-0.285,0.793-0.405,1.101-0.14
			c0.181,0.155,0.254,0.411,0.227,0.648c-0.027,0.237-0.144,0.455-0.292,0.643c-0.032,0.04-0.066,0.082-0.074,0.133
			c-0.01,0.065,0.026,0.127,0.055,0.186c0.183,0.37,0.11,0.851-0.175,1.15c-0.285,0.299-0.761,0.396-1.14,0.231
			c-0.092,0.273-0.264,0.518-0.489,0.698c-0.37,0.297-0.744,0.27-1.134,0.055c-0.382-0.21-0.472-0.856-0.13-1.134
			c-0.315,0.059-0.653-0.106-0.819-0.38c-0.166-0.274-0.161-0.636-0.007-0.917c0.154-0.281,0.445-0.476,0.759-0.536
			c-0.198-0.512-0.035-1.026,0.408-1.344C221.042,113.313,221.514,113.388,221.874,113.637z"/>
		<path style="opacity:0.8;fill:#FFFFFF;" d="M184.44,104.001c1.382-1.175,4.34-1.204,5.64-0.071
			c0.861-4.759,6.697-3.978,8.276-0.013c5.664-2.533,9.004,5.698,3.169,7.718c2.46,4.243-2.182,9.542-6.712,7.664
			c-1.914,3.806-7.959,4.794-9.012-0.054c-7.256,2.963-9.529-6.467-2.873-9.313C181.919,107.922,182.615,105.281,184.44,104.001z"/>
		<path style="opacity:0.8;fill:#FFFFFF;" d="M208.928,115.37c0.048,0.016,0.096,0.035,0.143,0.054
			c0.165-0.795,0.791-1.47,1.596-1.629c0.842-0.167,1.834,0.46,1.819,1.318c0.624-0.346,1.373-0.164,1.948,0.192
			c0.605,0.375,0.744,1.071,0.515,1.743c-0.172,0.507-0.575,0.93-1.072,1.127c0.169,0.818-0.072,1.71-0.629,2.331
			c-0.558,0.621-1.419,0.957-2.25,0.877c-0.223,1.036-1.382,1.51-2.301,1.038c-0.461-0.237-0.793-0.711-0.857-1.225
			c-0.534,0.304-1.268,0.043-1.604-0.471c-0.24-0.368-0.3-0.823-0.238-1.252c0.016-0.113,0.098-0.66,0.604-1.054
			c-0.679-0.62-0.674-1.799-0.064-2.487C207.113,115.281,208.105,115.089,208.928,115.37z"/>
		<path style="opacity:0.8;fill:#FFFFFF;" d="M221.874,113.637c0.231,0.16,0.416,0.393,0.499,0.653
			c0.29-0.285,0.793-0.405,1.101-0.14c0.181,0.155,0.254,0.411,0.227,0.648c-0.027,0.237-0.144,0.455-0.292,0.643
			c-0.032,0.04-0.066,0.082-0.074,0.133c-0.01,0.065,0.026,0.127,0.055,0.186c0.183,0.37,0.11,0.851-0.175,1.15
			c-0.285,0.299-0.761,0.396-1.14,0.231c-0.092,0.273-0.264,0.518-0.489,0.698c-0.37,0.297-0.744,0.27-1.134,0.055
			c-0.382-0.21-0.472-0.856-0.13-1.134c-0.315,0.059-0.653-0.106-0.819-0.38c-0.166-0.274-0.161-0.636-0.007-0.917
			c0.154-0.281,0.445-0.476,0.759-0.536c-0.198-0.512-0.035-1.026,0.408-1.344C221.042,113.313,221.514,113.388,221.874,113.637z"/>
	</g>
	<g id="Thought_Bubble_00000170966841642898408630000013709504133662422411_">
		<path style="fill:#BA68C8;" d="M366.48,319.082c-2.029,5.326-8.601,7.236-12.951,5.204c-1.987-0.928-4.622-3.092-4.463-6.255
			c-7.022,7.813-25.128-0.575-19.223-12.059c-9.257,0.798-15.16-15.209-3.61-18.855c-10.365-5.526-4.988-23.236,8.34-20.164
			c-1.442-3.96,1.485-7.26,4.628-8.441c3.567-1.341,8.271-0.717,9.524,1.694c3.153-9.76,16.542-11.039,22.267-2.532
			c4.229-4.906,14.039-4.326,14.377,3.149c6.901-5.89,22.648,1.026,18.164,11.54c10.655-1.225,13.089,13.398,4.734,15.982
			c4.503,1.539,7.873,6.688,6.001,12.416c-1.208,3.696-5.959,9.435-11.495,7.255c2.05,7.189-7.241,12.389-12.298,6.889
			C389.763,326.114,371.828,330.071,366.48,319.082z"/>
		<path style="opacity:0.8;fill:#FFFFFF;" d="M366.48,319.082c-2.029,5.326-8.601,7.236-12.951,5.204
			c-1.987-0.928-4.622-3.092-4.463-6.255c-7.022,7.813-25.128-0.575-19.223-12.059c-9.257,0.798-15.16-15.209-3.61-18.855
			c-10.365-5.526-4.988-23.236,8.34-20.164c-1.442-3.96,1.485-7.26,4.628-8.441c3.567-1.341,8.271-0.717,9.524,1.694
			c3.153-9.76,16.542-11.039,22.267-2.532c4.229-4.906,14.039-4.326,14.377,3.149c6.901-5.89,22.648,1.026,18.164,11.54
			c10.655-1.225,13.089,13.398,4.734,15.982c4.503,1.539,7.873,6.688,6.001,12.416c-1.208,3.696-5.959,9.435-11.495,7.255
			c2.05,7.189-7.241,12.389-12.298,6.889C389.763,326.114,371.828,330.071,366.48,319.082z"/>
		<path style="fill:#BA68C8;" d="M335.535,252.025c-1.672,0.704-4.501-0.16-5.399-1.632c-2.255,4.278-7.584,1.775-7.895-2.482
			c-6.165,0.708-6.868-8.147-0.696-8.315c-1.067-4.787,4.956-8.44,8.709-5.285c2.972-3.053,9.034-2.172,8.577,2.768
			c7.812-0.638,7.137,9.038-0.067,9.746C339.12,249.046,337.66,251.354,335.535,252.025z"/>
		<path style="fill:#BA68C8;" d="M315.611,233.805c-0.041-0.03-0.081-0.062-0.12-0.095c-0.397,0.708-1.197,1.163-2.013,1.072
			c-0.853-0.095-1.61-0.991-1.337-1.805c-0.699,0.142-1.359-0.258-1.799-0.771c-0.464-0.54-0.386-1.246,0.034-1.818
			c0.317-0.431,0.828-0.713,1.362-0.751c0.085-0.831,0.583-1.609,1.303-2.033c0.719-0.424,1.641-0.485,2.41-0.158
			c0.525-0.92,1.772-1.023,2.507-0.296c0.368,0.365,0.542,0.916,0.448,1.426c0.6-0.129,1.222,0.342,1.387,0.933
			c0.118,0.423,0.038,0.875-0.15,1.266c-0.049,0.102-0.292,0.6-0.894,0.823c0.461,0.796,0.1,1.918-0.688,2.391
			C317.315,234.436,316.311,234.32,315.611,233.805z"/>
		<path style="fill:#BA68C8;" d="M302.745,231.555c-0.172-0.222-0.278-0.5-0.279-0.773c-0.362,0.184-0.878,0.147-1.092-0.199
			c-0.125-0.202-0.119-0.469-0.021-0.686c0.097-0.217,0.275-0.391,0.471-0.525c0.043-0.029,0.088-0.059,0.111-0.105
			c0.029-0.059,0.013-0.129,0.003-0.194c-0.063-0.408,0.152-0.845,0.513-1.044c0.362-0.199,0.845-0.148,1.157,0.123
			c0.17-0.232,0.408-0.414,0.676-0.519c0.442-0.172,0.79-0.033,1.098,0.289c0.302,0.315,0.193,0.958-0.218,1.121
			c0.318,0.039,0.59,0.298,0.666,0.609c0.076,0.311-0.039,0.655-0.27,0.876c-0.231,0.221-0.568,0.32-0.885,0.282
			c0.034,0.548-0.276,0.989-0.794,1.159C303.441,232.115,303.013,231.901,302.745,231.555z"/>
		<path style="opacity:0.8;fill:#FFFFFF;" d="M335.535,252.025c-1.672,0.704-4.501-0.16-5.399-1.632
			c-2.255,4.278-7.584,1.775-7.895-2.482c-6.165,0.708-6.868-8.147-0.696-8.315c-1.067-4.787,4.956-8.44,8.709-5.285
			c2.972-3.053,9.034-2.172,8.577,2.768c7.812-0.638,7.137,9.038-0.067,9.746C339.12,249.046,337.66,251.354,335.535,252.025z"/>
		<path style="opacity:0.8;fill:#FFFFFF;" d="M315.611,233.805c-0.041-0.03-0.081-0.062-0.12-0.095
			c-0.397,0.708-1.197,1.163-2.013,1.072c-0.853-0.095-1.61-0.991-1.337-1.805c-0.699,0.142-1.359-0.258-1.799-0.771
			c-0.464-0.54-0.386-1.246,0.034-1.818c0.317-0.431,0.828-0.713,1.362-0.751c0.085-0.831,0.583-1.609,1.303-2.033
			c0.719-0.424,1.641-0.485,2.41-0.158c0.525-0.92,1.772-1.023,2.507-0.296c0.368,0.365,0.542,0.916,0.448,1.426
			c0.6-0.129,1.222,0.342,1.387,0.933c0.118,0.423,0.038,0.875-0.15,1.266c-0.049,0.102-0.292,0.6-0.894,0.823
			c0.461,0.796,0.1,1.918-0.688,2.391C317.315,234.436,316.311,234.32,315.611,233.805z"/>
		<path style="opacity:0.8;fill:#FFFFFF;" d="M302.745,231.555c-0.172-0.222-0.278-0.5-0.279-0.773
			c-0.362,0.184-0.878,0.147-1.092-0.199c-0.125-0.202-0.119-0.469-0.021-0.686c0.097-0.217,0.275-0.391,0.471-0.525
			c0.043-0.029,0.088-0.059,0.111-0.105c0.029-0.059,0.013-0.129,0.003-0.194c-0.063-0.408,0.152-0.845,0.513-1.044
			c0.362-0.199,0.845-0.148,1.157,0.123c0.17-0.232,0.408-0.414,0.676-0.519c0.442-0.172,0.79-0.033,1.098,0.289
			c0.302,0.315,0.193,0.958-0.218,1.121c0.318,0.039,0.59,0.298,0.666,0.609c0.076,0.311-0.039,0.655-0.27,0.876
			c-0.231,0.221-0.568,0.32-0.885,0.282c0.034,0.548-0.276,0.989-0.794,1.159C303.441,232.115,303.013,231.901,302.745,231.555z"/>
	</g>
	<g id="Thought_Bubble_00000088854670863804699160000005077269533590933126_">
		<path style="fill:#BA68C8;" d="M361.696,137.811c-1.164,5.579-7.352,8.501-11.968,7.181c-2.109-0.603-5.052-2.325-5.393-5.473
			c-5.703,8.822-24.904,3.394-20.884-8.877c-9.016,2.248-17.368-12.629-6.538-18.05c-11.106-3.823-8.589-22.16,5.056-21.227
			c-2.049-3.683,0.322-7.403,3.239-9.065c3.311-1.887,8.054-2.013,9.672,0.171c1.575-10.135,14.594-13.509,21.59-6.011
			c3.403-5.511,13.181-6.485,14.694,0.843c5.886-6.905,22.526-2.558,19.756,8.531c10.328-2.89,15.037,11.167,7.195,15.035
			c4.689,0.81,8.829,5.363,7.884,11.314c-0.61,3.84-4.397,10.257-10.208,8.977c3.157,6.776-5.197,13.376-11.058,8.742
			C385.796,141.084,368.709,147.82,361.696,137.811z"/>
		<path style="opacity:0.8;fill:#FFFFFF;" d="M361.696,137.811c-1.164,5.579-7.352,8.501-11.968,7.181
			c-2.109-0.603-5.052-2.325-5.393-5.473c-5.703,8.822-24.904,3.394-20.884-8.877c-9.016,2.248-17.368-12.629-6.538-18.05
			c-11.106-3.823-8.589-22.16,5.056-21.227c-2.049-3.683,0.322-7.403,3.239-9.065c3.311-1.887,8.054-2.013,9.672,0.171
			c1.575-10.135,14.594-13.509,21.59-6.011c3.403-5.511,13.181-6.485,14.694,0.843c5.886-6.905,22.526-2.558,19.756,8.531
			c10.328-2.89,15.037,11.167,7.195,15.035c4.689,0.81,8.829,5.363,7.884,11.314c-0.61,3.84-4.397,10.257-10.208,8.977
			c3.157,6.776-5.197,13.376-11.058,8.742C385.796,141.084,368.709,147.82,361.696,137.811z"/>
		<path style="fill:#BA68C8;" d="M327.685,76.158c-1.569,0.91-4.485,0.411-5.562-0.935c-1.695,4.529-7.298,2.722-8.145-1.462
			c-6.025,1.483-7.845-7.211-1.744-8.16c-1.664-4.614,3.847-9,7.969-6.345c2.562-3.405,8.686-3.299,8.858,1.659
			c7.668-1.623,8.224,8.061,1.168,9.676C330.864,72.748,329.708,75.223,327.685,76.158z"/>
		<path style="fill:#BA68C8;" d="M301.947,64.346c-0.043-0.027-0.086-0.056-0.127-0.086c-0.343,0.736-1.107,1.249-1.927,1.22
			c-0.858-0.031-1.679-0.868-1.469-1.7c-0.687,0.194-1.374-0.156-1.852-0.634c-0.503-0.504-0.478-1.213-0.102-1.815
			c0.284-0.454,0.773-0.773,1.302-0.851c0.023-0.835,0.462-1.648,1.147-2.125c0.685-0.477,1.601-0.606,2.391-0.337
			c0.455-0.957,1.691-1.153,2.478-0.482c0.395,0.336,0.608,0.873,0.553,1.389c0.589-0.173,1.244,0.249,1.453,0.827
			c0.15,0.413,0.103,0.87-0.055,1.273c-0.042,0.106-0.246,0.62-0.83,0.888c0.519,0.759,0.243,1.906-0.508,2.436
			C303.693,64.848,302.684,64.807,301.947,64.346z"/>
		<path style="fill:#BA68C8;" d="M288.702,65.063c-0.145-0.241-0.219-0.529-0.188-0.8c-0.381,0.141-0.889,0.044-1.061-0.324
			c-0.101-0.216-0.064-0.479,0.058-0.684c0.122-0.205,0.318-0.356,0.529-0.467c0.046-0.024,0.094-0.048,0.122-0.091
			c0.036-0.055,0.028-0.126,0.026-0.192c-0.015-0.413,0.249-0.821,0.631-0.977c0.382-0.156,0.857-0.049,1.135,0.256
			c0.196-0.211,0.453-0.364,0.732-0.437c0.459-0.119,0.789,0.059,1.057,0.414c0.263,0.348,0.08,0.974-0.346,1.088
			c0.311,0.075,0.552,0.365,0.591,0.682c0.039,0.318-0.114,0.646-0.37,0.839c-0.255,0.193-0.601,0.252-0.912,0.178
			c-0.029,0.548-0.388,0.951-0.923,1.059C289.328,65.7,288.928,65.438,288.702,65.063z"/>
		<path style="opacity:0.8;fill:#FFFFFF;" d="M327.685,76.158c-1.569,0.91-4.485,0.411-5.562-0.935
			c-1.695,4.529-7.298,2.722-8.145-1.462c-6.025,1.483-7.845-7.211-1.744-8.16c-1.664-4.614,3.847-9,7.969-6.345
			c2.562-3.405,8.686-3.299,8.858,1.659c7.668-1.623,8.224,8.061,1.168,9.676C330.864,72.748,329.708,75.223,327.685,76.158z"/>
		<path style="opacity:0.8;fill:#FFFFFF;" d="M301.947,64.346c-0.043-0.027-0.086-0.056-0.127-0.086
			c-0.343,0.736-1.107,1.249-1.927,1.22c-0.858-0.031-1.679-0.868-1.469-1.7c-0.687,0.194-1.374-0.156-1.852-0.634
			c-0.503-0.504-0.478-1.213-0.102-1.815c0.284-0.454,0.773-0.773,1.302-0.851c0.023-0.835,0.462-1.648,1.147-2.125
			c0.685-0.477,1.601-0.606,2.391-0.337c0.455-0.957,1.691-1.153,2.478-0.482c0.395,0.336,0.608,0.873,0.553,1.389
			c0.589-0.173,1.244,0.249,1.453,0.827c0.15,0.413,0.103,0.87-0.055,1.273c-0.042,0.106-0.246,0.62-0.83,0.888
			c0.519,0.759,0.243,1.906-0.508,2.436C303.693,64.848,302.684,64.807,301.947,64.346z"/>
		<path style="opacity:0.8;fill:#FFFFFF;" d="M288.702,65.063c-0.145-0.241-0.219-0.529-0.188-0.8
			c-0.381,0.141-0.889,0.044-1.061-0.324c-0.101-0.216-0.064-0.479,0.058-0.684c0.122-0.205,0.318-0.356,0.529-0.467
			c0.046-0.024,0.094-0.048,0.122-0.091c0.036-0.055,0.028-0.126,0.026-0.192c-0.015-0.413,0.249-0.821,0.631-0.977
			c0.382-0.156,0.857-0.049,1.135,0.256c0.196-0.211,0.453-0.364,0.732-0.437c0.459-0.119,0.789,0.059,1.057,0.414
			c0.263,0.348,0.08,0.974-0.346,1.088c0.311,0.075,0.552,0.365,0.591,0.682c0.039,0.318-0.114,0.646-0.37,0.839
			c-0.255,0.193-0.601,0.252-0.912,0.178c-0.029,0.548-0.388,0.951-0.923,1.059C289.328,65.7,288.928,65.438,288.702,65.063z"/>
	</g>
	<g id="Thought_Bubble_00000068636700524307357950000007127002615708617363_">
		<path style="fill:#BA68C8;" d="M140.608,287.958c2.648,5.047,9.4,6.161,13.478,3.626c1.863-1.158,4.222-3.62,3.687-6.742
			c7.902,6.922,24.881-3.56,17.652-14.26c9.287-0.309,13.243-16.905,1.342-19.151c9.634-6.72,2.188-23.665-10.679-19.029
			c0.961-4.104-2.338-7.031-5.599-7.831c-3.701-0.907-8.298,0.271-9.255,2.815c-4.292-9.316-17.737-8.993-22.411,0.135
			c-4.783-4.368-14.453-2.625-13.901,4.837c-7.552-5.027-22.365,3.712-16.663,13.618c-10.725,0.051-11.402,14.86-2.799,16.431
			c-4.288,2.064-7.022,7.577-4.482,13.041c1.639,3.526,7.039,8.66,12.277,5.836c-1.18,7.382,8.664,11.44,13.03,5.377
			C118.328,297.709,136.606,299.505,140.608,287.958z"/>
		<path style="opacity:0.8;fill:#FFFFFF;" d="M140.608,287.958c2.648,5.047,9.4,6.161,13.478,3.626
			c1.863-1.158,4.222-3.62,3.687-6.742c7.902,6.922,24.881-3.56,17.652-14.26c9.287-0.309,13.243-16.905,1.342-19.151
			c9.634-6.72,2.188-23.665-10.679-19.029c0.961-4.104-2.338-7.031-5.599-7.831c-3.701-0.907-8.298,0.271-9.255,2.815
			c-4.292-9.316-17.737-8.993-22.411,0.135c-4.783-4.368-14.453-2.625-13.901,4.837c-7.552-5.027-22.365,3.712-16.663,13.618
			c-10.725,0.051-11.402,14.86-2.799,16.431c-4.288,2.064-7.022,7.577-4.482,13.041c1.639,3.526,7.039,8.66,12.277,5.836
			c-1.18,7.382,8.664,11.44,13.03,5.377C118.328,297.709,136.606,299.505,140.608,287.958z"/>
		<path style="fill:#BA68C8;" d="M156.424,219.344c1.758,0.446,4.426-0.833,5.093-2.423c2.871,3.891,7.765,0.618,7.433-3.638
			c6.201-0.224,5.569-9.085-0.559-8.325c0.337-4.893-6.166-7.601-9.403-3.919c-3.397-2.572-9.258-0.793-8.064,4.023
			c-7.819,0.54-5.701,10.006,1.528,9.626C152.433,216.937,154.222,219,156.424,219.344z"/>
		<path style="fill:#BA68C8;" d="M177.94,200.932c0.034-0.038,0.067-0.077,0.098-0.117c0.531,0.613,1.407,0.898,2.188,0.645
			c0.817-0.265,1.377-1.295,0.946-2.038c0.714-0.002,1.279-0.526,1.607-1.117c0.346-0.622,0.127-1.298-0.399-1.774
			c-0.397-0.359-0.955-0.532-1.486-0.462c-0.251-0.797-0.896-1.458-1.686-1.729c-0.79-0.271-1.705-0.144-2.392,0.331
			c-0.7-0.796-1.942-0.645-2.515,0.215c-0.287,0.432-0.346,1.007-0.151,1.487c-0.614-0.005-1.128,0.581-1.171,1.193
			c-0.031,0.438,0.14,0.865,0.402,1.209c0.069,0.09,0.407,0.529,1.041,0.626c-0.291,0.872,0.288,1.899,1.156,2.203
			C176.398,201.894,177.358,201.578,177.94,200.932z"/>
		<path style="fill:#BA68C8;" d="M190.875,197.993c0.074-0.271,0.065-0.568-0.038-0.821c0.405,0.031,0.867-0.201,0.932-0.602
			c0.038-0.235-0.07-0.478-0.243-0.642c-0.173-0.164-0.403-0.255-0.637-0.304c-0.05-0.01-0.104-0.02-0.142-0.054
			c-0.049-0.043-0.062-0.114-0.077-0.178c-0.098-0.401-0.464-0.722-0.875-0.767s-0.837,0.188-1.021,0.557
			c-0.246-0.149-0.536-0.226-0.824-0.219c-0.474,0.011-0.743,0.273-0.904,0.688c-0.158,0.407,0.19,0.959,0.631,0.952
			c-0.279,0.158-0.431,0.502-0.381,0.818c0.049,0.316,0.287,0.59,0.585,0.706c0.298,0.115,0.647,0.078,0.926-0.079
			c0.179,0.519,0.634,0.808,1.178,0.765C190.447,198.777,190.76,198.415,190.875,197.993z"/>
		<path style="opacity:0.8;fill:#FFFFFF;" d="M156.424,219.344c1.758,0.446,4.426-0.833,5.093-2.423
			c2.871,3.891,7.765,0.618,7.433-3.638c6.201-0.224,5.569-9.085-0.559-8.325c0.337-4.893-6.166-7.601-9.403-3.919
			c-3.397-2.572-9.258-0.793-8.064,4.023c-7.819,0.54-5.701,10.006,1.528,9.626C152.433,216.937,154.222,219,156.424,219.344z"/>
		<path style="opacity:0.8;fill:#FFFFFF;" d="M177.94,200.932c0.034-0.038,0.067-0.077,0.098-0.117
			c0.531,0.613,1.407,0.898,2.188,0.645c0.817-0.265,1.377-1.295,0.946-2.038c0.714-0.002,1.279-0.526,1.607-1.117
			c0.346-0.622,0.127-1.298-0.399-1.774c-0.397-0.359-0.955-0.532-1.486-0.462c-0.251-0.797-0.896-1.458-1.686-1.729
			c-0.79-0.271-1.705-0.144-2.392,0.331c-0.7-0.796-1.942-0.645-2.515,0.215c-0.287,0.432-0.346,1.007-0.151,1.487
			c-0.614-0.005-1.128,0.581-1.171,1.193c-0.031,0.438,0.14,0.865,0.402,1.209c0.069,0.09,0.407,0.529,1.041,0.626
			c-0.291,0.872,0.288,1.899,1.156,2.203C176.398,201.894,177.358,201.578,177.94,200.932z"/>
		<path style="opacity:0.8;fill:#FFFFFF;" d="M190.875,197.993c0.074-0.271,0.065-0.568-0.038-0.821
			c0.405,0.031,0.867-0.201,0.932-0.602c0.038-0.235-0.07-0.478-0.243-0.642c-0.173-0.164-0.403-0.255-0.637-0.304
			c-0.05-0.01-0.104-0.02-0.142-0.054c-0.049-0.043-0.062-0.114-0.077-0.178c-0.098-0.401-0.464-0.722-0.875-0.767
			s-0.837,0.188-1.021,0.557c-0.246-0.149-0.536-0.226-0.824-0.219c-0.474,0.011-0.743,0.273-0.904,0.688
			c-0.158,0.407,0.19,0.959,0.631,0.952c-0.279,0.158-0.431,0.502-0.381,0.818c0.049,0.316,0.287,0.59,0.585,0.706
			c0.298,0.115,0.647,0.078,0.926-0.079c0.179,0.519,0.634,0.808,1.178,0.765C190.447,198.777,190.76,198.415,190.875,197.993z"/>
	</g>
</g>
</svg>
