<svg xmlns="http://www.w3.org/2000/svg" xml:space="preserve" id="support" x="0" y="0" style="enable-background:new 0 0 1600 1200" version="1.1" viewBox="0 0 1600 1200">
  <path d="M719.3 54c-4.6 1.5-12.3 4.7-18.7 12.1-3.4 3.9-8.6 10-7.8 17.9.1 1 .8 7.9 5.8 11.3 3.9 2.6 7.1.9 8.6 3.1 2 3.1-3.7 7.3-5.8 16.4-.5 2-2.7 11.2 2.3 19.1 1.4 2.3 4.2 6.6 9 7.8 1.8.5 2.9.2 3.9 1.2 2.3 2.3-.1 8-1.2 11.3-1.7 5.5-.6 11.7 1.6 24.2.8 4.3 2 9.2 17.9 45.2 3.4 7.7 3.8 8.5 4.7 9.7 10.8 15.7 34.6 21.8 39.4 16 4-5-7.1-17-15.2-32.7-25.8-50-23.5-115.5-7.8-121.2 14.5-5.3 57.1 34 65.1 69.4 1.2 5.4 4.3 22.7 17.9 31.6 3.5 2.3 8.2 5.3 12.1 3.9 13.7-5 7.3-61.1-5.1-103.3-4.1-14-19.4-66.1-40.9-66.7-4.7-.1-5.1 2.3-19.9 6.6-13.2 3.9-19.6 3.9-31.2 6.2-8.3 1.7-20.3 4.8-34.7 10.9z" style="fill:#fff"></path>
  <path d="M734.9 243.5v-2.3c.1 0-2.3 13.4 4.3 19.5 1.9 1.7 5 3.4 6.6 2.3 2.1-1.4.3-6.6-1.6-19.5-.6-4-1-7.3-1.2-9.4M787.5 250.9c6.2-2.9 9.7-2 11.3-1.2 3.4 1.6 4.8 5.3 9 27.7 2.2 11.8 2.4 14.1 1.6 14.4-1.2.5-4.3-2.4-13.3-17.9" style="fill:#fff"></path>
  <path d="M139.4 467.1c-6.8 16.5-9.2 30.9-10.2 40.7-3.9 40.4 11.1 71.1 16.3 81.5 4.9 9.8 8.4 16.7 15.3 24.4 30.8 34.6 82.2 31.9 94.4 31.2 5.8-.3 46.9-3.1 82.8-32.2 3.9-3.2 7-6.1 9.2-8.1 12.7 5.4 32.3 13.8 56 24.4 118.4 53 177.8 88.5 245.4 121.2 84.4 40.8 59.7 18.3 215.9 83.5 135.4 56.5 222.6 102 369.7 132.4 6.5 1.3 11.8 2.4 15.3 3.1 45.5-28.9 91-57.7 136.5-86.6-1.7-16.6-3.4-33.3-5.1-49.9-139.7-47.6-278.9-96.5-417.6-146.7-175.2-63.4-349.7-128.9-523.5-196.6 5.3-5.4 12-13.9 14.3-25.5 7-36.2-34.1-66.9-38.7-70.3-17.9-12.9-35-16.3-57-20.4-19.4-3.6-50.1-6.9-88.6-1-4.1 2.5-8.9 6.4-10.2 12.2-1.3 5.9 2.2 8.9 7.1 21.4 3 7.6 6.8 17 7.1 28.5.4 11.8-3.1 19.4 1 22.4 2.4 1.7 4.6-.1 10.2 2 1.9.7 7 2.6 8.1 6.1 1.3 4.2-3.7 9.6-9.2 14.3-13.6 11.5-28.9 24.4-53 26.5-29.8 2.5-54-13.2-77.4-28.5-6-3.9-10.8-7.5-14.1-10zM801.8 32c3.6 2.6 8.5 6.7 13.5 12.5 13.4 15.6 17.4 32.4 19.8 42.9 4.5 19.9 8.4 37.2 4.3 52.5-.5 1.9-1.8 6.4.3 8.6 3.2 3.1 13 .2 17.9-5.7 4.5-5.5 3.7-12.7 2.4-22-3.6-26.4-5.4-39.7-10.6-55.5-6.3-19.3-9.8-29-17.9-33.4-11-6.1-24.1-2.1-29.7.1z" style="fill:#ff4f03"></path>
  <path d="M869.1 146c2.7.4 13.6 2.4 16.3 9.8 1.5 4.1-.5 7.3-5.7 17.9-11.5 23.4-12.6 29.7-18.8 31-2.2.4-6 .5-11.4-3.3l2.4-37.5c.8-6.3 1.6-12.5 2.4-18.8M575.6 982.5c.8.3 2 .9 3.1 1.8 11.7 10.6-7.9 49.8-16.6 67.2-12.8 25.5-13.5 16.4-24.6 38.2-2.5 4.8-6.7 13.6-14.8 15.4-.8.2-5.4 1.2-9.2-1.2-5.5-3.6-5.4-11.9-4.9-26.5.4-12.2.9-25.2 6.8-27.1 1.4-.5 4.3-.7 6.8.6 2.7 1.4 2.9 3.7 4.9 4.3 2.9.8 6.2-2.5 7.4-3.7 13.6-14 18.5-26.5 18.5-26.5 3.9-10.4 10.6-24.7 22.6-42.5zM770.2 1099.6c-3.3 5.9-5.7 11-7.4 14.8-4.1 9.2-4.2 11.6-3.1 12.9 1.7 2.1 6.2 1 8 .6 14.7-3.6 28.8-20.2 40-32.7 22.6-25.1 28.4-27.5 29-37.6.5-8.9-3.3-19.2-5.5-25.3-1.9-5-5.4-17-8-16.6-2.1.3-1.2 8.4-3.1 17.9-2.8 14.2-10.2 23.3-22.2 38.2-6 7.6-15.1 17.6-27.7 27.8z" style="fill:#ff4f03"></path>
  <path d="M695.6 691.7c0-3 .4-7.1 2.6-11.1 3.2-5.8 8.6-8.5 10.2-9.4 13.8-7.3 21.9-23.4 64.6-58.7 7.9-6.6 16.2-13.1 28.1-19.6 23.5-12.8 31.8-9.5 34-8.5 5 2.3 3.3 5.5 11.1 13.6 5.5 5.8 7.4 5.5 21.2 15.5 13 9.4 12.6 10.6 17.9 12.6 10.4 3.9 20.2 2.4 24.7-.9 3.3-2.4 3.4-4.6 6.8-11.1 8.1-15.3 19.9-24.5 25.5-28.9 3.4-2.7 8.3-6.3 14.8-9.7 8.9 9.5 13.7 18.7 16.4 24.8 7.7 17.8 7.1 33.8 6.7 46-.5 13.5-3 23-3.6 25.4-1.4 5.2-3.9 14.1-10 24.1-4.1 6.7-8.3 11.4-12 15.3-16.2 16.9-36.8 31.2-65.9 49-24.8 15.2-35.5 22-42.4 17.6-4.1-2.6-3.4-7-6.9-14.8-1.4-3.1-6.4-12-30.6-28.1-7.5-5-24.4-15.5-48.5-23.8-12.4-4.3-16.2-4.4-45.9-13.6-8-2.2-14.5-4.3-18.8-5.7zM837.9 126.3c-.6-5.8-1.5-14.4-3.9-24.8-3.9-17.2-6.8-29.4-16.3-41.8-9.3-11.9-19.9-17.6-26.1-20.9-2.2-1.2-18.1-9.3-29.4-6.5-2.5.6-6.9 1.7-9.4 5.3-1.3 1.9-1 2.9-2.4 4.5-2.5 2.7-6.1 2.5-9.8 3.1-3.5.6-6.7 2.2-13 5.4-7.1 3.6-17.5 11.6-22.2 24.2-3 8-4.6 20.2.2 23.2 3.9 2.5 9.9-2.4 11.6-.4 2.1 2.6-8.2 10.6-9.1 21.6-.6 7.3 3.3 13.7 7.2 18.3 1.4-3.7 3.3-9.3 5.2-16.3 3.1-11.4 2.2-12.4 4.6-15.8 4.1-5.6 9.7-7.2 11-13.8.4-1.9.1-2.9.8-3.2 3-1.6 15.2 16.7 19.6 22.9 11.9 16.9 29.1 35.3 44.6 47.4.2 2.4.5 4.8.9 7.2 2 11.5 9.7 37.6 26.5 31 7.2-2.9 4.1-14.7-3.3-11.8-4.9 1.9-8.6-10-10.3-17.1 7.4 4 13.7 5.5 17.9 3.4 1.8-.9 3.8-2.8 5.1-7.1.8-1.4 1.1-3 1-4.4.2-1.6.4-3.4.5-5.5-.1-7.3-.3-16.9-1.5-28.1z"></path>
  <path d="M835.9 34.2c15.4 20 19.7 37 20.9 48.4 3 27.1-8.1 52.3 2.6 59.5 4.5 3 8.8.2 16.3 4.6 1.8 1.1 9.2 5.7 12.4 15 3.1 9 .3 17-1.3 21.6-3.1 8.6-6.1 8.5-16.3 22.2-12.6 16.9-13.8 24.9-23.5 28.1-4.2 1.4-6.7.8-8.5 3.3-5.3 7.1 6.7 23.5 7.2 24.2 4.6 6.2 7.3 9.8 11.8 10.5 10.3 1.5 18.1-14.6 25.5-11.8 3.1 1.2 2.3 4.2 5.9 5.9 6.2 3 15.8-2.4 21.6-7.8 9.3-8.8 7.5-16.5 14.4-19 6-2.2 9.1 2.9 18.3 3.9 11.4 1.2 23-4.8 30.1-12.4 11.3-12.1 12.9-30.2 7.2-42.5-3.8-8.1-8.6-9-18.3-18.7-9.8-9.9-14.6-18.7-23.5-35.5-20.6-38.7-13.5-42.9-28.1-64-8-11.6-22.8-32-47.7-36.6-11.2-2.3-20.7-.6-27 1.1zM743.8 236.1c-3.2 7.8-3 14.1-2.6 17.6.5 4 .9 7.6 3.9 9.8 3.5 2.6 9 .9 9.8.7 3.6-1 4.2-2.7 6.3-2.4 3.1.4 3.1 4.1 6.8 6.3 3.7 2.3 8.1 1.4 11.8.7 4.3-.9 9.1-1.9 11.1-5.9 2.1-4.2.1-10-3.3-13.1-4.5-4-10.2-2.1-17.6-2.6-6.7-.4-15.7-2.8-26.2-11.1z"></path>
  <ellipse cx="755.8" cy="107.8" rx="1.9" ry="1.6" style="stroke:#000;stroke-miterlimit:10" transform="rotate(-134.999 755.795 107.845)"></ellipse>
  <path d="M760.1 114.9c-.1.2-1.3-.3-3.1-1.6s-4.2-3.5-6.6-6.8l2-1.2c2 3.1 4.9 6.4 8.7 9.4l-1.8 2.4c-4-2.8-7.8-6.8-10.4-11.8l2.8-1.7.6.9c2.9 4 6.3 7.3 9.8 9.9l-1.9 2.4c-2.4-2.3-4.6-4.7-6.5-6.9-.9-1.1-1.8-2.2-2.6-3.3-.8-1.2-1.5-2.5-1.5-4l-.1-4 2 3.3c1.2 2 2.2 3.7 3 5.1l-1.3.8c-1.3-2.6-2.3-4-2.1-4.2.2-.2 1.6.9 3.3 3.5l-1.3.8c-1-1.3-2.2-2.9-3.6-4.7l2-.7c.1.9.6 1.8 1.3 2.7.7.9 1.7 2 2.6 3 1.9 2.1 4.1 4.3 6.5 6.4L760 117c-3.8-2.7-7.5-6.2-10.7-10.5l-.7-1 2.8-1.7c2.3 4.5 5.7 8.2 9.3 10.9l-1.8 2.4c-4-3.3-6.9-7.1-8.8-10.5l2-1.2c2 3.2 4 5.5 5.5 7.1 1.8 1.4 2.7 2.2 2.5 2.4z" style="stroke:#000;stroke-miterlimit:10"></path>
  <path d="M752.7 101.7c.2-.1 1 .6 2 2.2.9 1.6 2 4.1 2.5 7.2l.7 4.8-3.3-3.8c-1.6-1.8-3.1-4-4.5-6.6l2.9-1.5c.4.7.8 1.4 1.2 2.2.9 1.6 1.8 3.1 2.8 4.4l8.4 12.2-10.7-10.1c-1.9-1.8-2.9-3.9-3.6-5.7-.7-1.8-1-3.5-1.3-4.8l1.9-.3c-.2 2.3.2 3.7-.1 3.9-.3.1-1.4-1.1-1.8-3.8l-1.1-7 3 6.6c.5 1.2 1.1 2.7 1.9 4.3.8 1.6 1.8 3.2 3.3 4.4l-2.3 2.1c-1.1-1.4-2.1-3-3.1-4.6-.4-.8-.9-1.6-1.2-2.3l2.9-1.5c1.2 2.4 2.5 4.5 3.8 6.4l-2.5 1c-.2-2.8-.8-5.2-1.2-6.9-.6-1.7-.8-2.7-.6-2.8z" style="stroke:#000;stroke-miterlimit:10"></path>
  <path d="M778.3 722.9c-10.5 11.4-17.7 21.9-22.2 29.4-8.5 14.1-19.3 31.8-20.6 55.5-.3 5.9.8 13.7 3.2 29.4 3.3 22.2 7.2 40.7 11.1 57.1 6.8 29 10.2 43.5 15.9 59.5 5.5 15.5 14.2 36.8 28.6 61.1-5.9 10.8-10.6 20-14.1 26.9-21.6 43-13.4 35.1-18.8 42.8-1.2 1.6-4.1 5.7-2.8 8.8 1.5 3.5 7.5 3.8 8.7 4 12.1 1.3 22.2-12.1 33.3-27 10.8-14.5 21.3-28.8 22.2-48.4.3-5.4-.2-9.6-.8-15.1-1.9-17.1-6.4-27.4-9.5-37.3-3.3-10.7-4.3-22.9-6.2-47.3-1.9-24-2.8-36-2.5-51.9.4-17.6 2-27.4-4.8-36.5-2.4-3.2-6.2-6.9-6.3-12.7 0-1.2.1-6.2 7.1-14.3 6.1-6.9 11.7-9.7 20.6-15.1 5.2-3.1 12.6-7.9 21.4-14.3.1-2 .1-5-.8-8.3-1.4-5.3-4.1-8.9-6.4-11.5-19.8-23-45.2-31.7-45.2-31.7-4.7-1.5-8.6-2.5-11.1-3.1zM697.4 694.4c-14.5 13.3-24.5 25.5-30.9 34.1-16.7 22.4-29.2 47.4-36.5 61.9-4.4 8.7-5.9 12.5-10.3 19.8-10.4 17.6-20 27.5-26.2 34.9-28.1 33.5-39.2 76-40.5 80.9-2.2 8.6-5 23-14.3 40.5-4.1 7.8-5.2 8.1-7.9 14.3-6.2 14.2-6.3 26.8-6.3 42.1 0 7.9.4 18.8 2.4 31.7 6.5-4.4 10.8-8.9 13.5-12.1 3.4-4 5.6-7.7 19.8-34.7 2.1-4.1 2-3.8 2.2-4.2 7.3-13.4 11.6-16.7 14.9-26.1 1-2.9 1-3.6 1.9-7 3.8-13.8 11.5-23.1 15.9-30.9 12.7-23.1 28.6-44.2 38.3-57.4 6.3-8.6 9.5-12.5 13.3-20 5.2-10.3 5.8-15.7 12-26.7 2.1-3.8 2.4-3.8 10.1-15 15.7-22.8 23.8-34 30.2-40.5 2.8-2.9 5.1-4.8 7.2-6.3 5.1-3.6 9.3-5.7 11.4-6.7 6.5-3.1 15.3-7.3 21.8-12.9 3.6-3.1 7.8-9.9 15.9-23.2 8.1-13.3 8.9-15.9 8.8-17.1l-.1-.4s.3 1 .1 1.3c-.8 1.2-11.6-4.6-11.6-4.6-13.8-7.3-26.9-10.4-36.1-12.6-4.5-1-11-2.3-19-3.1zM590.3 626.7c3.8-3.9 4.8-4.9 4.8-4.8.1.1-3.9 2.9-3.6 6.1.3 3.1 4.6 5.1 5.4 5.4 4.9 2.2 8.2.4 13.9.6 6.3.2 9.3 2.6 13.9 4.2 13.4 4.7 31-.5 41.8-9.7 3.4-3 12.3-10.6 11.5-20.6-.6-7.5-6.5-15-10.9-14.5-3.4.4-3.9 5.5-7.9 6.1-3.8.6-5.6-3.7-10.9-6.7-1.6-.9-3.7-1.8-21.8-1.8-15.1 0-18.4.7-20.6 1.2-3.6.9-8.4 2.1-13.3 5.4-2.5 1.7-3.1 2.6-6.7 4.8-4.9 3.1-7 3.4-7.3 4.8-.3 1.6 1.5 4.1 10.3 8.5M847.6 204.1c.4 8.5 2.4 14.7 4.2 18.8 4.2 9.6 9 11.8 10.9 20.6 1.2 5.3.2 7.8-.6 16.3-.6 6.8-1.1 16.4 0 28.5 2.2-.4 4.9-.7 7.9-.6 4.7.1 8.6.9 11.5 1.8-.3-7.7-.8-21.1-.6-35.7 0-2.8.1-7 2.4-11.5 2.7-5.4 6.5-6.9 11.5-10.9 8.2-6.5 12.3-13.8 18.2-24.2 4.6-8.2 8.2-17 7.3-17.6-.7-.4-3.4 3.7-10.3 10.9-1.6 1.6-8.9 9.2-9.7 8.5-.8-.6 5-7.6 10.3-20 3.2-7.4 4.3-12.4 3-17.6-.6-2.4-2.2-6.6-4.2-6.7-2.3 0-2.5 5.1-7.3 12.7-1.5 2.4-4.8 6-11.5 13.3-4.4 4.8-5.5 5.8-6.1 5.4-1.2-.6 1.3-6.2 3-14.5 2-9.9 2.3-20.8.6-21.2-1-.2-2.1 3.5-6.7 12.7-4 8.1-6.3 12.7-10.3 18.2-5.8 8-7.4 7.4-10.3 13.3-1 2.1-1.8 4.2-3.6 4.8-2.9 1.1-6.7-2.2-9.6-5.3zM734.4 96.3c-9.9 22.8-11.5 37.5-11.5 37.5-1.6 14.4-3.9 34.7 4.2 59.3 4.1 12.4 10 30.3 26.6 43 11.9 9 24.5 11.8 26 12.1 6.8 1.4 12.8 1.5 17 1.2 2.6 9.9 5.1 18.6 7.3 26 5.5 18.7 8 25 13.9 27.2 3.4 1.3 6.4.7 9.7 0 13.4-2.7 19.8-15.3 20.6-17 1.7-3.5 3.8-7.9 3-13.3-1.1-7.6-6.6-8-10.9-17.6-1.2-2.7-4.9-11.1-1.8-20 1.8-5.1 4.5-4.5 6.1-9.1 2-5.9-1.2-9.7-4.2-20.6-.2-.9-1.4-7.9-3.6-21.8-1.5-9.2-2.3-14.2-4.2-21.2-3.7-13.1-6.2-14.2-7.3-14.5-4.9-1.4-7.8 6.4-14.5 6.1-8.2-.4-14.3-12.7-15.1-14.5-3.6-7.3-2.6-11.9-7.9-17-1-1-3.2-3.1-6.7-4.2-7.8-2.7-11.3 2.9-17 1.2-6.6-2-11-12.4-17.6-27.9-.9-2.2-2.2-5.3-4.2-5.4-3.1-.1-6 6.1-7.9 10.5z" style="fill:#b58669"></path>
  <path d="M758.1 112.6c-.1.2-1.2-.1-2.6-1.5-1.4-1.3-2.9-3.7-4.3-6.6l2.4-1c1.1 2.2 2.1 4.8 2.8 7.7l1.8 7.6-4.6-6.4c-1.6-2.3-2.8-5.1-3.1-8.2 0-.4-.1-.8-.1-1.2l-.2-9.7 3.4 9.1c.9 2.4 1.6 4.8 2.1 7.1l-2.9 1c-1.2-2.8-1.1-5.6-1-7.8.2-2.3.4-4.2.6-5.8.5-3.2.9-5.1 1.3-5.1s.6 2 .7 5.2c.1 1.6 0 3.6.1 5.7s.2 4.5 1.2 6.5l-2.9 1c-.6-2.1-1.3-4.4-2.1-6.6l3.2-.6c0 .3 0 .6.1 1 .2 2.5 1.1 4.8 2.4 6.7l-2.8 1.2c-.5-2.7-1.3-5.2-2.1-7.3l2.4-1c1.1 3 2.1 5.3 3.1 6.7.5 1.3 1.2 2.1 1.1 2.3zM779.9 116c.1.2-.2.7-.9 1.2s-1.9 1.1-3.5 1.3l-.3-2.6c1-.2 2.2-.5 3.4-.7l.5 3.1c-1.2.3-2.4.5-3.8.8-.3.1-.6.1-.9.2l-.1-3.2c1.1.1 2.2 0 3.1-.2l12.6-3.5-11.3 6.2c-1.2.7-2.5.9-3.6.8-1.1-.1-2-.4-2.6-.9-.2-.1-.3-.2-.4-.3-.1-.1-.4-.3-.4-.4-.2-.3-.3-.6-.3-.9 0-.3.2-.6.4-.7h.2l.1.1v.2H772.4c.1 0 .2.1.3.1.1 0 0-.1.2 0 .2 0 .3.1.4.1 1 .2 2.7.1 3.9-.8l1.3 2.7c-1.3.5-2.8.8-4.4.7l-11.5-1.1 11.4-2.1c.3-.1.6-.1.9-.2 1.3-.2 2.6-.4 3.8-.6l.5 3.1c-1.3.1-2.4.2-3.5.2l-.3-2.6c2.4 0 4.2-.5 4.5 0zM793.7 131.3c.1.1 0 .3-.2.5l-.1.2-.4-.3c-.9-.8-2.6-3.6-4.2-7.8l2.7-1c1 2.1 2 4.5 3.1 7.2.3.7.5 1.4.8 2l-2.9 1.4c-1.4-2.5-2.3-5-2.9-7.2l2.6-.5c-.1 4.1.8 6.8.2 7-.2.1-.8-.4-1.4-1.6-.6-1.2-1.2-3-1.5-5.3l-1.1-9.4 3.7 8.9c.8 1.9 1.9 4.2 3.2 6.5l-2.9 1.4c-.3-.7-.5-1.3-.8-2-1.1-2.6-2-5.1-2.7-7.3l2.7-1c1.1 4.1 2.1 7.2 2.1 8.3l-.6-.1c.4 0 .6 0 .6.1zM829.5 152.7c.4-.2 1.6 1 2.5 3.6l3.7 10.4-5.8-9.7c-1-1.6-2.1-3.8-3.3-6.2l2.9-1.2c.4 1.1.8 2.3 1.3 3.5.4 1.1.7 2.2 1.1 3.2l-3 1c-.9-2.5-1.6-4.8-2.1-6.6l2.2-.6c.1 2.7 0 4.5-.5 4.5-.4.1-1.1-1.5-1.8-4.2l-2.8-10.2 5 9.5c.9 1.7 1.9 4 3 6.5l-3 1c-.4-1-.7-2-1.1-3-.4-1.2-.8-2.3-1.1-3.4l2.9-1.2c1 2.5 1.9 4.8 2.5 6.6l-2.1.7c-.5-2.5-.9-4-.5-4.2zM733.9 89.2c-.4.2-.8.3-1.3 0-.4-.3-.7-.8-.7-1.5 0-.6.4-1.2.9-1.4.4-.2.9-.1 1.2.2.3.3.6.6.8.9.2.2.4.4.3.5 0 .1-.2.2-.4.4-.1.3-.4.7-.8.9zM746.9 79.5c.7.6-1.6 4.2-5.4 7.6-1.9 1.7-3.8 3.1-5.3 3.9-.4.2-.7.4-1 .5-.2.1-.3.1-.5.2s-.4.2-.7.2c-.3 0-.7-.1-.8-.6 0-.3.1-.4.2-.6.1-.1.3-.1.4-.1.1.1 0 .1 0 .2l-.1.1.1.1c.1.1.1 0 0 0 0 .1.1-.2 0-.1v-.5c.1-.1.2-.2.3-.4.2-.3.4-.6.7-.9 1.1-1.3 2.7-2.8 4.5-4.5 3.7-3.2 6.9-5.7 7.6-5.1zM866.5 90.1c-.4.1-1.9-3.2-4.1-8.7-2.3-5.4-5.4-12.9-9.6-20.7-2.1-3.9-4.3-7.5-6.4-10.8-1.1-1.6-2.1-3.1-3.1-4.5-.5-.7-1-1.4-1.4-2-.5-.6-.9-1.2-1.4-1.8-3.6-4.6-6-7.3-5.7-7.7.3-.3 3.3 1.8 7.4 6.2.5.5 1 1.1 1.6 1.7.5.6 1.1 1.3 1.6 1.9 1.1 1.3 2.3 2.9 3.4 4.4 2.3 3.2 4.6 6.9 6.8 10.9 4.3 8 7.2 15.8 8.9 21.4 1.8 5.9 2.4 9.5 2 9.7zM854 240.4c-.4.2-1.6-1.2-3.4-3.5-.9-1.2-1.9-2.5-3.1-4-.6-.7-1.2-1.5-1.9-2.3l-.4-.5-.1-.1-.3-.3-.1-.1c-.1.2-.2.4-.4.6-.2.4-.5.8-.7 1.2-.2.4-.5.9-.7 1.3-1 1.6-2 3-2.9 4.1-1.8 2.2-3.2 3.3-3.6 3-.4-.3.4-1.8 1.7-4.3.6-1.2 1.4-2.7 2.2-4.3l.6-1.2c.2-.5.4-.9.7-1.4.7-1.6 1.5-3.4 2.3-5.1.3.3.6.7.9 1.1.6.8 1.3 1.5 1.9 2.2.3.4.6.7.9 1.1.2.3.4.5.6.8.6.9 1.2 1.7 1.8 2.6 1.1 1.7 2 3.2 2.6 4.6 1.3 2.4 1.8 4.3 1.4 4.5z" style="stroke:#000;stroke-miterlimit:10"></path>
  <path d="M846.5 242.3c-.8.3-2.5-2.4-2.9-6.2-.4-3.8.7-6.8 1.5-6.7.9.1 1.3 3 1.7 6.4.4 3.3.6 6.2-.3 6.5zM923.8 235.9c.4.2-.4 3.5-2.6 8.6-1.1 2.6-2.5 5.5-4.3 8.8-1.8 3.2-4.1 6.7-7.4 9.8-3.2 3-7.2 5.1-11.1 5.8-1.9.4-3.9.4-5.6.1-1.8-.3-3.3-.9-4.6-1.6-2.6-1.4-4.2-3.3-5-4.8-.8-1.5-.8-2.4-.6-2.5.2-.1.7.6 1.7 1.7s2.6 2.5 4.9 3.4c2.3 1 5.4 1.4 8.6.6 3.2-.8 6.6-2.6 9.5-5.3 2.9-2.7 5.1-5.9 7-8.9 1.9-3 3.5-5.9 4.8-8.3 2.7-4.5 4.3-7.5 4.7-7.4zM854.7 268.7c.4.2.7.6.3 1.6-.2.5-.5 1-1 1.5-.5.4-1.3.6-2.1.5-.3-.1-.6-.2-.8-.4-.4-.2-.7-.6-1-.9-.1-.2-.3-.4-.4-.6-.1-.1-.2-.3-.2-.4-.3-.5-.4-1-.4-1.5-.1-.9.2-1.5.7-1.6.4-.1.9.2 1.4.6.3.2.5.5.8.7l.2.2h.1c.1 0 .1.1.2.1l.1.1c.2.2.5.2.9.1.3.1.8-.2 1.2 0z" style="stroke:#000;stroke-miterlimit:10"></path>
  <path d="M839.8 201.8c.4 5.6 1.7 13.9 6.2 22.6 5.5 10.6 10 11 12.1 19.1 1.3 5.2-.3 13.1-3.5 28.8-2 10-3.7 15.8-1.2 17.5 1.8 1.3 5-.2 7.4-1.6.9-8.1 1-12.4.8-14.8 0-.4-.2-1.6-.1-3.2.1-1.8.4-3.3.7-6.3 0 0 .2-1.5.5-5.7.1-1.6.7-9.4-.8-16.8-.8-3.9-2.8-11.1-9-19.1-1.6-4.4-3.1-8.8-4.7-13.3 0-5.5-2.6-9.2-5.1-9.4-.2.2-1.6.2-3.3 2.2zM591.3 624.7c-3.8.1-6.8 1.6-7.3 3.6-.6 2.4 2.2 4.9 4.6 6.8 4.5 3.9 9.1 5.4 10.9 5.9 8.1 2.6 14.4 3.6 19.1 4.6 17.7 3.4 17.2 4.7 23.2 4.6 8.8-.3 15.4-3.2 19.1-5 3.6-1.7 14.2-6.8 21.4-18.2 2.1-3.3 7.1-11.2 4.1-15-1.9-2.4-6.1-2.1-8.2-1.8-1 3-2.9 7.7-6.8 12.3-7.7 9-17.8 11.4-21.9 12.3-3.3.7-9.6.6-22.3.5-.7 0-7.1-.1-15.5-.9-5-.5-6.3-.8-6.8-.9-3.4-1-8.4-3.1-13.6-8.8z" style="fill:#fff"></path>
  <path d="M668.3 586.5c0 2.2.2 5.7 1.8 9.6 2.3 5.6 6 8.8 8.7 10.9 3.8 3.1 8.9 7.3 13.7 5.9 3.2-.9 4.8-3.9 5.5-5 6.9-12.2 17.2-22.4 23.2-35.1 19.4-40.9 34.7-40.5 41.9-71.1 1.3-5.6 3.2-16 5.9-15.9 2.5 0 4.2 8.9 5.5 14.6 6.2 27 11 40 18.2 46.9 2.3 2.2 6.8 5.9 7.7 11.8.7 4.6-1.1 8.5-1.4 9.1-1.5 3.1-3.6 4.8-5.9 6.8-9.8 8.3 3.8-1.6-11.8 10.9-12.8 10.2-35.5 27.8-45.6 36-34 27.7-47 49.2-51.1 56.7 0 0-.4.7-.8 1.6-1.7 3.1-3 5.7-4 7.4 1.1.8 2.5 2.2 3 4.2 1.5 5.9-6.8 12.5-11 16.3-6.1 5.6-11.1 15-20.9 33.7-14 26.5-9.7 33.8-22.3 46.5-6.5 6.6-8.4 5.3-17.8 14.1-10 9.4-16 18.5-21.4 27.3-19.9 32.2-31.9 51.9-41 82.5-5.2 17.7-7.4 32.2-8.7 40.6-2.6 17.7-3.8 36.3-2.7 36.5.9.1 2.8-12.7 6.8-31 6.9-31.2 11.7-52.8 24.1-76.5 9.7-18.6 21-32.7 29.2-42.8 6.7-8.4 13.1-13.1 22.3-25.1 2.9-3.7 9.3-12.3 17.3-26 18.4-31.5 11.8-33.2 23.2-48.3 16.1-21.1 37.1-28.2 36-43.3-.3-3.8-1-6.4.5-10.9 2.7-8.7 10.3-11.8 19.9-19.5 6.8-5.4 5.2-5.6 17.4-17.9 11.7-11.7 13.9-11 51.5-43.7 4.9-4.3 8.9-7.8 15.5-11.4 12.1-6.5 23.8-8.2 31.9-8.7 11 13.2 21.9 21.9 29.6 27.3 12.6 8.8 31 21.8 42.8 15.5 1.8-.9 1.8-1.5 8.7-10.5 11-14.5 16.5-21.7 19.6-24.1 11.2-8.8 19.7-7 23.7-15.9.5-1.1 3-7 .5-10-2.2-2.7-6.3-1-8.7-4.1-2.1-2.8-.4-6.3-2.3-7.3-1.7-.9-3.6 1.6-5.5 1.4-5.5-.7-6.7-23.8-6.8-27.3-1.3-25.4-3-38.2-3.2-47.8-.3-20.4.6-18.4 0-22.8-3.3-25.5-26.9-41.9-58.3-63.8-12.5-8.7-34.6-22.8-65.2-34.2-27.9-10.4-41.8-15.6-54.7-9.6-20.5 9.6-26.6 39.8-30.1 57-3 14.5-.8 16.2-3.6 37.8-3.2 24.5-8.5 42.7-11.8 53.8-11.8 39.3-26.9 66.4-31.4 74.3-2.9 5.1-5.6 9.5-7.6 12.6z" style="fill:#fff"></path>
  <path d="m766.4 715.7 16.2 6.6c-6.5 5.7-15.3 14.5-23.8 26.7-6.9 10.1-21.1 31.2-23 59.4-.3 4-.4 10 4.5 36.4 8.5 46.3 16.8 72.4 15.6 72.8-1.3.4-13.2-29.9-20.5-62.9-2.8-12.5-4.3-23-5.7-31.7-2.2-14.4-3.2-21.7-2.8-27.9.4-6.7 2.1-15.1 12.6-35.7 6-11.5 14.6-26.7 26.9-43.7z" style="fill:#fff"></path>
  <path d="M800.4 247.9c0 .1-.6.4-1.8.8-.6.2-1.4.5-2.3.7-.9.2-2 .5-3.2.7-4.8 1-12.1 1.4-20.8-.3-8.7-1.7-18.7-5.8-27.9-13.1s-17.1-18-22.5-30.3c-5.3-12.4-7.6-25.2-8.1-36.8-.5-11.6.7-22.1 2.1-30.7 1.5-8.6 3.3-15.5 4.6-20.1 1.4-4.7 2.3-7.2 2.5-7.1.2.1-.3 2.7-1.3 7.5s-2.4 11.6-3.6 20.2c-1.1 8.5-2 18.8-1.4 30.2.6 11.3 3 23.7 8.1 35.7 5.1 11.9 12.6 22.2 21.4 29.3 8.7 7.1 18.2 11.3 26.5 13.2 8.3 1.9 15.3 1.8 20.1 1.3 1.2-.2 2.2-.3 3.2-.4.9-.1 1.7-.3 2.3-.4 1.3-.5 2-.5 2.1-.4z" style="stroke:#000;stroke-miterlimit:10"></path>
  <path d="M810.8 295.5c-.3.3-2.6-1.6-5.7-5.2-1.6-1.8-3.3-4.1-5-6.7-1.7-2.7-3.5-5.7-5-9-1.6-3.3-2.8-6.6-3.8-9.6s-1.6-5.8-2.1-8.1c-.9-4.7-.9-7.7-.4-7.7 1-.2 3.1 11.3 9.3 24 5.9 12.8 13.4 21.6 12.7 22.3zM844.1 231.7c.3.3-.4 1.4-1.8 2.9-1.4 1.4-3.7 3.1-6.4 4.5s-5.4 2.2-7.4 2.5c-2 .3-3.3.1-3.4-.3-.2-.9 4.2-2.5 9.3-5.1 5.2-2.6 9.1-5.2 9.7-4.5z" style="stroke:#000;stroke-miterlimit:10"></path>
  <path d="M853.4 272.8c-.3.3-2.4-.9-5.2-3.7-.7-.7-1.4-1.5-2.1-2.4-.8-.9-1.4-1.9-2.2-3-1.4-2.2-2.7-4.8-3.8-7.6-1-2.9-1.7-5.7-2-8.3-.1-1.3-.3-2.5-.3-3.7-.1-1.2 0-2.2.1-3.2.3-3.9 1.2-6.2 1.6-6.2.5.1.4 2.5.7 6.2.1.9.1 1.9.3 3 .1 1.1.3 2.2.5 3.4.5 2.4 1.2 5 2.1 7.6 1 2.6 2.1 5.1 3.3 7.2.6 1.1 1.2 2.1 1.8 3 .6.9 1.2 1.8 1.7 2.5 2.3 3 3.9 4.8 3.5 5.2zM859.7 244.7c-.2.3-2.9-1.2-6.2-4.7-.4-.4-.8-.9-1.3-1.4-.4-.5-.8-1-1.3-1.6-.9-1.1-1.7-2.4-2.6-3.7-1.7-2.7-3.3-5.9-4.7-9.3-2.7-6.9-3.9-13.4-4.4-18.2-.5-4.7-.3-7.7.1-7.8.5 0 1.1 2.8 2.2 7.4 1.1 4.5 2.6 10.8 5.2 17.4 1.3 3.3 2.7 6.3 4.2 8.9.8 1.3 1.5 2.6 2.2 3.7.4.6.7 1.1 1.1 1.6.4.5.7 1 1.1 1.5 2.7 3.8 4.8 5.8 4.4 6.2zM861.1 214.2c-.8.6-4.8-3.8-10.5-8.3-5.6-4.6-10.8-7.6-10.4-8.4.2-.4 1.8-.1 4.1.8 2.3 1 5.4 2.7 8.4 5.1 3 2.4 5.3 5 6.8 7.1 1.4 1.9 2 3.4 1.6 3.7zM890.1 152.2c.4.1-.4 3.7-2.4 9.2-1 2.8-2.3 6-3.9 9.6-1.6 3.5-3.6 7.3-5.8 11.2-2.3 3.9-4.6 7.5-6.8 10.7-2.2 3.2-4.4 6-6.3 8.2-3.8 4.5-6.5 7-6.8 6.7-.7-.6 8.3-11.9 17.1-27.2 8.8-15.2 14-28.7 14.9-28.4z" style="stroke:#000;stroke-miterlimit:10"></path>
  <path d="M882.8 198.2c-.9-.3 2-9.5 3.6-21.2 1.7-11.6 1.4-21.3 2.3-21.4.4 0 1.1 2.4 1.4 6.3.3 4 .3 9.5-.5 15.5s-2.3 11.3-3.7 15c-1.4 3.9-2.7 6-3.1 5.8zM912.6 157.6c.8.4-3.7 10.2-11.4 21.1-7.7 10.9-15.5 18.4-16.1 17.8-.7-.6 5.9-9 13.4-19.7 7.6-10.6 13.3-19.6 14.1-19.2z" style="stroke:#000;stroke-miterlimit:10"></path>
  <path d="M895.5 200.8c-.8-.5 4.1-9.5 9-21.1 4.9-11.6 7.9-21.4 8.8-21.2.8.2-.8 10.6-5.8 22.4-5 12-11.3 20.4-12 19.9z" style="stroke:#000;stroke-miterlimit:10"></path>
  <path d="M897.6 209.7c-.4-.3 1.2-2.6 3.5-6.4.6-1 1.2-2 1.8-3.1.7-1.1 1.3-2.4 1.9-3.7 1.3-2.6 2.5-5.5 3.7-8.7 1.1-3.2 1.9-6.2 2.6-9.1.3-1.4.6-2.8.8-4.1.2-1.3.4-2.5.5-3.6.6-4.4.8-7.2 1.2-7.2.4 0 1.1 2.8 1.1 7.4 0 1.1 0 2.4-.2 3.8-.1 1.4-.3 2.8-.5 4.3-.5 3-1.3 6.3-2.4 9.6-1.2 3.3-2.6 6.4-4.1 9-.8 1.3-1.5 2.6-2.3 3.7-.7 1.1-1.5 2.1-2.2 3-2.8 3.6-5.1 5.4-5.4 5.1zM921.2 183.9c.7.5-2.7 7.2-8.5 14.5-5.8 7.2-11.7 12-12.3 11.4-.6-.7 4.1-6.4 9.8-13.4 5.6-7.2 10.2-13 11-12.5z" style="stroke:#000;stroke-miterlimit:10"></path>
  <path d="M899.6 224.2c-.4-.3 1-2.5 3.3-5.8 2.3-3.4 5.6-7.9 8.8-13.1 1.6-2.6 3-5.2 4.1-7.5.5-1.2 1.1-2.3 1.5-3.4.2-.5.4-1.1.6-1.6.2-.5.4-1 .5-1.5 1.4-3.8 1.9-6.2 2.4-6.2.4 0 .6 2.7-.2 6.8-.1.5-.2 1-.4 1.6-.1.6-.3 1.1-.5 1.7-.3 1.2-.8 2.4-1.3 3.7-1.1 2.6-2.4 5.3-4.1 8-3.3 5.4-7 9.8-9.8 12.8-2.6 3.1-4.5 4.8-4.9 4.5zM713.1 140.4c0 .1-.2.2-.6.2-.4.1-.9.1-1.6 0-1.3-.2-3.3-.8-5.3-2.3-2-1.5-4-3.8-5.4-6.8-.7-1.5-1.2-3.2-1.5-5-.3-1.8-.3-3.6-.1-5.5.3-3.7 1.4-7.1 2.7-10 1.3-2.9 2.6-5.3 4-7.3 1.3-2 2.7-3.4 3.7-4.2 1-.8 1.7-1.1 1.9-1 .3.4-1.6 2.4-3.7 6.4-1 2-2.1 4.5-3.2 7.2-1 2.8-1.9 5.9-2.2 9.2-.3 3.3.1 6.4 1.1 9 1 2.6 2.6 4.7 4.1 6.2 3.3 3 6.2 3.4 6.1 3.9z" style="stroke:#000;stroke-miterlimit:10"></path>
  <path d="M752.9 41.6c0 .2-1.4.7-3.9 1.4s-6.2 1.7-10.6 3.2c-4.4 1.5-9.6 3.5-15 6.3-5.4 2.9-11 6.6-16 11.5s-8.9 10.4-11.5 15.8c-1.3 2.7-2.1 5.4-1.9 7.8.1 1.2.4 2.3.9 3.3s1.2 1.9 2 2.6c1.6 1.5 3.4 2.4 5 3.1 1.7.6 3.2 1 4.5 1.2 2.5.4 4 .5 4 .7 0 .2-1.4.6-4.2.6-1.4-.1-3-.2-4.9-.8-1.9-.5-4-1.4-6-3.1-1-.8-1.9-1.9-2.6-3.1-.7-1.3-1.2-2.7-1.4-4.3-.4-3.1.6-6.3 1.8-9.3 2.6-5.9 6.7-11.8 12-16.9 5.3-5.1 11.2-9 16.9-11.9 5.7-2.8 11.1-4.6 15.7-5.9 4.6-1.2 8.4-1.9 11-2.2 2.7-.2 4.2-.2 4.2 0zM797.4 42.7c-.3.4-2.8-1-7.1-2.9-4.2-1.9-10.2-4.2-17.1-5-3.4-.4-6.7-.4-9.7 0-2.9.4-5.5 1.2-7.5 2.1-4.1 1.9-5.9 4.2-6.3 3.9-.2-.1 0-.9.8-2s2.2-2.6 4.3-3.9c2.1-1.3 4.9-2.5 8.1-3.1 3.2-.6 6.8-.7 10.5-.3 7.5.8 13.7 3.7 17.8 6.2 4.4 2.5 6.5 4.6 6.2 5zM836.7 34.8c-.2.4-2.6-.5-6.3-1.7-.9-.3-2-.6-3.1-.9-1.1-.3-2.3-.5-3.6-.8-2.5-.5-5.4-.9-8.3-1.1-3-.2-5.8-.1-8.4.1-1.3.1-2.5.2-3.7.4-1.2.1-2.2.3-3.2.5-3.9.7-6.3 1.4-6.5 1-.2-.4 2-1.8 5.9-3.2 1-.3 2.1-.7 3.3-.9 1.2-.3 2.5-.5 3.8-.8 2.7-.4 5.8-.6 8.9-.4 3.2.2 6.2.7 8.8 1.4 1.3.4 2.6.7 3.7 1.2 1.2.4 2.2.9 3.1 1.3 3.9 1.9 5.8 3.6 5.6 3.9zM859.1 146.1c-.2 0-.2-1.6 0-4.4.1-.7.1-1.5.2-2.3 0-.8.1-1.8.1-2.7.1-2 .3-4.2.3-6.7 0-1.2.1-2.5.1-3.9v-4.2c0-2.9-.2-6-.4-9.2-.5-6.5-1.3-13.6-2.7-21-1.4-7.4-3.3-14.3-5.3-20.5-1.1-3.1-2-6-3.1-8.7-.5-1.3-1-2.7-1.5-3.9l-1.5-3.6c-.9-2.3-1.9-4.3-2.7-6.1-.4-.9-.8-1.7-1.1-2.5-.4-.8-.7-1.4-1-2.1-1.2-2.5-1.8-3.9-1.6-4.1s1.1 1.1 2.7 3.4c.4.6.8 1.2 1.3 1.9.4.7.9 1.5 1.4 2.4 1 1.7 2.1 3.7 3.2 5.9.6 1.1 1.1 2.3 1.7 3.5.6 1.2 1.1 2.6 1.7 3.9 1.2 2.7 2.3 5.7 3.4 8.8 2.2 6.3 4.2 13.3 5.6 20.8 1.4 7.5 2.2 14.8 2.5 21.4.1 3.3.2 6.5.1 9.4-.1 1.5-.1 2.9-.2 4.3s-.2 2.7-.3 3.9c-.2 2.5-.5 4.7-.8 6.7-.1 1-.3 1.9-.4 2.7-.2.8-.3 1.6-.5 2.3-.5 3.1-1 4.6-1.2 4.6zM840.1 152.9c-.5 0-.8-5.9-1.7-15.4-.2-2.4-.5-5-.8-7.7-.3-2.8-.7-5.7-1.1-8.8-.9-6.2-2.2-13-3.9-20-1.7-7-3.8-13.5-6-19.4-1.2-2.9-2.2-5.7-3.4-8.2-.6-1.3-1.1-2.5-1.7-3.7-.6-1.1-1.1-2.3-1.7-3.3-1-2.1-2.1-4-3-5.6-.5-.8-.9-1.6-1.3-2.3-.4-.7-.8-1.3-1.1-1.9-1.4-2.3-2-3.6-1.9-3.8.2-.1 1.2.9 2.9 3 .4.5.9 1.1 1.4 1.7.5.7 1 1.4 1.5 2.2 1.1 1.6 2.3 3.4 3.5 5.5.6 1 1.2 2.1 1.9 3.3.6 1.2 1.2 2.4 1.9 3.6 1.3 2.5 2.5 5.3 3.8 8.2 2.4 5.9 4.6 12.6 6.4 19.7 1.8 7.1 2.9 14 3.7 20.3.3 3.2.7 6.2.9 9 .2 2.8.3 5.4.4 7.8.2 9.9-.3 15.8-.7 15.8z" style="stroke:#000;stroke-miterlimit:10"></path>
  <path d="M882.1 154.2c-.5.2-1.5-2.2-5-3.9-1.7-.9-3.9-1.6-6.5-2.1s-5.5-.9-8.5-1.1c-3-.1-5.9 0-8.5.4-2.6.4-4.8 1.1-6.5 1.9-.5.2-.9.4-1.3.6-.4.2-.8.4-1.1.6-.6.4-1.3.8-1.6 1-.1.1-.2.3-.2.5 0 .1.2.2.3.2.2 0 .2-.2.2-.2h-.3c-.1.1-.3.1-.5.1s-.4-.1-.6-.4c-.1-.2-.1-.6 0-1 .4-.8.9-1.1 1.6-1.8.3-.3.7-.6 1.1-.9.4-.3.8-.6 1.3-.9 1.8-1.2 4.3-2.2 7.1-2.9 2.8-.6 6-.9 9.2-.7 3.3.2 6.3.7 9 1.4 2.8.7 5.2 1.8 7 3.1.9.6 1.6 1.4 2.2 2 .6.7 1 1.4 1.2 1.9.3.6.4 1 .4 1.4.2.6.1.8 0 .8zM787 113.6c.1.1 0 .3-.3.8-.1.2-.3.5-.5.8-.2.3-.5.6-.8 1-.3.4-.7.7-1.2 1.1-.4.4-1 .7-1.6 1.1-1.2.7-2.6 1.5-4.3 2-3.3 1.1-7.6 1.6-12.1.8-2.3-.4-4.6-1.1-6.9-2.1-2.3-1.1-4.6-2.7-6.4-4.8-1.8-2.1-3-4.5-4-6.8-.9-2.3-1.6-4.6-2.1-6.8-1-4.4-1.4-8.4-1.3-11.8.1-6.8 1.5-10.8 1.9-10.7.5.1-.1 4.2.4 10.6.2 3.2.8 7.1 1.9 11.2 1.2 4.1 2.7 8.6 5.7 12.2 2.9 3.5 7.4 5.2 11.4 6.1 4.1.9 7.9.6 10.9-.1 1.5-.3 2.9-.9 4-1.4.5-.3 1.1-.5 1.5-.8.4-.3.9-.5 1.3-.8.4-.3.7-.5 1-.7.3-.2.5-.4.7-.5.5-.3.7-.4.8-.4zM832.4 133c.2.1-.1 1.1-.9 2.9-.8 1.8-2 4.3-4 7.2-2 2.8-4.9 6.1-9.4 8.2-2.2 1-4.8 1.7-7.5 1.5-2.7-.1-5.4-1-7.9-2.3-2.5-1.4-4.5-3.2-6.3-5.1-1.7-2-3-4.1-4.1-6.1-2.2-4.1-3.4-8.1-4.5-11.3-2.1-6.5-3.1-10.6-2.7-10.7.4-.2 2.3 3.6 4.9 9.9 1.3 3.1 2.8 6.9 4.9 10.6 1.1 1.9 2.3 3.8 3.9 5.4 1.5 1.7 3.4 3.2 5.5 4.4 2.1 1.1 4.3 1.9 6.5 2 2.2.2 4.3-.3 6.2-1.1 3.8-1.6 6.7-4.4 8.8-6.9 2.1-2.5 3.6-4.8 4.7-6.4 1-1.5 1.7-2.3 1.9-2.2z" style="stroke:#000;stroke-miterlimit:10"></path>
  <path d="M837.4 161.9c.1.2-.1.6-.7 1s-1.7.7-3 .6c-1.3-.1-2.9-.9-4.1-2.1-1.2-1.2-2.2-2.7-3-4.3-1.6-3.1-2.4-6.4-2.3-8.9.1-2.4 1-3.8 1.4-3.7.5.1.5 1.5.9 3.5s1.4 4.7 2.9 7.5c.7 1.5 1.5 2.7 2.3 3.7.8 1 1.6 1.5 2.5 1.9 1.5.9 2.8.4 3.1.8zM740.2 88c.3.3-.9 2-3.1 4.3-2.1 2.4-5.2 5.5-8.3 9.2-1.5 1.8-2.9 3.6-4.1 5.3-1.1 1.7-2.1 3.3-2.9 4.6-1.5 2.7-2.4 4.5-2.8 4.4-.4-.1-.4-2.2.7-5.3.5-1.6 1.4-3.4 2.5-5.3s2.5-3.9 4.1-5.8c3.2-3.8 6.7-6.8 9.2-8.8 2.6-1.9 4.4-2.9 4.7-2.6zM737.3 123.9c-.2.4-1.2.4-2.8.4-1.6 0-3.7 0-6.1.2-1.2.1-2.4.2-3.5.2-.5 0-1.1.1-1.6.1-.4 0-.8 0-1.2.1-.7.1-1.1.2-1.4.3-.3.2-.6.4-.8.3-.2 0-.4-.4-.3-1 .2-.7.9-1.4 1.8-1.8.5-.2 1-.4 1.5-.5.5-.1 1-.2 1.5-.4 1.1-.2 2.3-.4 3.6-.5 2.6-.2 5.1.1 6.8.8 1.8.6 2.6 1.4 2.5 1.8zM779.9 132.2c-.6.7-4.4-2-9.8-3-5.4-1.2-9.9-.2-10.2-1.1-.1-.4.9-1.2 2.9-1.8 1-.3 2.2-.5 3.6-.6 1.4-.1 2.9 0 4.4.4 1.6.3 3 .8 4.2 1.4 1.2.6 2.3 1.3 3 2 1.5 1.2 2.1 2.4 1.9 2.7z" style="stroke:#000;stroke-miterlimit:10"></path>
  <ellipse cx="734.5" cy="163.9" rx="12.8" ry="1.6" style="stroke:#000;stroke-miterlimit:10" transform="rotate(105.261 734.533 163.918)"></ellipse>
  <path d="M739.9 187.2c-.1.4-.8.8-2 .8s-2.8-.4-4.4-1.4c-1.5-1-2.6-2.3-3.1-3.4s-.5-1.9-.1-2.1c.8-.5 2.6 1.2 5 2.7 2.4 1.6 4.7 2.5 4.6 3.4zM766.5 158.5c-.4.1-1-.8-1.5-2.4-.5-1.6-.8-3.8-.7-6.3.1-2.5.6-4.7 1.2-6.3.6-1.5 1.3-2.4 1.7-2.3.9.3.5 4.1.4 8.6-.3 4.6-.2 8.5-1.1 8.7zM723.5 154.3c-.9.1-1.9-2.9-1.8-6.6.1-3.7 1.4-6.6 2.2-6.5.9.2 1.1 3.1 1 6.6 0 3.5-.5 6.4-1.4 6.5zM782.6 200.3c.3.3-1.7 2.6-5.6 5.6-1.9 1.5-4.3 3.2-7.2 4.8-2.9 1.6-6.3 3-10 3.9-3.8.9-7.5.9-10.8.4-3.3-.5-6.2-1.5-8.4-2.8-2.2-1.3-3.8-2.6-4.6-3.7-.9-1.1-1.2-1.8-1.1-1.9.4-.4 2.5 1.8 6.7 3.6 2.1.9 4.8 1.6 7.8 1.9 3 .3 6.4.1 9.8-.6 6.9-1.6 12.6-4.9 16.6-7.4 3.9-2.6 6.5-4.2 6.8-3.8z" style="stroke:#000;stroke-miterlimit:10"></path>
  <path d="M788.2 205c-.9.4-2.7-2.2-5.6-4.5-2.9-2.3-5.8-3.5-5.7-4.4.1-.4 1-.7 2.5-.5 1.5.2 3.4 1 5.2 2.4 1.8 1.4 3 3.1 3.5 4.5.5 1.3.5 2.3.1 2.5zM940.4 242.7c0-.1 1.1-.1 3.1 0 2 0 5-.1 8.7-.8 3.7-.8 8.2-2.2 12.8-4.9 4.6-2.7 9.3-6.9 12.7-12.6 3.4-5.7 5.4-13.1 5.1-20.9-.2-3.9-.9-7.9-2.5-11.8-1.5-3.9-3.7-7.6-6.6-10.9-2.9-3.4-6.3-6.4-9.9-9.5-3.6-3.1-7.4-6.3-10.9-9.9-3.5-3.7-6.6-7.9-9.2-12.5-2.6-4.5-4.8-9.4-6.7-14.3-3.9-9.9-7.1-19.6-10.6-28.9-3.4-9.3-7-18.1-11.1-26.2-4.1-8.1-8.7-15.3-13.7-21.5-5.1-6.2-10.5-11.3-16.1-15.2-5.5-3.9-11.2-6.5-16.4-7.9-5.2-1.5-9.9-1.7-13.6-1.4-3.8.3-6.6 1.2-8.5 1.9-1.9.7-2.8 1.2-2.9 1.1 0-.1.8-.7 2.6-1.7 1.8-.9 4.7-2 8.6-2.6 3.9-.5 8.8-.4 14.2.9 5.4 1.3 11.4 3.8 17.2 7.7 5.8 3.9 11.6 9.1 16.9 15.4 5.3 6.3 10.1 13.7 14.3 21.9 4.2 8.2 7.9 17.1 11.4 26.4 3.5 9.3 6.8 19.1 10.6 28.8s8.5 18.8 15.2 25.8c6.7 7 14.8 12.5 20.8 19.7 3.1 3.5 5.5 7.6 7 11.8 1.6 4.2 2.3 8.5 2.5 12.7.3 8.4-2 16.2-5.8 22.2s-8.9 10.3-13.8 13c-4.9 2.8-9.6 4-13.5 4.6-3.9.6-6.9.4-9 .2-1.9-.2-2.9-.5-2.9-.6zM875.8 253.8c-.7-.6 3.6-7.2 9.9-14.5 6.3-7.4 12.2-12.6 12.9-12 .7.6-4.1 6.8-10.4 14.1-6.2 7.3-11.6 13-12.4 12.4z" style="stroke:#000;stroke-miterlimit:10"></path>
  <path d="M912.9 398.3c-.2.1-1.5-1.7-3.8-5-2.2-3.4-5.4-8.3-8.9-14.6-3.5-6.3-7.4-14.1-10.3-23.4-2.9-9.2-4.6-19.7-5.7-30.7-2.1-21.9-3-41.8-3.2-56.3-.1-7.2 0-13 .1-17.1.1-4 .3-6.3.6-6.3.5 0 .9 8.9 1.7 23.3.8 14.4 2 34.2 4.1 56 1.1 10.9 2.6 21.2 5.3 30.2 2.7 9 6.3 16.7 9.5 23.1 3.2 6.4 6.1 11.5 8 15 1.8 3.7 2.8 5.7 2.6 5.8zM877.5 459.5c-.1.1-.6-.5-1.5-1.7-.4-.6-.9-1.3-1.6-2.2-.3-.4-.6-.9-1-1.4-.3-.5-.7-1.1-1-1.7-.7-1.2-1.5-2.5-2.4-4-.8-1.5-1.7-3.1-2.6-4.9-1-1.7-1.8-3.7-2.8-5.7-1-2-1.9-4.2-2.9-6.5-.2-.6-.5-1.2-.7-1.8-.2-.6-.5-1.2-.7-1.8-.5-1.2-.9-2.5-1.4-3.8-.9-2.6-1.8-5.3-2.7-8.1-.8-2.8-1.7-5.7-2.5-8.8-.4-1.5-.8-3.1-1.2-4.6-.3-1.6-.7-3.2-1-4.8-2.7-13-4.4-27.5-4.9-42.8-.4-15.3.4-29.8 1.6-43 1.2-13.1 2.9-24.9 4.4-34.8 1.5-9.8 2.9-17.8 4-23.3 1-5.5 1.7-8.5 2-8.4.2 0 0 3.1-.7 8.6s-1.7 13.5-2.9 23.4c-1.2 9.9-2.6 21.6-3.7 34.7-1.1 13.1-1.7 27.5-1.3 42.6.5 15.1 2 29.4 4.6 42.3.3 1.6.7 3.2 1 4.7.3 1.6.7 3.1 1.1 4.6.7 3 1.5 5.9 2.3 8.7.8 2.8 1.6 5.5 2.5 8 .4 1.3.9 2.5 1.3 3.7l.6 1.8c.2.6.5 1.2.7 1.7.9 2.3 1.7 4.5 2.6 6.5.9 2 1.7 4 2.5 5.8.8 1.8 1.6 3.4 2.4 4.9.8 1.5 1.5 2.9 2.1 4.1.3.6.6 1.2.9 1.7.3.5.6 1 .8 1.5.5.9.9 1.7 1.3 2.4.6 1.6.9 2.3.8 2.4z" style="stroke:#000;stroke-miterlimit:10"></path>
  <path d="M926.5 234.1c.4.1-.3 3.5-2.2 8.7-1 2.6-2.4 5.7-4.3 8.9-2 3.2-4.5 6.5-7.9 9.4-3.4 2.8-7.2 4.8-11 5.8-3.7 1-7.3 1-10.2.3-2.9-.7-5-2.1-6.1-3.3-1.1-1.3-1.3-2.2-1.1-2.3.2-.1.8.5 2 1.4 1.2.8 3.1 1.7 5.6 2 2.5.3 5.7.1 8.9-.9 3.3-1 6.6-2.9 9.7-5.4 3.1-2.5 5.5-5.5 7.5-8.5 2-2.9 3.5-5.8 4.7-8.2 2.5-4.9 3.9-8 4.4-7.9zM952.9 412.3c-.2 0 0-2.4.6-6.6.6-4.2 1.5-10.2 2.4-17.7.9-7.5 1.7-16.4 1.5-26.3-.3-9.8-1.8-20.7-5.9-31.3-4-10.6-10.4-19.6-17.9-25.8-3.7-3.1-7.7-5.6-11.6-7.7-3.9-2.1-7.6-3.7-11.1-5-7-2.7-12.9-4.5-16.9-5.8-4-1.3-6.2-2.1-6.2-2.3.1-.2 2.4.2 6.5 1.1 4.1.9 10.1 2.4 17.3 4.8 3.6 1.2 7.5 2.8 11.6 4.8 4 2 8.2 4.5 12.2 7.8 8 6.4 14.9 15.9 19 26.9 4.3 11 5.8 22.3 5.9 32.4.1 10.1-1 19.2-2.2 26.7-1.2 7.5-2.5 13.5-3.5 17.6-.8 4.2-1.5 6.5-1.7 6.4z" style="stroke:#000;stroke-miterlimit:10"></path>
  <path d="M955.3 405.4c.2.1.1 1.6-.4 4.4-.5 2.8-1.3 6.8-2.6 11.8-1.3 4.9-3 10.8-5.7 17-2.7 6.2-6.4 12.9-11.7 18.9-5.2 6-11.5 10.6-18 13.2-6.5 2.6-12.9 3.2-18 2.7-5.2-.5-9.2-2.1-11.7-3.5-.6-.4-1.2-.7-1.6-1-.5-.3-.8-.6-1.1-.9-.6-.5-.9-.8-.8-.9.1-.1.5 0 1.1.3.3.1.7.4 1.2.6.5.2 1.1.4 1.7.7 2.6 1 6.5 2.2 11.4 2.4 4.9.2 10.8-.6 16.7-3.2 5.9-2.5 11.7-6.9 16.7-12.5 5-5.7 8.6-11.9 11.4-17.9 2.8-6 4.7-11.7 6.2-16.5 1.5-4.8 2.7-8.7 3.6-11.4.8-2.8 1.4-4.3 1.6-4.2zM781 275.7c0 .2-2.3.8-6.6 1.9-4.2 1.1-10.3 2.9-17.5 5.9-3.6 1.5-7.4 3.4-11.4 5.6-4 2.2-8.1 4.8-12 8.1-3.9 3.2-7.4 7.2-9.8 12.1-2.4 4.8-3.6 10.5-4.1 16.3-.5 5.9-.4 11.7-.5 17.3-.1 5.7-.1 11.1-.2 16.3-.1 10.4-.3 19.7-.5 27.6-.2 7.9-.4 14.2-.6 18.6-.2 4.4-.5 6.8-.7 6.8-.2 0-.4-2.4-.6-6.8-.2-4.4-.3-10.8-.4-18.6-.1-7.9-.2-17.2-.2-27.6v-16.3c0-5.6-.1-11.5.5-17.6.5-6.1 1.8-12.1 4.5-17.4 1.3-2.7 3-5.1 4.8-7.2 1.8-2.2 3.8-4 5.9-5.7 4.1-3.4 8.5-6 12.6-8.1 4.1-2.2 8.1-3.9 11.8-5.3 7.4-2.8 13.7-4.3 18-5 4.5-1 7-1.1 7-.9zM764 257.3c.2.1 0 1-.8 2.3-.9 1.3-2.5 2.9-4.8 4.3-1.2.7-2.5 1.4-3.9 2.1-1.4.7-3 1.4-4.9 1.8-1.8.4-4.1.5-6.2-.3-2.1-.8-3.8-2.3-5.2-4-1.4-1.7-2.5-3.5-3.2-5.4-.7-1.9-1.2-3.8-1.4-5.6-.4-3.7.1-7 1-9.6.9-2.6 2.1-4.5 3.1-5.7 1-1.2 1.7-1.6 1.9-1.5.4.3-1.7 2.9-2.7 7.8-.6 2.4-.7 5.4-.2 8.6.3 1.6.7 3.2 1.4 4.8.7 1.6 1.6 3.1 2.8 4.6 1.2 1.4 2.5 2.5 3.9 3.1 1.4.6 2.9.6 4.5.3 1.5-.3 3-.8 4.4-1.4 1.4-.6 2.7-1.1 3.8-1.6 2.3-1.1 3.9-2.2 5-3.1.8-1 1.3-1.7 1.5-1.5z" style="stroke:#000;stroke-miterlimit:10"></path>
  <path d="M790.2 264.4c.2.4-1.3 1.7-4 3.6-1.4.9-2.9 2-5 3.1-1 .5-2.2 1-3.5 1.3-1.3.3-2.7.3-4.1.2-2.8-.4-5.3-1.7-7.1-3.4-1.8-1.7-2.7-3.8-3.2-5.5-.5-1.7-.4-3.2-.2-4.2s.5-1.4.7-1.4c.5.1.4 2.1 1.7 4.8.6 1.3 1.6 2.8 3 4 1.4 1.2 3.4 2.1 5.5 2.4 4.3.6 8.1-2 11.1-3.3 2.9-1.4 4.9-2 5.1-1.6zM704.8 332c-.4 0-1-3.2-.9-8.6.1-5.3 1-12.8 4.2-20.4 3.2-7.6 8.2-13.5 12.4-16.8 4.2-3.4 7.4-4.5 7.6-4.1.3.4-2.5 2.2-6.1 5.8-3.6 3.6-7.9 9.2-10.9 16.4-3 7.2-4.3 14.2-4.9 19.3-.7 5.2-.9 8.4-1.4 8.4zM757.4 367.4c-.6.6-5.4-3.2-10.3-8.8-4.9-5.6-8.1-10.8-7.4-11.3.7-.6 5 3.7 9.8 9.2 4.9 5.5 8.5 10.3 7.9 10.9zM771.6 477.3c-.1.1-.4-.1-1.1-.5-.7-.4-1.6-1-2.7-1.9-2.3-1.8-5.4-4.6-8.8-8.6-1.7-2-3.4-4.3-5-6.9-1.6-2.6-3.2-5.5-4.7-8.6-2.8-6.3-5.1-13.7-5.5-21.8-.2-4 .1-8 .9-11.8.8-3.7 1.9-7.2 3.1-10.4 2.4-6.4 4.6-12.1 6.4-16.8 3.8-9.5 6.3-15.4 6.7-15.2s-1.3 6.3-4.6 16c-1.6 4.9-3.6 10.7-5.8 17-1.1 3.2-2.1 6.5-2.8 10-.7 3.5-1 7.2-.8 10.9.4 7.6 2.5 14.7 5 20.8 1.3 3.1 2.7 5.9 4.2 8.4s3.1 4.8 4.5 6.9c3 4 5.9 7 7.8 9.1 1 1 1.8 1.8 2.3 2.4.7.5 1 .9.9 1zM801.2 562.1c-.4.2-3.3-3.9-7.4-10.9-2-3.5-4.3-7.8-6.6-12.7-2.3-4.9-4.7-10.3-6.9-16.1-2.2-5.8-4-11.4-5.5-16.6-1.5-5.2-2.6-9.9-3.4-13.9-1.6-8-2.1-13-1.7-13.1 1-.2 5 19.4 13.7 42.4 8.6 23.1 18.7 40.4 17.8 40.9zM942 558.5c-.4.1-2.6-5.2-5.1-14.1-.6-2.2-1.3-4.7-1.9-7.4-.6-2.7-1.2-5.5-1.8-8.5-1.1-6-2-12.7-2.6-19.8-.6-7.1-.7-13.8-.7-20 .1-3.1.1-6 .3-8.7.1-2.7.4-5.3.6-7.6 1-9.2 2.3-14.8 2.7-14.8 1 .1-2.1 22.8.3 50.7 2.4 28 9.2 49.9 8.2 50.2zM959.7 523.3c-.4.2-1.9-2.3-3.7-6.6-1.8-4.3-3.8-10.5-5.1-17.6-1.3-7-1.7-13.5-1.5-18.2.1-4.7.7-7.5 1.1-7.5 1 0 1.1 11.4 3.7 25.2 2.4 13.7 6.4 24.4 5.5 24.7zM835.4 540.8c-.2.1-1.4-2.4-3.5-6.9-.5-1.1-1.1-2.4-1.7-3.8-.6-1.4-1.1-3-1.8-4.6-1.2-3.3-2.8-7.1-4-11.4-.7-2.1-1.4-4.4-2.1-6.7-.7-2.3-1.3-4.8-2-7.4-1.4-5.1-2.5-10.6-3.7-16.4-2.2-11.6-4-24.6-5-38.2-1-13.6-1.1-26.7-.9-38.5.2-5.9.3-11.5.7-16.8.2-2.6.3-5.2.5-7.6.2-2.4.4-4.8.6-7 .3-4.5.8-8.5 1.1-12 .4-3.5.7-6.6 1.1-9 .7-5 1.2-7.7 1.4-7.7.2 0 .2 2.8-.1 7.8-.2 2.5-.3 5.5-.5 9.1-.2 3.5-.5 7.6-.7 12-.1 2.2-.2 4.6-.3 7-.1 2.4-.2 5-.3 7.6-.2 5.2-.3 10.8-.4 16.7 0 11.8.2 24.7 1.2 38.2 1 13.5 2.7 26.3 4.7 37.9 1.2 5.8 2.1 11.3 3.4 16.3.6 2.5 1.1 5 1.8 7.3s1.3 4.6 1.9 6.7c1.1 4.3 2.5 8.1 3.5 11.5.5 1.7 1.1 3.2 1.5 4.7.5 1.4 1 2.7 1.4 3.9 1.6 4.6 2.4 7.2 2.2 7.3zM809.2 303.5c0 .4-2.2.6-5.4-.8s-6.9-4.6-9.4-9.2c-2.4-4.6-3.3-9.2-3.7-12.4-.4-3.3-.2-5.3.2-5.4.5-.1 1.1 1.8 2.1 4.9.9 3 2.1 7.2 4.3 11.3 2.2 4.1 5.2 7.1 7.7 8.8 2.4 1.7 4.3 2.3 4.2 2.8zM773.5 288.8c-.2 0-.5-.2-.7-.8-.2-.6-.2-1.7.3-2.7.5-1.1 1.3-2.1 2.3-3 .5-.5 1.1-.9 1.7-1.3.6-.4 1.2-.8 1.8-1.1 5.1-3 9.9-4 10.2-3.2.3.9-3.7 3.2-8.5 6-.6.4-1.2.7-1.8 1-.6.3-1.1.6-1.5.9-.9.6-1.7 1.2-2.2 1.8-1.1 1.2-1.1 2.3-1.6 2.4zM794.2 320.8c0 .2-.6.4-1.6.3-1-.1-2.4-.5-4-1.4-1.6-.9-3.2-2.3-4.6-4.1-1.5-1.8-2.8-3.9-4.1-6.1-2.5-4.5-4.3-8.8-5.3-12-1-3.2-1.2-5.3-.8-5.4.9-.3 4 7.2 9 15.8 1.2 2.2 2.4 4.2 3.6 5.9 1.2 1.7 2.4 3.1 3.6 4 2.2 2.1 4.2 2.5 4.2 3zM809.3 306.1c.5.8-2.4 3.7-5 7.8-2.7 4.1-4.2 7.9-5.1 7.7-.4-.1-.6-1.3-.3-3 .3-1.8 1.2-4.2 2.7-6.5 1.5-2.3 3.4-4.1 4.9-5.1 1.4-1 2.6-1.3 2.8-.9zM836 320.3c.1.2-.2.5-.9.7-.7.2-1.8.1-2.8-.4-1.1-.5-2.2-1.3-3.2-2.3-1-1-2-2.1-3-3.3-4.1-4.8-6.5-9.3-5.7-9.9.7-.5 4.3 3.1 8.2 7.8 1 1.2 1.9 2.3 2.7 3.4.8 1 1.5 1.8 2.2 2.4.7.6 1.2.9 1.7 1.1.4.2.7.3.8.5zM850 283.7c.3.4-1 1.9-3 4.3-1 1.3-2.2 2.7-3.5 4.4-1.3 1.7-2.8 3.5-4.6 5.3-1.8 1.8-3.8 3.3-5.7 4.4-2 1.1-4 1.8-5.7 2.1-.9.1-1.6.2-2.2.2-.6.1-1 .1-1.4.2-.7.2-1 .6-1.2.6-.1 0-.2-.2-.2-.5s.2-.7.6-1.1c.4-.4 1-.7 1.6-1 .7-.3 1.4-.4 2.1-.7 1.4-.5 3-1.3 4.7-2.4 1.6-1.1 3.3-2.5 5-4.2 3.3-3.3 6.2-6.8 8.7-9 2.7-2.1 4.6-3 4.8-2.6zM884.2 292.1c-.4.3-1.7-1.2-4.5-2.1-1.4-.5-3.1-.8-5-1-2-.2-4.1-.1-6.5.1-9.4.7-16.7 3.3-17.1 2.4-.2-.4 1.5-1.6 4.5-2.8 3-1.2 7.4-2.5 12.4-2.8 2.5-.2 4.9-.2 7.1.2 2.2.3 4.2 1 5.7 1.9 1.5.9 2.5 1.9 3 2.7.4.7.5 1.3.4 1.4zM884.8 310c-.4.3-1.9-1.2-5.1-1.9-1.6-.4-3.6-.6-5.8-.6-2.2 0-4.7.1-7.3.4-6.7.7-12.3 2.4-15.6 3.4l-.8-1.6c1.8-.7 3-1 3.1-.8.2.3-.7 1.1-2.2 2.3l-.8-1.6c3-1.8 8.9-4.3 16-5 2.8-.3 5.4-.3 7.8-.1 2.4.2 4.6.7 6.4 1.5 1.8.8 3 1.8 3.7 2.6.5.7.7 1.3.6 1.4zM696 613.6c0 .4-2.1.9-5.6.5-.4-.1-.9-.1-1.4-.2-.5-.1-.9-.2-1.4-.3-1-.2-2-.6-3.1-1-2.1-.9-4.4-2.1-6.5-3.7-2.1-1.6-3.9-3.5-5.3-5.3-.7-.9-1.3-1.8-1.8-2.7-.2-.4-.5-.9-.7-1.3-.2-.4-.4-.9-.6-1.2-1.3-3.2-1.4-5.4-1-5.5.5-.1 1.3 1.7 3 4.4.2.3.4.7.7 1 .2.4.5.7.8 1.1.5.8 1.2 1.5 1.9 2.3 1.4 1.5 3.1 3.1 5 4.6 1.9 1.4 3.9 2.6 5.8 3.5 1 .4 1.8.9 2.7 1.2.4.2.9.3 1.3.5.4.1.8.3 1.2.4 3 .9 5 1.2 5 1.7zM669.1 586.8c-.2-.1.7-2.3 2.4-6.3s4.4-9.7 7.6-16.7c6.4-14.1 15.2-33.6 22.9-55.8 3.8-11.1 6.8-21.9 9.1-31.8 1-5 2.1-9.7 2.7-14.2.3-2.2.7-4.4 1-6.5.2-2.1.5-4.1.7-6 .5-3.8.7-7.3.9-10.4.1-1.5.2-3 .3-4.3 0-1.3.1-2.5.1-3.6.1-4.3.3-6.7.5-6.7s.5 2.4.7 6.7c.1 1.1.1 2.3.2 3.6v4.3c-.1 3.1 0 6.6-.4 10.5-.2 1.9-.3 4-.5 6.1-.2 2.1-.6 4.3-.9 6.6-.5 4.6-1.5 9.4-2.5 14.4-2.2 10.1-5.2 21-9 32.3-7.8 22.5-17 41.9-23.9 55.7-3.5 6.9-6.4 12.5-8.5 16.3-2 3.9-3.2 5.9-3.4 5.8zM693.9 603.8c-.2.4-1.6.1-3.6-.8-2-1-4.6-2.8-7-5.3-2.4-2.5-4-5.2-4.9-7.3-.9-2.1-1-3.5-.6-3.7.9-.4 3.5 4.1 7.9 8.7 4.3 4.7 8.6 7.6 8.2 8.4z" style="stroke:#000;stroke-miterlimit:10"></path>
  <path d="M768.7 485.1c.2 0 0 2.1-.9 5.8-.9 3.7-2.7 8.9-5.6 15-2.8 6.1-6.8 13.1-11.3 20.8-4.5 7.7-9.5 16-14.8 24.8-10.7 17.5-20.8 33-28.3 44.2-7.5 11.1-12.4 17.8-12.8 17.6-.4-.3 3.8-7.4 10.9-18.8 7-11.4 16.7-27.2 27.5-44.6 5.3-8.7 10.4-17 15-24.6 4.6-7.6 8.7-14.4 11.8-20.3 6.1-11.9 8-20 8.5-19.9zM602.7 642.2c-.1.4-1.6.6-3.9.2-2.3-.5-5.5-1.7-8.5-4-2.9-2.3-5-5-6-7.2-.3-.6-.5-1-.6-1.5-.2-.6-.2-1.2.2-1.5.3-.3.7-.2.9 0 .2.2.4.3.5.3.1 0 .1-.1.1-.2s-.2-.1-.3.1c-.1.2.1.5.3.6.2.3.6.7.9 1.1 1.4 1.7 3.4 3.9 6 5.9 5.2 3.9 10.5 5.3 10.4 6.2zM625.5 626.4c.1.4-2.3 1.2-6.3 1-2-.1-4.3-.4-6.8-.8-2.5-.5-5.2-1.1-8-1.6s-5.4-.8-7.8-.9c-2.4 0-4.5.2-6.2.6-3.5.8-5.4 2.2-5.7 1.8-.1-.2.2-.7 1-1.5s2.2-1.7 4.1-2.5c1.9-.8 4.3-1.3 6.9-1.4 2.6-.1 5.5.1 8.4.7 2.9.6 5.6 1.3 8 1.9 2.4.6 4.6 1.1 6.4 1.5 3.6.6 6 .7 6 1.2z" style="stroke:#000;stroke-miterlimit:10"></path>
  <ellipse cx="587" cy="615.8" rx="12.6" ry="1.6" style="stroke:#000;stroke-miterlimit:10" transform="rotate(33.259 587.055 615.833)"></ellipse>
  <path d="M621.7 612.4c-.2.4-2.8-.6-6.7-2.2-2-.8-4.4-1.7-7-2.4-2.7-.7-5.6-1.1-8.8-1-3.3.1-6.4.2-9.3.3-2.9.1-5.4.2-7.6.3-4.3.2-7 .5-7.1.1-.1-.4 2.4-1.5 6.8-2.4 2.2-.4 4.8-.8 7.7-1 2.9-.2 6-.5 9.4-.6 3.4-.1 6.9.4 9.7 1.4 2.9.9 5.3 2.1 7.2 3.2 3.8 2.2 5.9 3.9 5.7 4.3z" style="stroke:#000;stroke-miterlimit:10"></path>
  <path d="M630.2 603c-.3.9-10.7-2.8-24-4.6-3.3-.4-6.5-.8-9.2-.7-2.8.1-5.2.7-7 1.6-1.8.9-3.1 2-3.9 2.9-.8.9-1.2 1.5-1.4 1.4-.2-.1-.2-.8.3-2.1.6-1.2 1.8-2.9 3.8-4.2 2-1.4 4.9-2.3 8-2.6 3.1-.3 6.5.1 9.9.5 6.9.9 12.9 2.7 17.1 4.3 4.1 1.6 6.5 3.1 6.4 3.5zM628.8 594.9c-.1.4-1.8.4-4.4 0-2.6-.4-6.1-1-9.9-1.5-1.9-.2-3.7-.3-5.4-.4-1.6 0-3.1 0-4.4.1-2.5.2-4.1.4-4.3 0-.2-.4 1.2-1.4 3.9-2.3 1.3-.4 2.9-.7 4.7-.9 1.8-.1 3.8-.1 5.8.2 4.1.5 7.6 1.6 10.1 2.5 2.6 1 4 1.9 3.9 2.3z" style="stroke:#000;stroke-miterlimit:10"></path>
  <path d="M660.9 597.7c-.3.4-2.5-.8-6.4-1.8-1.9-.5-4.3-1-7-1.4-2.7-.4-5.7-.9-8.8-1.4-3.1-.5-6.1-1.1-8.7-1.6-2.7-.5-5-.8-7-.9-4-.2-6.5.4-6.6-.1-.2-.4 2.2-1.8 6.6-2.2 2.2-.2 4.7-.1 7.5.2 2.8.3 5.7.8 8.9 1.4 3.1.5 6.1 1.1 8.8 1.7 2.7.6 5.2 1.3 7.1 2.2 3.9 1.6 5.8 3.6 5.6 3.9zM658.5 603.9c-.7-.6 2.6-5 5.8-10.8 3.2-5.7 5.2-10.8 6.2-10.5.4.1.5 1.6 0 3.8-.5 2.2-1.6 5.3-3.3 8.3-1.7 3.1-3.7 5.5-5.4 7.1-1.7 1.7-3 2.4-3.3 2.1zM687.8 613.9c.2.1 0 1.6-.8 4.2s-2.4 6.4-5.1 10.6c-2.7 4.2-6.6 8.8-12 12.7-5.3 4-12.1 7.2-19.6 8.8-7.5 1.6-15 1.4-21.5 0s-11.9-3.5-16.5-5-8.4-2.4-11-2.9c-2.6-.5-4.2-.6-4.2-.9 0-.2 1.5-.5 4.3-.4 2.8.1 6.8.7 11.5 2 4.8 1.2 10.3 3 16.5 4.2 6.1 1.2 13.1 1.3 20.2-.2 7-1.5 13.4-4.4 18.5-8.1 5.1-3.6 9-7.8 11.8-11.6 2.8-3.9 4.6-7.3 5.8-9.7 1.3-2.3 1.9-3.7 2.1-3.7zM801.8 575.5c-.2.4-1.3.3-2.4-.8-.6-.5-1.1-1.3-1.6-2.3-.4-1-.6-2.1-.7-3.3 0-1.2.3-2.3.7-3.3.4-.9 1-1.7 1.6-2.2 1.2-1.1 2.2-1.1 2.5-.8.3.4-.2 1.1-.6 2.2-.2.5-.4 1.1-.6 1.8-.1.7-.3 1.5-.3 2.3 0 .8.1 1.6.2 2.3.2.7.3 1.3.6 1.8.4 1.1.8 1.9.6 2.3z" style="stroke:#000;stroke-miterlimit:10"></path>
  <path d="M777.3 593.2c-.4-.2-.1-2 1.2-4.7.6-1.3 1.5-2.8 2.7-4.4 1.2-1.6 2.6-3.2 4.2-4.8 1.7-1.5 3.4-2.8 5-3.9 1.7-1 3.2-1.8 4.6-2.4 2.7-1.1 4.6-1.3 4.7-.9.3.9-6 3.7-12.1 9.5-6.2 5.8-9.4 12-10.3 11.6zM837.4 582.3c.1.4-2.8 1.7-7.7 3.5-4.9 1.7-11.7 3.9-19.4 5.8-7.7 1.9-14.8 3.1-20 3.6-5.2.5-8.4.4-8.5-.1 0-.5 3.1-1.2 8.1-2.2 5-1.1 12-2.6 19.6-4.5 7.6-1.9 14.5-3.7 19.6-4.9 5-1.1 8.2-1.6 8.3-1.2zM912.8 622.2c.1.1-.5 1.3-2.4 2.7-1.9 1.4-5 3.1-9.3 3.6-4.2.6-9.4-.1-14.6-2.1-2.6-1-5.2-2.2-7.8-3.6-2.6-1.4-5.2-2.9-7.9-4.6-10.6-6.7-19.2-14.1-24.9-20.1-2.8-3-4.8-5.8-5.8-7.9-1-2.1-1.3-3.4-1.1-3.5.2-.1.8 1 2.2 2.8 1.3 1.8 3.4 4.2 6.3 6.9 5.9 5.4 14.6 12.4 25 18.9 5.2 3.2 10.3 6.2 15.1 8.2 4.8 2 9.4 2.9 13.3 2.6 3.9-.2 6.9-1.4 8.8-2.4 1.9-.8 2.9-1.6 3.1-1.5z" style="stroke:#000;stroke-miterlimit:10"></path>
  <path d="M958.3 575.3c.5.9-13.2 9-26.7 23-13.6 13.9-21.3 27.8-22.2 27.3-.4-.2 1.1-3.9 4.4-9.5.8-1.4 1.8-2.9 2.8-4.5 1-1.6 2.3-3.2 3.5-5 2.6-3.4 5.7-7 9.1-10.6 3.5-3.5 7-6.7 10.3-9.4 1.7-1.3 3.3-2.6 4.9-3.7 1.5-1.1 3-2.1 4.4-3 5.6-3.4 9.3-4.9 9.5-4.6zM947.1 564.5c-.4-.2-.2-1.3.2-2.6.2-.7.4-1.5.5-2.3.1-.4.1-.8 0-1.2v-.5c0-.2-.1-.3-.2-.5-.3-.7-.8-1.3-1.3-1.6-.2-.2-.5-.3-.7-.3h-.5c-.1 0-.2 0-.3.1-.4.1-.8.2-1.2.2h-.6c-.2 0-.4-.1-.5-.2-.5-.3-.4-.9-.3-1.1.1-.2.1 0 .5-.2.2-.1.6-.4 1.2-.8l.2-.2c.1-.1.3-.1.4-.2.3-.1.6-.2.9-.2.7-.1 1.4 0 2.1.3 1.3.5 2.4 1.6 3 3.1.2.4.3.7.3 1.1l.1.6v.5c0 .7-.1 1.3-.3 1.9-.4 1.1-.9 2-1.4 2.7-.9 1.1-1.8 1.6-2.1 1.4z" style="stroke:#000;stroke-miterlimit:10"></path>
  <path d="M956 578.3c-.3-.4.4-1.3 1-2.9.6-1.5 1.1-3.8.5-6-.6-2.2-2.1-4-3.4-5-1.3-1.1-2.3-1.6-2.3-2 0-.4 1.4-.7 3.4 0 1 .4 2.1 1.1 3.1 2.1s1.9 2.4 2.3 4.1c.4 1.7.3 3.3 0 4.7-.4 1.4-1 2.5-1.7 3.4-1.3 1.5-2.6 1.9-2.9 1.6zM679.2 689.5c-.2-.1.5-1.9 2-5.2.4-.8.8-1.7 1.3-2.7.5-1 1.1-2 1.7-3.1 1.2-2.2 2.6-4.8 4.4-7.5l2.7-4.2c1-1.5 2.1-2.9 3.2-4.5 2.1-3.1 4.7-6.2 7.4-9.5 5.5-6.5 11.8-13.3 18.9-20.1 14.3-13.4 28.5-24 38.9-31.4 10.4-7.4 17.1-11.6 17.4-11.2.3.4-5.9 5.2-16 13.1-10 7.8-23.9 18.7-38 31.9-7 6.7-13.4 13.3-18.9 19.6-2.7 3.2-5.3 6.2-7.5 9.2-1.1 1.5-2.3 2.9-3.3 4.3s-1.9 2.8-2.9 4.1c-1.9 2.6-3.4 5-4.7 7.1-.7 1.1-1.3 2-1.9 3-.5.9-1 1.8-1.5 2.5-1.9 3-3 4.7-3.2 4.6zM845.9 779.8c-.1 0-.4-.6-1-1.8-.3-.6-.6-1.3-.9-2.2-.4-.8-.9-1.8-1.4-2.9-2.2-4.3-5.8-10.4-11.8-16.6-5.9-6.3-14-12.8-23.8-18.8-4.9-3-10.1-5.9-15.7-8.8-5.6-2.9-11.4-5.7-17.5-8.5-12.1-5.4-23.9-10-34.9-13.7-10.9-3.7-20.9-6.5-29.4-8.7-8.4-2.2-15.4-3.6-20.1-4.7-4.8-1-7.4-1.6-7.4-1.9 0-.2 2.7 0 7.6.6 4.9.7 11.9 1.8 20.5 3.7 8.6 1.9 18.7 4.5 29.8 8.1 11.1 3.6 23 8.1 35.3 13.6 6.1 2.8 12 5.6 17.6 8.6 5.6 2.9 10.9 5.9 15.9 9.1 9.9 6.2 18 13.1 23.9 19.8 5.9 6.6 9.4 13.1 11.3 17.6.4 1.2.9 2.2 1.2 3.1.3.9.5 1.7.6 2.3.2 1.4.3 2.1.2 2.1zM627.7 793.6c-.4-.1 1.3-6.4 4.9-16.1.9-2.4 1.9-5.1 3.1-7.9 1.1-2.8 2.5-5.8 3.9-9 2.9-6.3 6.2-13.1 10-20.1 3.8-7 7.8-13.5 11.5-19.3 1.9-2.9 3.7-5.6 5.5-8.1 1.7-2.5 3.4-4.8 5-6.9 6.3-8.3 10.6-13.1 10.9-12.9.4.3-3.3 5.6-9.1 14.2-1.4 2.2-3 4.5-4.6 7.1-1.7 2.5-3.4 5.3-5.2 8.2-3.6 5.8-7.4 12.3-11.2 19.2-3.8 6.9-7.2 13.6-10.2 19.8-1.5 3.1-2.9 6-4.1 8.8-1.3 2.8-2.4 5.4-3.5 7.7-4 9.5-6.4 15.4-6.9 15.3zM664 831.9c-.2-.1.3-1.6 1.4-4.3.3-.7.6-1.4.9-2.2.4-.8.8-1.7 1.3-2.6.9-1.8 1.9-4 3.2-6.2.6-1.1 1.3-2.3 2-3.5.7-1.2 1.5-2.4 2.3-3.7 1.6-2.6 3.5-5.2 5.5-8.1 4.1-5.5 8.9-11.4 14.4-17.1 5.6-5.7 11.3-10.6 16.7-14.9 2.8-2.1 5.3-4 7.9-5.7 1.3-.8 2.5-1.7 3.7-2.4 1.2-.7 2.4-1.4 3.5-2.1 2.2-1.4 4.3-2.4 6.1-3.4.9-.5 1.8-.9 2.5-1.3.8-.4 1.5-.7 2.2-1 2.6-1.2 4.2-1.7 4.3-1.5.2.5-5.4 3.5-13.9 9.2-1.1.7-2.2 1.5-3.3 2.3-1.1.8-2.3 1.7-3.5 2.6-2.5 1.7-4.9 3.8-7.6 5.8-5.2 4.3-10.7 9.2-16.2 14.8-5.4 5.6-10.2 11.3-14.3 16.6-2 2.7-4 5.2-5.6 7.8-.8 1.2-1.7 2.4-2.5 3.6-.8 1.2-1.5 2.3-2.2 3.4-5.5 8.4-8.4 14.1-8.8 13.9zM537.3 968.6c-.2 0-.1-2.8.2-7.7.1-1.2.2-2.6.3-4.1.2-1.5.4-3.1.6-4.9.5-3.5.9-7.5 1.8-11.8.4-2.2.8-4.5 1.3-6.9.5-2.4 1.1-4.8 1.7-7.4 1.1-5.1 2.7-10.5 4.3-16.1 3.5-11.2 8-23.4 13.6-35.7 5.8-12.3 12.2-23.5 18.5-33.4 3.3-4.9 6.3-9.5 9.5-13.7 1.6-2.1 3-4.1 4.5-6 1.5-1.9 3-3.7 4.4-5.4 2.8-3.5 5.5-6.4 7.9-9 1.2-1.3 2.3-2.5 3.3-3.6 1.1-1.1 2.1-2 2.9-2.9 3.6-3.5 5.6-5.3 5.8-5.1.2.2-1.6 2.3-4.8 6-.8.9-1.7 1.9-2.7 3.1-1 1.2-2 2.4-3.1 3.8-2.2 2.7-4.8 5.7-7.5 9.2-1.3 1.7-2.7 3.6-4.2 5.5s-2.8 4-4.4 6.1c-3.1 4.2-6 8.8-9.2 13.7-6.1 9.9-12.4 21-18.1 33.2-5.6 12.2-10.1 24.2-13.7 35.2-1.7 5.6-3.4 10.8-4.6 15.9-.6 2.5-1.3 4.9-1.8 7.3-.5 2.3-1 4.6-1.5 6.8-1 4.3-1.6 8.2-2.3 11.7-.3 1.7-.6 3.3-.9 4.8-.2 1.5-.4 2.8-.6 4.1-.4 4.6-1 7.3-1.2 7.3zM578.5 979c-.2 0-.4-2.3.1-6.5.6-4.2 2.1-10.1 5.3-16.9 6.4-13.6 18.3-30.4 31.9-48.5 6.7-9.1 13.1-17.7 18.5-25.8 5.4-8.1 9.8-15.7 13.1-22.2 6.6-13.2 8.9-22.1 9.4-21.9.2.1-.2 2.3-1.3 6.4-.1.5-.3 1-.4 1.6-.2.5-.4 1.1-.6 1.7-.4 1.2-.8 2.5-1.3 3.9-.4 1.4-1.1 2.9-1.7 4.4-.7 1.5-1.3 3.2-2.1 4.9-3.1 6.8-7.4 14.6-12.7 22.9-5.3 8.3-11.6 17.1-18.4 26.1-6.8 9.1-13.2 17.7-18.8 25.7-5.6 8-10.3 15.4-13.7 21.9-3.4 6.5-5.2 12.1-6.2 16.1-.6 3.9-.8 6.2-1.1 6.2zM509.2 1108.8c0 .1-.6-.1-1.4-.7-.8-.6-1.8-1.8-2.6-3.5s-1.4-4-1.9-6.5c-.2-1.3-.5-2.7-.7-4.1-.2-1.5-.6-3-.7-4.6-.4-3.3-.9-6.8-1-10.7-.1-1-.1-1.9-.2-2.9 0-.5-.1-1-.1-1.5v-7.9c.2-8.7 1.2-18.3 3.2-28.1 2-9.9 4.7-19.1 8-27.1 3.2-8.1 6.7-15.2 10-20.8.8-1.4 1.6-2.8 2.4-4 .8-1.2 1.6-2.4 2.3-3.5.7-1.1 1.4-2.1 2-3 .6-.9 1.3-1.7 1.8-2.4 2.3-2.9 3.6-4.4 3.8-4.3.5.3-4.3 6.9-10.3 18.4-3.1 5.7-6.2 12.8-9.2 20.8-3 8-5.7 17.1-7.6 26.7-1.9 9.7-3 19-3.4 27.6 0 2.1-.1 4.2-.1 6.2v3c0 1 .1 1.9.1 2.9 0 3.8.4 7.3.6 10.6.1 1.6.3 3.1.5 4.6.2 1.5.3 2.8.5 4.1.3 2.6.7 4.7 1.3 6.3 1 3.1 2.9 4.2 2.7 4.4zM522.7 1105.4c-.1-.2 1.6-1.2 4.1-3.6 1.3-1.2 2.7-2.7 4.3-4.6 1.5-1.9 3.2-4.2 4.9-6.8 3.4-5.3 7.5-11.6 12.1-18.5 4.5-7 9.3-14.7 13.9-23.1 4.6-8.4 8.4-16.6 11.2-24.4 2.9-7.7 4.8-14.9 6-21.1 1.2-6.1 1.7-11.2 2-14.7.1-1.8.2-3.1.3-4 .1-.9.2-1.4.3-1.4.1 0 .2.5.4 1.4.1.9.3 2.3.3 4.1.1 3.6 0 8.7-1 15-.9 6.3-2.7 13.7-5.4 21.7-2.8 8-6.6 16.4-11.2 24.9s-9.6 16.3-14.2 23.2c-4.7 6.9-9 13.1-12.7 18.2-1.9 2.6-3.7 4.8-5.4 6.7-1.7 1.9-3.4 3.3-4.9 4.4-3 2.2-5 2.8-5 2.6z" style="stroke:#000;stroke-miterlimit:10"></path>
  <path d="M528.5 1066.9c-.2.1-1.2-.7-2.4-2.7s-2.4-5.1-3.1-9.1c-1.3-8-2-19-1.3-31.2s2.8-23.1 4.8-30.8c2.1-7.7 4-12.3 4.4-12.2.5.1-.7 4.9-2.1 12.7-1.4 7.8-3.2 18.5-3.8 30.5-.7 12-.4 22.9.3 30.7.4 3.9 1.2 6.9 2 8.9s1.4 3.1 1.2 3.2z" style="stroke:#000;stroke-miterlimit:10"></path>
  <path d="M526.9 1055.2c-.1-.2.9-1.1 2.7-2.7 1.8-1.6 4.3-3.9 7-7.2 2.7-3.3 5.7-7.4 8.6-12.2 2.9-4.8 5.9-10.3 9-16.1 6.3-11.6 12.2-21.9 16.6-29.4 4.4-7.4 7.3-11.9 7.7-11.7.4.2-1.8 5.1-5.7 12.8-3.9 7.7-9.4 18.3-15.7 29.8-3.2 5.8-6.2 11.3-9.3 16.1-3.1 4.9-6.4 9-9.4 12.1-3 3.2-5.9 5.4-8 6.7-1 .7-1.9 1.1-2.5 1.4-.6.4-.9.5-1 .4zM727.8 803.4c-.2 0-.5-1.3-.8-3.8-.2-2.5-.3-6 .2-10.4s1.6-9.6 3.5-15.1 4.5-11.4 7.7-17.3 6.7-11.2 9.9-16c3.2-4.8 6.2-9 8.7-12.5 5-7.1 8.1-11.5 8.5-11.2.4.2-2 5.1-6.6 12.5-2.3 3.7-5.1 8.1-8.1 12.9-3.1 4.8-6.4 10.2-9.5 15.9-3.1 5.8-5.8 11.4-7.7 16.7-2 5.3-3.3 10.2-4 14.5-1.6 8.4-1.2 13.8-1.8 13.8zM778.1 832.6c-.3-.2 2.2-4.3 7-10.3 1.2-1.5 2.6-3.1 4.1-4.8 1.5-1.7 3.2-3.5 4.9-5.3 3.6-3.6 7.7-7.5 12.2-11.3 4.5-3.8 9-7.2 13.2-10.1 2.1-1.4 4.1-2.8 6.1-4 1.9-1.2 3.7-2.3 5.4-3.2 6.7-3.8 11.2-5.5 11.4-5.2.5.9-16.3 9.9-34 24.9-17.8 15-29.5 29.9-30.3 29.3z" style="stroke:#000;stroke-miterlimit:10"></path>
  <path d="M823.7 1009.8c-.2.1-1.3-2.5-3.2-7.1-.5-1.2-.9-2.5-1.4-3.9-.5-1.4-1-3-1.6-4.7-.6-1.7-1.1-3.5-1.6-5.5-.5-1.9-1.2-4-1.7-6.2-2.2-8.7-4.2-19.2-5.9-30.9-1.6-11.7-2.8-24.7-3.7-38.3-.9-13.6-1.4-26.5-2-38.3-.6-11.8-1-22.4-2.5-31-1.5-8.7-4-15.4-6.5-19.7-2.4-4.3-4.3-6.3-4.1-6.5.1-.1.6.4 1.5 1.3.5.5 1 1.1 1.6 1.8.3.4.6.8 1 1.2.3.5.7 1 1 1.5 2.9 4.2 5.9 11 7.7 19.9 1.9 8.9 2.5 19.5 3.3 31.3.7 11.8 1.5 24.7 2.3 38.3.9 13.6 2 26.4 3.5 38.1 1.5 11.7 3.3 22.1 5.2 30.7 3.8 17.5 7.7 27.8 7.1 28zM793 1016.9c-.2.1-1.6-2.4-4-7.1-.6-1.2-1.3-2.5-2-3.9s-1.4-3-2.3-4.7c-1.6-3.4-3.5-7.2-5.4-11.5-1-2.1-2-4.4-3-6.7s-2.1-4.8-3.1-7.4c-2.2-5.1-4.4-10.6-6.7-16.4-4.5-11.6-9.2-24.5-13.7-38.1-4.4-13.7-8.3-26.8-11.5-38.8-1.6-6-3.1-11.7-4.3-17.1-.6-2.7-1.3-5.3-1.8-7.8s-1.1-4.9-1.6-7.2c-1-4.6-1.8-8.8-2.5-12.5-.3-1.8-.7-3.5-1-5.1-.3-1.6-.5-3-.7-4.3-.8-5.2-1.2-8.1-1-8.1.2 0 1 2.8 2.2 7.9.3 1.3.6 2.7 1 4.3.4 1.6.8 3.2 1.2 5.1.9 3.6 1.8 7.8 3 12.3.6 2.3 1.1 4.7 1.8 7.2.6 2.5 1.3 5.1 2 7.7 1.3 5.3 2.9 11 4.6 17 3.4 11.9 7.3 25 11.7 38.6 4.5 13.6 9.1 26.4 13.4 38 2.2 5.8 4.3 11.3 6.4 16.4 1 2.6 2 5 3 7.4 1 2.4 1.9 4.6 2.8 6.8 1.8 4.4 3.5 8.2 4.9 11.7.7 1.7 1.4 3.3 2 4.8.6 1.5 1.2 2.8 1.7 4 2.1 4.7 3.1 7.4 2.9 7.5zM753.5 1107.9c-.4-.1.3-5.4 2.3-13.7 1-4.2 2.3-9.1 4-14.5 1.7-5.4 3.7-11.3 6-17.4 2.4-6.1 4.8-11.8 7.2-17 2.4-5.1 4.7-9.7 6.8-13.4 4.1-7.5 7.1-11.9 7.5-11.7.9.5-9.2 19-18.5 43.2-9.4 24.3-14.3 44.8-15.3 44.5zM836 1054.6c-.4.1-1.2-2.3-2.2-6.2-1-3.9-2.1-9.3-3.7-15.1-.8-2.9-1.6-5.7-2.4-8.1-.8-2.5-1.6-4.7-2.4-6.5-1.5-3.7-2.5-5.9-2.1-6.2.3-.2 2.1 1.6 4.2 5.2 1 1.8 2.1 4 3.1 6.5s1.9 5.3 2.7 8.3c1.6 6 2.4 11.6 2.8 15.6.4 3.9.4 6.4 0 6.5zM766.2 1100.7c-.1-.2 1-1.1 3.1-2.7.5-.4 1.1-.8 1.8-1.3.6-.5 1.3-1 2-1.6 1.5-1.1 3.2-2.4 4.9-3.9.9-.7 1.8-1.5 2.8-2.3 1-.8 1.9-1.7 2.9-2.7 2-1.8 4-3.9 6.2-6.1 4.2-4.5 8.5-9.6 12.6-15.4 4-5.8 7.3-11.7 10.1-17.2 1.3-2.8 2.6-5.4 3.6-7.9.5-1.3 1.1-2.5 1.5-3.7.4-1.2.8-2.3 1.2-3.4.8-2.2 1.4-4.2 2-6 .3-.9.5-1.7.8-2.5.2-.8.4-1.5.6-2.1.7-2.5 1.2-3.9 1.4-3.9.2 0 .1 1.5-.2 4.1-.1.7-.2 1.4-.3 2.2-.1.8-.3 1.6-.5 2.6-.4 1.8-.8 3.9-1.5 6.2-.3 1.1-.7 2.3-1 3.6-.4 1.2-.9 2.5-1.3 3.8-.9 2.6-2.1 5.4-3.4 8.2-2.7 5.7-6 11.8-10.1 17.7-4.2 5.9-8.7 11.2-13.1 15.7-2.3 2.2-4.4 4.3-6.6 6-1.1.9-2.1 1.8-3.1 2.6s-2 1.5-3 2.2c-1.9 1.5-3.7 2.6-5.3 3.6-.8.5-1.5 1-2.2 1.4-.7.4-1.4.7-1.9 1-2.5 1.4-3.9 2-4 1.8z" style="stroke:#000;stroke-miterlimit:10"></path>
  <path d="M750.5 1138.2c-.9.1-2.4-7.9-1.7-17.8.3-4.9 1.1-9.4 1.9-12.5.2-.8.4-1.5.6-2.1.1-.3.2-.7.4-1 .2-.3.5-.5.8-.7.6-.2 1 .1 1.1.4.1.3 0 .6.2.7 0 0 .2 0 .1-.2 0-.1-.3-.3-.5-.1-.1.1-.2.3-.2.4v.7c0 .6-.1 1.4-.1 2.2-.2 3.2-.6 7.5-.9 12.4-.8 9.7-.8 17.6-1.7 17.6z" style="stroke:#000;stroke-miterlimit:10"></path>
  <path d="M836.8 1055.3c.4.1-1.5 6.8-7.5 15.9-3 4.6-6.9 9.8-11.5 15.3s-9.6 11.5-15.3 17.6c-5.7 6.1-11.8 11.3-17.7 15.4-5.9 4.2-11.7 7.3-16.6 9.6-5 2.3-9.1 3.7-12.1 4.6-2.9.9-4.6 1.1-4.7.9-.1-.2 1.5-.9 4.2-2.1 2.8-1.2 6.7-3 11.5-5.5 4.7-2.5 10.2-5.8 15.9-10 5.7-4.2 11.5-9.3 17.1-15.2 5.6-5.9 10.7-11.9 15.4-17.3 4.7-5.4 8.7-10.3 11.9-14.6 6.3-8.6 8.9-14.8 9.4-14.6zM964 696.8c-.2-.1.2-1.8 1-4.7.2-.7.5-1.6.7-2.5.2-.9.5-1.9.8-3 .5-2.1 1.3-4.5 1.8-7.2.3-1.3.6-2.8.9-4.2.3-1.5.5-3 .8-4.6.6-3.2.9-6.6 1.4-10.2.7-7.2 1-15.2.6-23.6-.5-8.4-1.6-16.3-3-23.4-.8-3.5-1.5-6.9-2.4-10-.4-1.6-.8-3.1-1.3-4.5s-.9-2.8-1.3-4.1c-.8-2.6-1.8-4.9-2.5-7-.4-1-.7-2-1.1-2.9-.4-.9-.7-1.7-1-2.4-1.2-2.9-1.7-4.5-1.5-4.6s1.1 1.3 2.7 4.1c.4.7.8 1.4 1.3 2.3.4.8.9 1.8 1.3 2.8.9 2 2 4.3 3 6.9.5 1.3 1 2.7 1.6 4.1.5 1.4 1 3 1.5 4.5 1.1 3.1 1.9 6.6 2.8 10.2 1.6 7.2 2.8 15.3 3.3 23.9.4 8.6 0 16.7-.9 24.1-.5 3.7-1 7.2-1.7 10.4-.3 1.6-.6 3.2-1 4.7s-.8 2.9-1.1 4.2c-.7 2.7-1.6 5.1-2.3 7.2-.4 1-.7 2-1 2.9-.4.9-.7 1.7-1 2.4-1.4 2.8-2.2 4.3-2.4 4.2z" style="stroke:#000;stroke-miterlimit:10"></path>
  <path d="M969.5 691.1c.2.1-.8 2-2.9 5.3-2.1 3.3-5.3 7.8-9.8 13.1-4.5 5.3-10.3 11.2-17.2 17.2-6.9 6-15 12-23.9 17.8-17.8 11.4-35.1 19.6-47.7 25.2-6.3 2.8-11.4 5-15 6.4-3.6 1.4-5.6 2.1-5.7 1.9-.2-.4 7.4-4.3 19.7-10.4 12.3-6.2 29.3-14.6 46.9-25.9 8.8-5.7 16.8-11.5 23.7-17.3 6.9-5.8 12.8-11.4 17.5-16.4 9.3-10 14-17.2 14.4-16.9zM939.6 570.8c.3.2-1.2 3.1-4.6 7.2-3.3 4-8.7 9.1-15.5 13.4-6.8 4.3-13.6 7-18.7 8.3-.6.2-1.2.3-1.8.5-.3.1-.6.1-.9.2-.3 0-.6.1-.9.1-1.2 0-2.2-.2-2.9-.6-.8-.4-1.2-1.2-1.2-1.6 0-.5.1-.7.2-.7.2-.1.3.9 1.5 1.1.6.1 1.4.1 2.3 0 .2 0 .4-.1.7-.2.2-.1.4-.2.7-.3.5-.2 1.1-.4 1.7-.7 4.8-1.8 11.2-4.7 17.7-8.9s11.9-8.7 15.6-12.2c3.6-3.5 5.8-5.9 6.1-5.6zM838.9 203.8c.2.1 0 1.4-1.2 3.5-1.1 2.1-3.3 4.8-6.6 7.5-1.6 1.4-3.4 2.7-5.4 4.1-2 1.4-4.1 2.9-6.5 4.4-4.7 2.9-10.3 5.8-16.8 7-3.2.6-6.5.8-9.6.5-1.6-.2-3.1-.5-4.5-.9-1.5-.4-3.1-1.1-4.3-2.6-1.1-1.5-1.3-2.9-1.8-3.8-.5-.9-1.2-1.6-2.1-2.1-1.7-1-3.7-1-5.3-.3-1.6.8-2.7 2.1-3.2 3.4-.5 1.3-.4 2.6-.1 3.6.3 1 .8 1.6 1.2 2 .4.4.7.6.7.7 0 .1-.4.1-1-.1-.6-.3-1.5-.9-2.1-2.1-.6-1.1-1-2.8-.5-4.6.5-1.8 1.7-3.7 3.8-4.9 1-.6 2.3-1 3.7-1 1.3 0 2.7.3 4 .9 1.3.6 2.4 1.7 3.3 3 .8 1.4 1.1 2.7 1.7 3.3 1.1 1.3 4.2 1.9 6.9 2.2 2.8.3 5.7.1 8.7-.5 5.9-1.1 11.2-3.7 15.8-6.4 2.3-1.3 4.5-2.7 6.5-4 2-1.3 3.9-2.5 5.5-3.7 3.3-2.4 5.6-4.7 6.9-6.4 1.4-1.7 2.1-2.8 2.3-2.7z" style="stroke:#000;stroke-miterlimit:10"></path>
  <path d="M781.8 228.3c.3.3.1 1-.4 2-.6.9-1.7 2.1-3.6 2.7-1.9.6-3.9 0-4.8-.9-.5-.5-.8-1-.8-1.4-.1-.4.1-.6.2-.8.4-.2 1 0 1.7.1s1.7.1 2.7-.2c1.1-.3 2.1-.9 3-1.3 1-.4 1.7-.5 2-.2zM838.9 196.1c-.4.1-1.6-2.1-2.7-6.1-.6-2-1-4.4-1.4-7.1-.3-2.7-.5-5.7-.5-8.9.1-3.1.4-6.1.9-8.8.5-2.7 1.1-5.1 1.7-7 1.3-3.9 2.6-6.1 3-6 .9.3-2.1 9.8-2.3 21.9-.3 12.1 2.2 21.7 1.3 22zM340.6 612.3c.1.1-.5.6-1.6 1.6-.6.5-1.3 1.1-2.1 1.8-.4.3-.9.7-1.4 1.1-.5.4-1 .8-1.6 1.2-1.1.8-2.4 1.8-3.8 2.8-1.4 1-3 2-4.7 3.1-1.7 1.1-3.6 2.1-5.5 3.3-1.9 1.2-4.1 2.2-6.4 3.4-.6.3-1.1.6-1.7.9-.6.3-1.2.5-1.8.8-1.2.5-2.4 1.1-3.7 1.7-1.2.6-2.6 1.1-3.9 1.6-1.3.5-2.7 1.1-4.1 1.6-1.4.5-2.8 1-4.3 1.5-.7.2-1.5.5-2.2.7-.7.2-1.5.4-2.3.7-1.5.4-3.1.9-4.6 1.3l-4.8 1.2c-1.6.4-3.3.7-5 1.1-1.7.3-3.4.7-5.1.9-1.7.3-3.5.5-5.3.8-1.8.2-3.6.4-5.4.5-7.3.6-14.8.8-22.6.3-7.7-.6-15.2-1.7-22.3-3.3-1.8-.4-3.5-.8-5.3-1.3l-5.1-1.5c-1.7-.5-3.3-1.1-4.9-1.6-1.6-.6-3.2-1.1-4.8-1.7-1.6-.6-3.1-1.2-4.6-1.8-1.5-.6-3-1.3-4.4-2-.7-.3-1.4-.6-2.2-1-.7-.3-1.4-.7-2.1-1-1.4-.7-2.7-1.4-4-2-1.3-.7-2.6-1.4-3.8-2.1-1.2-.7-2.5-1.4-3.6-2.1-1.2-.7-2.3-1.5-3.4-2.2-.6-.4-1.1-.7-1.7-1.1-.5-.4-1.1-.7-1.6-1.1-2.1-1.5-4.1-2.8-5.8-4.2-1.8-1.4-3.5-2.7-5-4-1.5-1.3-2.9-2.5-4.2-3.7-1.2-1.2-2.4-2.3-3.4-3.2l-1.4-1.4c-.4-.5-.8-.9-1.2-1.3-.7-.8-1.3-1.5-1.8-2-1-1.1-1.4-1.7-1.4-1.8s.7.4 1.8 1.4c.6.5 1.2 1.1 2 1.8.4.4.8.8 1.3 1.2.5.4 1 .8 1.5 1.3 1.1.9 2.2 1.9 3.5 3 1.3 1.1 2.8 2.2 4.3 3.4 1.5 1.3 3.3 2.4 5.1 3.8 1.8 1.3 3.8 2.6 5.9 4 .5.3 1 .7 1.6 1 .5.3 1.1.7 1.7 1 1.1.7 2.3 1.3 3.4 2 1.2.7 2.4 1.3 3.6 2 1.2.7 2.5 1.4 3.8 2 1.3.6 2.7 1.3 4 1.9.7.3 1.4.7 2.1 1l2.1.9c1.4.6 2.9 1.3 4.4 1.9 1.5.6 3 1.1 4.5 1.7 1.5.6 3.1 1.1 4.7 1.6s3.2 1.1 4.9 1.5c1.7.5 3.3.9 5 1.4 1.7.4 3.4.8 5.2 1.2 7 1.5 14.3 2.6 21.8 3.2 7.6.5 15 .4 22.1-.2 1.8-.2 3.5-.3 5.3-.5 1.7-.2 3.5-.5 5.2-.7 1.7-.2 3.4-.6 5-.9 1.6-.3 3.3-.6 4.9-1 1.6-.4 3.2-.7 4.7-1.1 1.6-.4 3.1-.8 4.6-1.3.7-.2 1.5-.4 2.2-.6.7-.2 1.5-.5 2.2-.7 1.4-.5 2.8-.9 4.2-1.4 1.4-.5 2.7-1 4-1.5 1.3-.5 2.6-.9 3.9-1.5 1.2-.5 2.5-1.1 3.7-1.6.6-.3 1.2-.5 1.8-.8.6-.3 1.1-.5 1.7-.8 2.2-1.1 4.4-2.1 6.4-3.1 2-1.1 3.9-2 5.6-3 1.7-1 3.3-1.9 4.8-2.8 1.4-.9 2.7-1.8 3.9-2.5.6-.4 1.1-.7 1.7-1.1.5-.4 1-.7 1.4-1 .9-.6 1.7-1.1 2.3-1.5 1.3-.8 2-1.2 2.1-1.1z" style="stroke:#000;stroke-miterlimit:10"></path>
  <ellipse cx="502" cy="683.1" rx="159.9" ry="1.6" style="stroke:#000;stroke-miterlimit:10" transform="rotate(26.35 502.027 683.156)"></ellipse>
  <ellipse cx="447.5" cy="683" rx="103.4" ry="1.6" style="stroke:#000;stroke-miterlimit:10" transform="rotate(27.687 447.555 682.964)"></ellipse>
  <path d="M597.5 785.7c-.2.4-7.9-3.8-20.2-10.7-12.3-6.9-29.3-16.4-48.2-26.7-18.9-10.3-36.1-19.5-48.6-26.1-12.5-6.6-20.1-10.8-19.9-11.2.1-.2 2.2.6 5.8 2.2 3.6 1.6 8.8 4 15.2 7 12.7 6.1 30.1 15 49.1 25.3 18.9 10.3 35.8 20.2 47.8 27.6 6 3.7 10.8 6.8 14.1 9 3.3 2.1 5 3.4 4.9 3.6z" style="stroke:#000;stroke-miterlimit:10"></path>
  <ellipse cx="503.3" cy="640" rx="161.6" ry="1.6" style="stroke:#000;stroke-miterlimit:10" transform="rotate(26.983 503.372 640.083)"></ellipse>
  <path d="M128.7 589.6c-.2.1-1-1.5-2.3-4.5-.3-.7-.7-1.6-1.1-2.5-.4-.9-.7-1.9-1.1-3-.8-2.2-1.7-4.6-2.5-7.4-.4-1.4-.8-2.9-1.3-4.4-.4-1.5-.8-3.1-1.2-4.8-.9-3.3-1.5-6.9-2.3-10.7-1.3-7.6-2.4-16-2.8-24.9-.3-8.9 0-17.4.7-25 .4-3.8.8-7.5 1.4-10.8.3-1.7.5-3.3.8-4.9.3-1.6.6-3 .9-4.5.6-2.9 1.3-5.4 1.9-7.6.3-1.1.6-2.2.9-3.1.3-.9.6-1.8.9-2.6 1-3.1 1.7-4.7 1.9-4.7.2.1 0 1.8-.7 5-.2.8-.4 1.7-.6 2.6-.2 1-.4 2-.6 3.1-.4 2.3-1 4.8-1.4 7.6-.2 1.4-.5 2.9-.7 4.5-.2 1.5-.4 3.2-.6 4.8-.5 3.3-.7 6.9-1.1 10.7-.5 7.6-.7 15.9-.4 24.6.4 8.7 1.3 17 2.5 24.5.7 3.7 1.2 7.3 2 10.6.4 1.6.7 3.3 1 4.8.4 1.5.7 3 1.1 4.4.6 2.8 1.4 5.3 2 7.5.3 1.1.6 2.1.8 3.1.3.9.5 1.8.8 2.6.9 3.2 1.3 5 1.1 5z" style="stroke:#000;stroke-miterlimit:10"></path>
  <path d="M344.5 559.2c.1.1-.8.7-2.4 1.7-1.6 1-4 2.4-7.1 4.2-6.3 3.5-15.5 8.3-27.4 13.2-11.9 4.8-26.5 9.8-43.3 12.8-8.4 1.5-17.3 2.5-26.6 2.6-9.3.1-18.9-.6-28.7-2.2-9.7-1.7-19-4.5-27.6-8-8.6-3.5-16.5-8-23.4-13.1-13.9-10.2-23.7-22.5-29.9-33.8-3.1-5.7-5.4-11.1-7-16-.5-1.2-.7-2.4-1.1-3.6-.3-1.2-.6-2.2-.9-3.3-.4-2.2-.9-4.1-1.2-5.9-.2-1.8-.4-3.4-.6-4.8-.2-1.4-.1-2.6-.2-3.5-.1-1.9 0-2.9.1-2.9s.3 1 .6 2.8c.2.9.2 2.1.5 3.4.3 1.3.5 2.9.9 4.6.4 1.7.9 3.6 1.4 5.7.3 1 .7 2.1 1 3.2.4 1.1.7 2.3 1.2 3.5 1.7 4.7 4.1 9.9 7.2 15.4 6.3 10.9 16.1 22.8 29.7 32.5 6.8 4.8 14.5 9.2 22.9 12.6 8.4 3.4 17.5 6.1 27 7.8 9.5 1.7 18.9 2.3 28.1 2.3 9.1-.1 17.9-1 26.2-2.3 16.6-2.8 31.1-7.4 43-12 11.9-4.6 21.2-9 27.6-12.2 6.4-3.2 9.9-5 10-4.7zM247.9 378.6c0-.1 1.1-.3 3.1-.3 2.1 0 5.1.1 8.9 1 3.8.9 8.4 2.4 13.3 5.2 4.9 2.8 10 6.8 14.5 12.3 4.5 5.4 8.4 12.3 11 20.2 2.7 7.9 4.1 16.7 4 26-.1 4.7-.6 9.5-1.9 14.3-1.3 4.8-3.4 9.5-6.2 13.8-5.6 8.6-13.5 15.9-22.6 21.7-9.1 5.8-19.1 9.6-28.9 11.7l-1.8.4-1.9.3c-1.2.2-2.5.4-3.7.6-2.5.3-4.9.6-7.3.7-4.9.4-9.6.2-14.3-.2-9.3-.9-17.9-3-25.6-5.9-7.7-2.9-14.5-6.6-20.4-10.4-5.9-3.8-10.8-7.8-14.9-11.5-2-1.9-3.9-3.7-5.5-5.4-.8-.9-1.6-1.7-2.3-2.5-.7-.8-1.4-1.6-2-2.3-1.3-1.5-2.3-2.9-3.2-4-.9-1.2-1.7-2.2-2.2-3.1-1.1-1.7-1.7-2.6-1.6-2.7.1-.1.8.7 2.1 2.3.6.8 1.4 1.8 2.4 2.9 1 1.1 2.1 2.4 3.4 3.8.7.7 1.4 1.4 2.1 2.2.7.8 1.6 1.5 2.4 2.4 1.6 1.7 3.6 3.3 5.6 5.2 4.2 3.5 9.1 7.3 14.9 10.9 5.8 3.6 12.5 7 20.1 9.8 7.6 2.7 16 4.7 24.9 5.5 4.5.3 9.1.5 13.8.1 2.4-.1 4.7-.5 7.1-.7l3.6-.6 1.8-.3 1.8-.4c9.6-2.1 19.1-5.9 27.9-11.4 8.7-5.5 16.4-12.5 21.7-20.6 2.6-4.1 4.6-8.4 5.8-12.9 1.2-4.5 1.8-9 1.9-13.5.2-9-1.1-17.6-3.6-25.1-2.4-7.6-6-14.2-10.2-19.6-4.2-5.3-9-9.3-13.6-12.1-4.6-2.9-9-4.5-12.7-5.6-3.7-1-6.7-1.4-8.7-1.6-2-.4-3-.4-3-.6z" style="stroke:#000;stroke-miterlimit:10"></path>
  <path d="M259.6 456.2c-.5-.2 1.2-4.2.8-11-.1-3.4-.7-7.5-1.4-12-.6-4.5-1.4-9.5-2.4-14.7-3.8-20.8-9.1-37.2-8.2-37.5.4-.1 2.3 3.8 4.6 10.4 2.3 6.6 4.9 16 6.9 26.5 1 5.3 1.7 10.3 2.2 14.9.5 4.6.8 8.8.7 12.4-.1 3.6-.8 6.5-1.5 8.4-.9 1.8-1.6 2.7-1.7 2.6zM290.7 463.3c-.4.8-6.7-1.6-14.7-3.9-7.9-2.3-14.6-3.5-14.5-4.4 0-.9 7.1-1.1 15.4 1.3 8.3 2.4 14.2 6.3 13.8 7zM438.2 491.3c-.1-.1.7-.8 2.1-2.1l2.5-2.5c.9-1.1 2-2.2 3-3.8 2.1-2.9 4.2-6.8 5.8-11.6.8-2.4 1.4-5.1 1.9-7.9.3-2.9.7-5.9.5-9.1-.1-3.2-.5-6.5-1.3-9.9-.8-3.4-2-6.8-3.5-10.2-3.1-6.8-7.7-13.6-13.5-19.8-5.8-6.2-12.8-11.9-20.6-16.9-3.9-2.6-8-4.8-12.3-7-4.3-2.1-8.7-4.1-13.3-5.8-9.2-3.6-18.5-6.1-27.6-7.9-9.1-1.9-18.1-2.9-26.6-3.5-17.1-1.2-32.6-.6-45.6.3-13 .9-23.5 2.1-30.7 2.8-7.3.8-11.3 1.1-11.3.9 0-.1 1-.4 2.9-.7 1.9-.4 4.7-.8 8.3-1.4 7.2-1.1 17.7-2.7 30.7-3.9 13-1.2 28.6-2.1 46-1 8.7.5 17.7 1.6 27 3.4 9.3 1.8 18.8 4.4 28.2 8 4.7 1.7 9.2 3.9 13.6 6 4.3 2.3 8.6 4.6 12.5 7.2 8 5.2 15.1 11 21 17.5s10.6 13.5 13.7 20.7c1.5 3.6 2.7 7.2 3.5 10.8.8 3.6 1.1 7.1 1.2 10.4.1 3.3-.3 6.5-.8 9.5-.6 2.9-1.2 5.7-2.2 8.2-1.8 5-4.2 8.9-6.5 11.8-1.1 1.5-2.3 2.6-3.3 3.7-1.1.9-2 1.7-2.7 2.3-1.6 1-2.5 1.6-2.6 1.5zM674.3 574.8c-.1.2-3.4-.7-9.4-2.5s-14.5-4.6-25.1-8.1c-21.2-7-50.3-17.1-82.3-28.6s-60.8-22.4-81.6-30.5c-10.4-4.1-18.8-7.4-24.5-9.8-5.8-2.4-8.9-3.8-8.8-4s3.4.8 9.3 2.8c5.9 2 14.4 5.1 24.9 8.8 21 7.6 49.9 18.1 81.9 29.6 32 11.5 61 21.9 81.9 29.5 10.5 3.8 18.9 6.9 24.8 9.1 5.8 2.2 9 3.5 8.9 3.7z" style="stroke:#000;stroke-miterlimit:10"></path>
  <ellipse cx="736.8" cy="596.7" rx="24.5" ry="1.6" style="stroke:#000;stroke-miterlimit:10" transform="rotate(16.469 736.885 596.756)"></ellipse>
  <path d="M594.5 535.1c-.2.4-7.3-2.2-18.6-6.8-11.3-4.5-27-10.9-44.2-17.9-17.3-7-32.9-13.3-44.2-18-11.3-4.7-18.2-7.7-18-8.1.2-.4 7.4 1.9 18.9 6 11.5 4.1 27.3 10.1 44.5 17.1 17.3 7 32.8 13.7 43.9 18.8 11.1 5.1 17.8 8.5 17.7 8.9zM355.5 363.9c0 .4-5.6.8-14.5.1-4.5-.3-9.7-1-15.5-1.7-5.8-.7-12.2-1.5-18.9-2-6.7-.4-13.1-.4-18.8.2-5.7.5-10.8 1.7-15.1 2.7-4.3 1.1-7.7 2-10.1 2.6-2.4.6-3.8.8-3.9.6-.1-.2 1.2-.9 3.5-1.8 2.3-1 5.7-2.3 9.9-3.7 4.3-1.3 9.5-2.8 15.4-3.5 5.9-.8 12.5-.9 19.3-.4 6.8.5 13.3 1.4 19.1 2.2 5.8.9 11 1.7 15.4 2.3 8.7 1.5 14.2 1.9 14.2 2.4zM1224 921.4c0 .1-1.4-.2-3.9-1s-6.2-1.9-11-3.5c-9.5-3.1-23.2-7.8-40.1-13.7-16.9-6-36.9-13.2-59-21.5-22.2-8.3-46.4-17.6-71.9-27.5-50.8-19.9-96.6-38.4-129.7-51.9-16.6-6.8-29.9-12.3-39.1-16.2-4.6-1.9-8.2-3.5-10.6-4.6-2.4-1.1-3.6-1.7-3.6-1.8 0-.1 1.4.3 3.9 1.2s6.1 2.2 10.8 4c9.4 3.5 22.9 8.7 39.5 15.2 33.3 13.1 79.3 31.1 130.1 51 25.4 9.9 49.6 19.3 71.7 27.7 22.1 8.4 42 15.9 58.8 22.1 16.8 6.2 30.3 11.2 39.7 14.7 4.7 1.7 8.3 3.1 10.8 4.1s3.6 1.6 3.6 1.7zM1214.3 977.8c0 .1-1.5-.3-4.4-1.3-2.8-.9-7-2.3-12.3-4.2-10.7-3.7-26-9.2-45-16.1-37.9-13.8-90.1-33.3-147.5-55.7-28.7-11.2-55.9-22-80.7-32-12.4-5-24.1-9.8-35-14.4-11-4.5-21.2-8.8-30.5-12.6-18.6-7.8-33.7-14.1-44-18.5-5.2-2.2-9.2-4-11.9-5.2-2.7-1.2-4.1-1.9-4.1-2s1.5.4 4.3 1.4c2.8 1 6.9 2.6 12.1 4.6 10.5 4.1 25.7 10.1 44.4 17.6 18.7 7.5 41 16.4 65.8 26.3 24.8 9.8 52.1 20.6 80.7 31.7 57.3 22.4 109.4 42.2 147.1 56.6 18.8 7.2 34.1 13 44.6 17.1 5.3 2 9.3 3.6 12.1 4.8s4.3 1.8 4.3 1.9zM726.6 794.4c-.5.8-6.6-2-14.3-4.6-7.7-2.7-14.2-4.3-14.1-5.2.1-.9 7.1-.7 15.2 2.1 8 2.8 13.6 7 13.2 7.7zM1371.9 826.6c0 .1-1.5-.2-4.1-.9-2.7-.7-6.6-1.8-11.7-3.2-10.1-2.9-24.8-7.2-42.8-12.8-36-11.2-85.5-27.5-139.7-46.7-54.3-19.1-103.1-37-138.5-50-17.7-6.5-32-11.8-41.8-15.6-4.9-1.9-8.7-3.4-11.3-4.4-2.6-1-3.9-1.6-3.9-1.7 0-.1 1.4.3 4.1 1.1 2.6.8 6.5 2.1 11.5 3.8 10 3.4 24.4 8.4 42.2 14.6 35.5 12.6 84.6 30 138.8 49.1 54.2 19.1 103.5 35.8 139.3 47.6 17.9 5.8 32.4 10.5 42.4 13.8 5 1.6 8.9 2.9 11.5 3.8 2.7.8 4 1.4 4 1.5zM1370 833.5c.2.4-6.7 4.8-17.9 11.7-11.2 6.9-26.7 16.5-43.6 27.3-16.9 10.8-32.1 20.8-43.1 28.1-11 7.2-17.8 11.7-18.1 11.3-.3-.4 6.1-5.5 16.8-13.2 10.7-7.7 25.7-18.1 42.7-28.9 17-10.8 32.7-20.1 44.2-26.5 11.4-6.5 18.7-10.1 19-9.8z" style="stroke:#000;stroke-miterlimit:10"></path>
  <ellipse cx="1245.1" cy="952.8" rx="31.3" ry="1.6" style="stroke:#000;stroke-miterlimit:10" transform="rotate(80.723 1245.13 952.736)"></ellipse>
  <path d="M1387.9 891.3c.1.2-1.7 1.6-5 4.1-3.3 2.5-8.2 6-14.3 10.3-12.2 8.5-29.1 20.2-48 32.8-9.4 6.3-18.4 12.3-26.6 17.8-8.2 5.4-15.6 10.3-22 14.2-6.4 3.9-11.9 6.5-15.9 7.9-4 1.4-6.3 1.8-6.3 1.6-.1-.2 2.1-1 5.8-2.8 3.7-1.8 9-4.6 15.2-8.7 6.2-4.1 13.4-9.2 21.6-14.7 8.1-5.6 17.1-11.6 26.5-18 18.8-12.7 36-24 48.5-32 6.3-4 11.4-7.2 14.9-9.4s5.5-3.3 5.6-3.1z" style="stroke:#000;stroke-miterlimit:10"></path>
  <path d="M1386 893.4c-.9 0-1.8-12.7-2.5-28.3-.7-15.6-1-28.4-.1-28.4.9-.1 2.7 12.6 3.4 28.3.7 15.6.1 28.4-.8 28.4zM1200 1004.3c-.1.2-3.1-.7-8.6-2.4s-13.4-4.4-23.1-7.8c-19.5-6.8-46.2-16.7-75.4-28.5-29.2-11.8-55.3-23.2-74.1-31.7-9.4-4.3-16.9-7.9-22.1-10.4-5.2-2.6-8-4.1-7.9-4.3.1-.2 3.1.9 8.4 3.1 5.3 2.2 13 5.4 22.5 9.5 19 8 45.2 19.1 74.4 30.8 29.2 11.7 55.7 22 75 29.3 9.6 3.7 17.4 6.7 22.8 8.8 5.3 2.1 8.2 3.4 8.1 3.6z" style="stroke:#000;stroke-miterlimit:10"></path>
  <ellipse cx="1123.5" cy="990.1" rx="54.2" ry="1.6" style="stroke:#000;stroke-miterlimit:10" transform="rotate(18.827 1123.682 990.31)"></ellipse>
</svg>
